<?xml version="1.0" standalone="no"?>
<!DOCTYPE svg PUBLIC "-//W3C//DTD SVG 20010904//EN"
 "http://www.w3.org/TR/2001/REC-SVG-20010904/DTD/svg10.dtd">
<svg version="1.0" xmlns="http://www.w3.org/2000/svg"
 width="900.000000pt" height="900.000000pt" viewBox="0 0 900.000000 900.000000"
 preserveAspectRatio="xMidYMid meet">

<g transform="translate(0.000000,900.000000) scale(0.100000,-0.100000)"
fill="#000000" stroke="none">
<path d="M0 4500 l0 -4500 4500 0 4500 0 0 4500 0 4500 -4500 0 -4500 0 0
-4500z m1732 657 c72 -156 128 -276 212 -455 42 -90 76 -165 76 -168 0 -2 -27
-4 -60 -4 -33 0 -60 4 -60 10 0 5 -19 50 -41 100 l-42 90 -147 0 -146 0 -32
-72 c-17 -40 -36 -85 -41 -100 -10 -26 -15 -28 -66 -28 -54 0 -56 1 -49 22 4
12 71 160 149 329 79 169 146 317 150 330 9 30 24 49 39 49 6 0 32 -46 58
-103z m863 69 c83 -36 128 -100 128 -183 0 -73 -35 -139 -95 -179 l-47 -32 72
-104 c40 -57 85 -121 101 -142 35 -45 27 -56 -45 -56 l-47 0 -88 140 -89 140
-52 0 -53 0 0 -140 0 -141 -56 3 -55 3 1 349 c0 192 3 353 7 358 10 18 272 4
318 -16z m943 -23 l-3 -48 -115 0 -115 0 -2 -310 -2 -310 -56 -3 -57 -3 8 208
c4 114 3 257 -1 317 l-7 109 -114 -7 -114 -7 0 51 0 50 291 0 290 0 -3 -47z
m-1406 -1265 c101 -116 201 -233 223 -259 22 -26 44 -48 49 -48 5 -1 7 111 5
252 l-4 252 54 3 54 3 -6 -137 c-4 -75 -7 -240 -7 -366 0 -211 -1 -228 -17
-227 -10 0 -98 93 -203 215 -102 117 -204 235 -227 261 l-43 48 1 -255 0 -255
-53 0 c-50 0 -53 1 -51 25 1 22 14 674 13 693 -1 31 53 -21 212 -205z m1029
191 c27 -12 49 -25 49 -30 0 -5 -7 -27 -16 -49 l-16 -39 -37 18 c-53 28 -104
35 -145 21 -45 -14 -66 -44 -66 -90 0 -45 27 -72 125 -126 123 -67 175 -129
175 -206 0 -94 -57 -175 -142 -204 -70 -23 -179 -15 -244 17 -48 24 -49 25
-48 71 0 26 2 50 5 52 2 3 33 -9 67 -26 50 -25 77 -32 127 -32 57 -1 67 2 94
28 25 24 31 38 31 74 0 54 -24 80 -130 142 -99 57 -121 75 -147 118 -54 87 -4
214 102 263 56 26 152 25 216 -2z m-1613 -346 l-3 -358 -52 -3 -53 -3 0 360 0
361 55 0 55 0 -2 -357z m2482 312 l0 -45 -120 0 -120 0 0 -316 0 -315 -52 3
-53 3 4 275 c2 151 0 292 -4 313 l-7 37 -114 0 -114 0 0 45 0 45 290 0 290 0
0 -45z m378 -312 l-3 -358 -52 -3 -53 -3 0 360 0 361 55 0 55 0 -2 -357z m842
312 l0 -45 -120 0 -120 0 0 -316 0 -315 -52 3 -53 3 -3 313 -2 312 -115 0
-115 0 0 45 0 45 290 0 290 0 0 -45z m356 8 c46 -108 110 -260 150 -360 26
-62 49 -113 53 -113 3 0 23 42 43 93 20 50 66 164 101 252 l65 160 56 3 c32 2
56 -1 56 -7 0 -5 -16 -45 -36 -88 -19 -43 -53 -118 -74 -168 -21 -49 -55 -128
-76 -175 -20 -47 -56 -130 -79 -185 -24 -57 -48 -101 -57 -103 -10 -2 -21 12
-33 40 -9 24 -38 93 -65 153 -27 61 -74 169 -105 240 -31 72 -72 163 -91 203
-19 41 -34 78 -34 83 0 5 25 9 55 9 54 0 55 -1 71 -37z m1290 6 c-3 -17 -6
-38 -6 -45 0 -10 -27 -14 -116 -16 l-115 -3 1 -313 1 -313 -56 3 -56 3 1 313
1 312 -121 0 -120 0 0 45 0 45 296 0 297 0 -7 -31z m690 15 c-3 -9 -6 -29 -6
-45 l0 -29 -140 0 -140 0 0 -105 0 -105 120 0 120 0 0 -40 0 -40 -120 0 -120
0 0 -126 0 -126 153 3 c168 4 153 10 149 -60 l-2 -29 -205 0 -205 1 0 358 0
359 201 0 c179 0 200 -2 195 -16z m-5679 -1112 c52 -27 55 -32 42 -73 -17 -51
-21 -52 -73 -23 -99 56 -221 42 -308 -34 -105 -93 -110 -309 -10 -416 43 -46
97 -66 180 -66 79 0 160 29 197 70 30 33 37 24 30 -32 -9 -66 -16 -75 -85
-107 -46 -21 -70 -25 -150 -25 -83 -1 -102 2 -151 25 -105 49 -181 151 -200
267 -25 155 62 336 193 403 69 35 87 39 193 36 80 -3 108 -8 142 -25z m2204
13 c24 -9 54 -22 66 -30 19 -13 20 -18 11 -52 -5 -21 -13 -41 -17 -45 -3 -4
-31 5 -60 19 -81 40 -165 43 -235 9 -68 -33 -108 -78 -136 -153 -52 -136 12
-307 133 -358 49 -20 150 -21 207 0 25 9 62 30 83 46 21 17 41 29 43 26 3 -2
2 -28 -2 -56 -8 -64 -30 -83 -127 -112 -262 -80 -500 127 -458 398 20 132 90
231 203 287 65 33 78 36 158 36 53 0 105 -6 131 -15z m715 -122 c263 -560 271
-578 255 -585 -9 -4 -34 -7 -56 -7 l-40 -1 -45 103 -46 102 -146 3 -146 3 -42
-101 -42 -100 -59 0 -59 0 21 42 c52 102 281 603 302 661 16 43 39 15 103
-120z m1022 104 c46 -24 52 -31 46 -50 -15 -49 -25 -68 -32 -65 -95 48 -109
52 -192 53 -76 0 -91 -3 -138 -29 -92 -51 -132 -127 -132 -250 0 -116 54 -206
148 -248 50 -22 162 -26 219 -7 l33 11 0 113 0 113 45 6 c25 4 49 4 55 1 6 -4
10 -63 10 -145 l0 -139 -52 -25 c-109 -53 -239 -59 -351 -16 -73 28 -149 100
-185 177 -24 51 -27 70 -27 158 0 87 4 108 27 156 44 96 122 167 226 206 25 9
71 12 142 10 91 -3 112 -7 158 -30z m803 22 c51 -18 124 -69 158 -112 127
-161 82 -451 -87 -558 -146 -93 -342 -72 -452 47 -70 76 -85 121 -85 254 0
103 3 121 26 171 44 94 118 163 208 195 45 16 187 18 232 3z m-4281 -149 l0
-150 182 2 182 3 -3 148 -2 147 55 0 56 0 2 -355 3 -355 -58 0 -58 0 3 160 3
160 -182 0 -183 0 0 -160 0 -160 -53 0 -52 0 -1 355 0 355 53 0 53 0 0 -150z
m945 -205 l0 -355 -55 0 -55 0 0 355 0 355 55 0 55 0 0 -355z"/>
<path d="M1616 4943 c-25 -60 -46 -111 -46 -115 0 -5 45 -8 100 -8 55 0 100 3
100 7 0 15 -94 223 -101 223 -3 0 -27 -48 -53 -107z"/>
<path d="M2388 5154 c-5 -4 -8 -63 -8 -132 l0 -124 78 3 c61 3 84 9 109 27 69
49 66 164 -5 205 -35 21 -161 36 -174 21z"/>
<path d="M4740 2839 c0 -3 -22 -55 -49 -117 l-49 -112 105 0 c80 0 104 3 100
13 -49 114 -107 231 -107 216z"/>
<path d="M6475 2949 c-88 -21 -154 -93 -181 -201 -34 -131 13 -266 112 -324
125 -73 285 -18 344 118 32 74 32 192 0 266 -28 65 -87 117 -154 137 -55 17
-64 17 -121 4z"/>
</g>
</svg>
