<svg width="612" height="389" viewBox="0 0 612 389" fill="none" xmlns="http://www.w3.org/2000/svg">
<path d="M306 388.045C474.999 388.045 612 382.057 612 374.671C612 367.285 474.999 361.298 306 361.298C137.001 361.298 0 367.285 0 374.671C0 382.057 137.001 388.045 306 388.045Z" fill="#F5F5F5"/>
<path d="M419.552 63.4614H137.194C130.814 63.4614 125.642 67.3333 125.642 72.1094V320.988C125.642 325.764 130.814 329.636 137.194 329.636H419.552C425.933 329.636 431.105 325.764 431.105 320.988V72.1094C431.105 67.3333 425.933 63.4614 419.552 63.4614Z" fill="#B20937"/>
<path opacity="0.6" d="M419.552 63.4614H137.194C130.814 63.4614 125.642 67.3333 125.642 72.1094V320.988C125.642 325.764 130.814 329.636 137.194 329.636H419.552C425.933 329.636 431.105 325.764 431.105 320.988V72.1094C431.105 67.3333 425.933 63.4614 419.552 63.4614Z" fill="white"/>
<path d="M381.628 185.538H175.134V212.001H381.628V185.538Z" fill="white"/>
<g opacity="0.4">
<path d="M193.6 201.345V202.042H186.434V194.457H193.379V195.143H187.508V197.848H192.747V198.521H187.508V201.345H193.6Z" fill="#263238"/>
<path d="M195.036 198.77H198.839V199.431H195.036V198.77Z" fill="#263238"/>
<path d="M213.69 198.734V202.042H212.664V198.805C212.664 197.624 211.859 196.986 210.486 196.986C210.13 196.973 209.775 197.019 209.445 197.12C209.116 197.221 208.819 197.375 208.577 197.571C208.335 197.767 208.153 198 208.044 198.254C207.935 198.508 207.901 198.776 207.945 199.041V202.042H206.904V198.805C206.904 197.624 206.099 196.986 204.71 196.986C204.354 196.973 203.999 197.019 203.669 197.12C203.339 197.221 203.043 197.375 202.801 197.571C202.559 197.767 202.377 198 202.268 198.254C202.159 198.508 202.125 198.776 202.169 199.041V202.042H201.128V196.336H202.122V197.375C202.42 197.027 202.834 196.743 203.325 196.553C203.815 196.362 204.363 196.271 204.915 196.288C205.473 196.253 206.032 196.348 206.515 196.559C206.998 196.771 207.382 197.089 207.614 197.47C207.929 197.089 208.375 196.779 208.906 196.571C209.436 196.363 210.031 196.266 210.628 196.288C211.057 196.264 211.487 196.312 211.887 196.429C212.288 196.545 212.648 196.727 212.942 196.962C213.236 197.197 213.456 197.478 213.585 197.784C213.715 198.091 213.75 198.416 213.69 198.734Z" fill="#263238"/>
<path d="M222.244 198.498V202.042H221.25V201.144C220.968 201.464 220.575 201.72 220.114 201.887C219.653 202.053 219.14 202.123 218.63 202.089C216.91 202.089 215.852 201.416 215.852 200.435C215.852 199.455 216.61 198.817 218.788 198.817H221.203V198.474C221.203 197.494 220.477 196.962 219.056 196.962C218.129 196.954 217.229 197.193 216.515 197.635L216.058 197.068C216.949 196.531 218.071 196.254 219.214 196.289C219.617 196.252 220.026 196.283 220.41 196.38C220.795 196.478 221.145 196.638 221.436 196.85C221.726 197.062 221.95 197.32 222.09 197.605C222.23 197.89 222.283 198.195 222.244 198.498ZM221.203 200.329V199.396H218.819C217.352 199.396 216.862 199.821 216.862 200.412C216.862 201.002 217.573 201.487 218.788 201.487C219.303 201.512 219.815 201.414 220.25 201.205C220.684 200.997 221.018 200.69 221.203 200.329Z" fill="#263238"/>
<path d="M224.801 194.54C224.803 194.467 224.824 194.395 224.863 194.329C224.902 194.262 224.959 194.201 225.029 194.151C225.1 194.1 225.183 194.061 225.273 194.034C225.364 194.008 225.461 193.995 225.558 193.997C225.654 193.995 225.749 194.008 225.837 194.034C225.926 194.059 226.008 194.098 226.076 194.147C226.145 194.197 226.2 194.256 226.239 194.321C226.277 194.387 226.298 194.457 226.3 194.528C226.302 194.602 226.285 194.676 226.248 194.744C226.212 194.813 226.158 194.876 226.089 194.929C226.019 194.981 225.937 195.023 225.846 195.052C225.755 195.081 225.657 195.095 225.558 195.095C225.46 195.097 225.361 195.084 225.27 195.057C225.178 195.029 225.094 194.989 225.024 194.937C224.953 194.885 224.897 194.824 224.859 194.755C224.821 194.687 224.801 194.614 224.801 194.54ZM225.038 196.336H226.063V202.042H225.038V196.336Z" fill="#263238"/>
<path d="M228.92 193.997H229.946V202.042H228.92V193.997Z" fill="#263238"/>
</g>
<path d="M381.628 221.689H175.134V248.153H381.628V221.689Z" fill="white"/>
<g opacity="0.4">
<path d="M194.357 233.243C194.357 234.862 192.779 235.843 190.222 235.843H187.508V238.205H186.434V230.621H190.222C192.795 230.644 194.357 231.625 194.357 233.243ZM193.284 233.243C193.284 232.062 192.226 231.341 190.127 231.341H187.445V235.134H190.127C192.226 235.134 193.284 234.437 193.284 233.243Z" fill="#263238"/>
<path d="M202.138 234.697V238.241H201.143V237.343C200.861 237.663 200.469 237.919 200.007 238.085C199.546 238.252 199.034 238.322 198.524 238.288C196.803 238.288 195.746 237.615 195.746 236.622C195.746 235.63 196.504 234.98 198.681 234.98H201.096V234.626C201.096 233.657 200.354 233.125 198.934 233.125C198.012 233.116 197.116 233.355 196.409 233.799L195.935 233.22C196.835 232.694 197.952 232.423 199.092 232.452C199.5 232.412 199.915 232.443 200.306 232.541C200.696 232.639 201.051 232.803 201.345 233.019C201.638 233.235 201.862 233.499 202 233.789C202.137 234.08 202.184 234.39 202.138 234.697ZM201.112 236.516V235.583H198.681C197.214 235.583 196.74 236.02 196.74 236.61C196.74 237.201 197.435 237.674 198.666 237.674C199.185 237.702 199.704 237.606 200.144 237.397C200.585 237.189 200.924 236.88 201.112 236.516Z" fill="#263238"/>
<path d="M203.874 237.579L204.331 236.977C205.127 237.393 206.075 237.615 207.046 237.615C208.482 237.615 209.082 237.248 209.082 236.681C209.082 235.193 204.142 236.362 204.142 234.118C204.142 233.184 205.215 232.487 207.156 232.487C208.103 232.481 209.035 232.664 209.855 233.019L209.397 233.633C208.734 233.305 207.952 233.136 207.156 233.149C205.783 233.149 205.168 233.55 205.168 234.094C205.168 235.63 210.108 234.472 210.108 236.658C210.108 237.65 208.956 238.288 206.951 238.288C205.85 238.309 204.769 238.06 203.874 237.579Z" fill="#263238"/>
<path d="M210.944 237.579L211.418 236.977C212.205 237.397 213.149 237.621 214.116 237.615C215.568 237.615 216.152 237.248 216.152 236.681C216.152 235.193 211.228 236.362 211.228 234.118C211.228 233.184 212.301 232.487 214.227 232.487C215.174 232.478 216.107 232.662 216.926 233.019L216.484 233.633C215.813 233.306 215.027 233.137 214.227 233.149C212.854 233.149 212.254 233.551 212.254 234.094C212.254 235.63 217.194 234.472 217.194 236.658C217.194 237.65 216.026 238.288 214.037 238.288C212.931 238.308 211.846 238.059 210.944 237.579Z" fill="#263238"/>
<path d="M230.104 232.534L227.231 238.229H226.269L223.933 233.562L221.534 238.229H220.571L217.62 232.534H218.598L220.997 237.378L223.444 232.534H224.327L226.758 237.378L229.173 232.534H230.104Z" fill="#263238"/>
<path d="M230.672 235.382C230.672 234.807 230.9 234.245 231.326 233.767C231.753 233.289 232.359 232.917 233.068 232.697C233.778 232.477 234.559 232.419 235.312 232.531C236.065 232.643 236.757 232.92 237.299 233.327C237.842 233.733 238.212 234.251 238.362 234.815C238.512 235.379 238.435 235.963 238.141 236.494C237.847 237.025 237.35 237.479 236.711 237.798C236.073 238.118 235.322 238.288 234.554 238.288C234.04 238.301 233.527 238.235 233.048 238.094C232.569 237.952 232.134 237.739 231.77 237.466C231.406 237.194 231.12 236.868 230.931 236.509C230.743 236.151 230.654 235.767 230.672 235.382ZM237.379 235.382C237.354 234.965 237.167 234.563 236.839 234.226C236.512 233.889 236.059 233.631 235.537 233.485C235.016 233.339 234.448 233.31 233.905 233.404C233.362 233.497 232.868 233.708 232.484 234.01C232.1 234.312 231.843 234.692 231.745 235.102C231.647 235.513 231.712 235.936 231.933 236.319C232.153 236.701 232.52 237.027 232.986 237.256C233.452 237.484 233.997 237.605 234.554 237.603C234.939 237.608 235.322 237.554 235.678 237.443C236.033 237.332 236.354 237.167 236.62 236.958C236.885 236.749 237.09 236.501 237.221 236.23C237.352 235.958 237.406 235.67 237.379 235.382Z" fill="#263238"/>
<path d="M244.355 232.487V233.231H244.102C243.741 233.218 243.381 233.265 243.047 233.368C242.713 233.471 242.413 233.628 242.169 233.828C241.925 234.028 241.742 234.265 241.635 234.523C241.527 234.782 241.497 235.054 241.546 235.322V238.229H240.52V232.534H241.498V233.645C241.765 233.26 242.179 232.943 242.689 232.737C243.198 232.53 243.779 232.443 244.355 232.487Z" fill="#263238"/>
<path d="M253.082 230.254V238.288H252.104V237.166C251.798 237.539 251.365 237.845 250.849 238.053C250.333 238.26 249.754 238.362 249.169 238.347C248.184 238.3 247.26 237.974 246.585 237.435C245.909 236.897 245.534 236.185 245.534 235.447C245.534 234.708 245.909 233.997 246.585 233.458C247.26 232.919 248.184 232.593 249.169 232.546C249.746 232.537 250.317 232.641 250.823 232.848C251.33 233.055 251.756 233.359 252.057 233.728V230.254H253.082ZM252.072 235.441C252.048 235.024 251.86 234.622 251.532 234.285C251.205 233.948 250.752 233.69 250.23 233.544C249.709 233.398 249.141 233.369 248.598 233.463C248.055 233.556 247.561 233.767 247.177 234.069C246.793 234.371 246.536 234.751 246.438 235.161C246.34 235.572 246.405 235.995 246.626 236.378C246.847 236.761 247.213 237.086 247.679 237.315C248.145 237.543 248.69 237.664 249.247 237.662C249.64 237.668 250.03 237.612 250.391 237.498C250.753 237.383 251.077 237.212 251.344 236.997C251.611 236.782 251.814 236.526 251.94 236.248C252.065 235.969 252.11 235.674 252.072 235.382V235.441Z" fill="#263238"/>
</g>
<path opacity="0.2" d="M381.628 275.148H175.134V301.612H381.628V275.148Z" fill="black"/>
<g opacity="0.5">
<path d="M225.353 262.992H221.976L221.25 264.173H220.587L223.349 259.648H223.98L226.742 264.173H226.079L225.353 262.992ZM225.117 262.602L223.665 260.168L222.213 262.602H225.117Z" fill="black"/>
<path d="M227.626 259.4H228.241V264.197H227.626V259.4Z" fill="black"/>
<path d="M232.25 260.77V261.219H232.092C231.872 261.205 231.65 261.229 231.444 261.288C231.237 261.347 231.051 261.44 230.899 261.56C230.747 261.681 230.634 261.825 230.567 261.983C230.5 262.141 230.482 262.308 230.514 262.472V264.208H229.899V260.806H230.498V261.468C230.657 261.229 230.911 261.034 231.225 260.909C231.539 260.784 231.897 260.735 232.25 260.77Z" fill="black"/>
<path d="M237.269 262.637H233.402C233.414 262.803 233.47 262.965 233.566 263.114C233.663 263.264 233.798 263.397 233.964 263.507C234.13 263.617 234.323 263.701 234.533 263.755C234.743 263.808 234.964 263.83 235.186 263.819C235.448 263.825 235.709 263.79 235.951 263.715C236.194 263.639 236.412 263.526 236.59 263.382L236.922 263.677C236.595 263.933 236.175 264.112 235.714 264.19C235.253 264.268 234.771 264.243 234.329 264.116C233.887 263.99 233.505 263.769 233.23 263.48C232.956 263.192 232.802 262.849 232.787 262.496C232.771 262.271 232.818 262.047 232.923 261.836C233.029 261.626 233.191 261.434 233.4 261.272C233.608 261.11 233.859 260.982 234.136 260.896C234.414 260.81 234.712 260.767 235.012 260.771C235.312 260.765 235.611 260.807 235.888 260.892C236.166 260.978 236.417 261.106 236.625 261.268C236.832 261.431 236.993 261.624 237.096 261.835C237.198 262.046 237.241 262.271 237.221 262.496C237.221 262.496 237.269 262.59 237.269 262.637ZM233.465 262.295H236.622C236.622 261.981 236.455 261.681 236.159 261.459C235.863 261.238 235.462 261.113 235.043 261.113C234.625 261.113 234.223 261.238 233.927 261.459C233.632 261.681 233.465 261.981 233.465 262.295Z" fill="black"/>
<path d="M241.83 262.153V264.256H241.293V263.724C241.126 263.919 240.89 264.074 240.611 264.175C240.333 264.275 240.022 264.315 239.715 264.291C238.689 264.291 238.137 263.89 238.137 263.299C238.137 262.708 238.579 262.33 239.889 262.33H241.293V262.129C241.293 261.55 240.851 261.231 239.999 261.231C239.425 261.215 238.863 261.358 238.421 261.633L238.153 261.29C238.676 260.978 239.33 260.815 239.999 260.83C240.243 260.798 240.494 260.81 240.731 260.865C240.968 260.92 241.184 261.015 241.362 261.144C241.54 261.273 241.676 261.431 241.757 261.607C241.838 261.782 241.863 261.969 241.83 262.153ZM241.23 263.24V262.673H239.794C238.91 262.673 238.626 262.933 238.626 263.287C238.626 263.641 239.052 263.925 239.778 263.925C240.105 263.944 240.431 263.881 240.705 263.746C240.979 263.611 241.186 263.413 241.293 263.181L241.23 263.24Z" fill="black"/>
<path d="M247.606 259.4V264.197H247.022V263.523C246.843 263.749 246.585 263.934 246.277 264.059C245.968 264.184 245.621 264.244 245.27 264.232C244.69 264.196 244.149 263.998 243.755 263.678C243.36 263.357 243.142 262.937 243.142 262.501C243.142 262.066 243.36 261.646 243.755 261.325C244.149 261.005 244.69 260.807 245.27 260.771C245.612 260.764 245.951 260.822 246.254 260.94C246.558 261.057 246.817 261.231 247.006 261.444V259.4H247.606ZM247.006 262.496C246.991 262.248 246.879 262.01 246.684 261.81C246.49 261.61 246.221 261.457 245.911 261.371C245.601 261.284 245.265 261.267 244.943 261.322C244.62 261.378 244.327 261.502 244.098 261.681C243.87 261.86 243.717 262.085 243.658 262.329C243.599 262.572 243.637 262.824 243.766 263.051C243.896 263.279 244.112 263.473 244.388 263.609C244.664 263.746 244.987 263.819 245.318 263.819C245.553 263.829 245.788 263.802 246.008 263.739C246.228 263.676 246.427 263.579 246.593 263.454C246.759 263.328 246.887 263.178 246.969 263.013C247.051 262.848 247.086 262.671 247.069 262.496H247.006Z" fill="black"/>
<path d="M253.209 260.794L250.936 264.61C250.557 265.272 250.068 265.484 249.358 265.484C248.95 265.493 248.555 265.382 248.253 265.177L248.537 264.835C248.759 265.001 249.06 265.094 249.374 265.094C249.784 265.094 250.052 264.953 250.321 264.516L250.51 264.197L248.474 260.794H249.184L250.905 263.689L252.609 260.794H253.209Z" fill="black"/>
<path d="M259.774 262.153V264.256H259.19V263.724C259.023 263.919 258.787 264.074 258.508 264.175C258.229 264.275 257.919 264.315 257.612 264.291C256.586 264.291 256.034 263.89 256.034 263.299C256.034 262.708 256.476 262.33 257.786 262.33H259.222V262.129C259.222 261.55 258.796 261.231 257.943 261.231C257.369 261.215 256.807 261.358 256.365 261.633L256.081 261.29C256.61 260.978 257.27 260.815 257.943 260.83C258.188 260.798 258.438 260.81 258.675 260.865C258.912 260.92 259.128 261.015 259.306 261.144C259.485 261.273 259.62 261.431 259.701 261.607C259.782 261.782 259.807 261.969 259.774 262.153ZM259.159 263.24V262.673H257.738C256.854 262.673 256.57 262.933 256.57 263.287C256.57 263.641 256.996 263.925 257.722 263.925C258.037 263.934 258.348 263.867 258.607 263.733C258.866 263.598 259.059 263.405 259.159 263.181V263.24Z" fill="black"/>
<path d="M271.279 262.224V264.197H270.68V262.271C270.68 261.55 270.19 261.184 269.37 261.184C269.158 261.172 268.946 261.194 268.747 261.249C268.548 261.304 268.367 261.39 268.217 261.502C268.067 261.615 267.951 261.75 267.878 261.899C267.804 262.048 267.775 262.207 267.791 262.365V264.149H267.192V262.271C267.192 261.55 266.702 261.184 265.866 261.184C265.654 261.172 265.442 261.194 265.243 261.249C265.044 261.304 264.863 261.39 264.713 261.502C264.563 261.615 264.447 261.75 264.374 261.899C264.301 262.048 264.271 262.207 264.288 262.365V264.149H263.672V260.747H264.256V261.373C264.43 261.161 264.678 260.989 264.972 260.875C265.267 260.76 265.598 260.708 265.929 260.723C266.26 260.704 266.591 260.763 266.874 260.893C267.157 261.022 267.379 261.215 267.507 261.444C267.691 261.212 267.956 261.023 268.273 260.896C268.59 260.769 268.947 260.709 269.306 260.723C269.579 260.687 269.86 260.701 270.123 260.764C270.387 260.826 270.627 260.937 270.821 261.084C271.015 261.232 271.159 261.413 271.238 261.612C271.318 261.81 271.332 262.02 271.279 262.224Z" fill="black"/>
<path d="M276.866 262.637H273.063C273.095 262.972 273.302 263.283 273.639 263.504C273.975 263.725 274.415 263.838 274.862 263.819C275.122 263.826 275.381 263.791 275.621 263.715C275.861 263.64 276.076 263.526 276.251 263.382L276.598 263.677C276.376 263.858 276.105 264.002 275.803 264.097C275.5 264.193 275.174 264.239 274.846 264.232C274.533 264.247 274.22 264.213 273.926 264.132C273.632 264.05 273.364 263.924 273.139 263.76C272.915 263.596 272.738 263.399 272.622 263.181C272.505 262.964 272.451 262.73 272.463 262.496C272.463 262.057 272.696 261.636 273.11 261.326C273.524 261.016 274.086 260.842 274.672 260.842C275.258 260.842 275.82 261.016 276.235 261.326C276.649 261.636 276.882 262.057 276.882 262.496C276.882 262.496 276.866 262.59 276.866 262.637ZM273.063 262.295H276.298C276.298 261.974 276.128 261.665 275.824 261.438C275.521 261.211 275.109 261.084 274.68 261.084C274.251 261.084 273.84 261.211 273.537 261.438C273.233 261.665 273.063 261.974 273.063 262.295Z" fill="black"/>
<path d="M285.641 262.224V264.197H285.026V262.271C285.026 261.55 284.552 261.184 283.731 261.184C283.519 261.169 283.306 261.19 283.105 261.244C282.905 261.299 282.723 261.385 282.572 261.498C282.422 261.611 282.306 261.747 282.234 261.897C282.161 262.047 282.134 262.207 282.153 262.365V264.149H281.538V262.271C281.538 261.55 281.064 261.184 280.228 261.184C280.016 261.169 279.802 261.19 279.602 261.244C279.401 261.299 279.219 261.385 279.069 261.498C278.918 261.611 278.803 261.747 278.73 261.897C278.658 262.047 278.63 262.207 278.65 262.365V264.149H278.034V260.747H278.618V261.373C278.791 261.16 279.038 260.987 279.333 260.873C279.628 260.758 279.959 260.707 280.291 260.723C280.622 260.704 280.952 260.763 281.236 260.893C281.519 261.022 281.741 261.215 281.869 261.444C282.053 261.212 282.317 261.023 282.635 260.896C282.952 260.769 283.309 260.709 283.668 260.723C283.941 260.687 284.221 260.701 284.485 260.764C284.749 260.826 284.989 260.937 285.183 261.084C285.377 261.232 285.52 261.413 285.6 261.612C285.68 261.81 285.694 262.02 285.641 262.224Z" fill="black"/>
<path d="M291.922 262.496C291.938 262.723 291.89 262.95 291.783 263.162C291.676 263.375 291.511 263.569 291.299 263.732C291.088 263.895 290.833 264.024 290.552 264.11C290.271 264.196 289.969 264.237 289.665 264.232C289.315 264.244 288.967 264.184 288.659 264.059C288.35 263.934 288.093 263.749 287.914 263.523V264.197H287.314V259.4H287.929V261.444C288.118 261.23 288.376 261.056 288.68 260.938C288.984 260.82 289.323 260.763 289.665 260.771C289.968 260.764 290.27 260.804 290.551 260.889C290.832 260.974 291.087 261.101 291.299 261.263C291.511 261.425 291.676 261.618 291.783 261.83C291.89 262.043 291.938 262.269 291.922 262.496ZM291.307 262.496C291.291 262.248 291.179 262.01 290.985 261.81C290.79 261.61 290.521 261.457 290.212 261.371C289.902 261.284 289.565 261.267 289.243 261.322C288.921 261.378 288.627 261.502 288.399 261.681C288.171 261.86 288.017 262.085 287.958 262.329C287.899 262.572 287.937 262.824 288.067 263.051C288.197 263.279 288.413 263.473 288.689 263.609C288.964 263.746 289.288 263.819 289.618 263.819C289.848 263.822 290.076 263.79 290.289 263.724C290.501 263.658 290.693 263.56 290.852 263.435C291.01 263.311 291.133 263.163 291.211 263.001C291.29 262.84 291.322 262.667 291.307 262.496Z" fill="black"/>
<path d="M297.146 262.637H293.374C293.386 262.803 293.442 262.965 293.539 263.114C293.635 263.264 293.77 263.397 293.936 263.507C294.102 263.617 294.295 263.701 294.505 263.755C294.715 263.808 294.937 263.83 295.158 263.819C295.42 263.818 295.679 263.775 295.916 263.691C296.154 263.607 296.364 263.486 296.531 263.334L296.878 263.63C296.552 263.886 296.132 264.064 295.67 264.143C295.209 264.221 294.727 264.195 294.285 264.069C293.843 263.943 293.461 263.721 293.187 263.433C292.912 263.145 292.758 262.802 292.743 262.448C292.728 262.224 292.774 261.999 292.88 261.789C292.985 261.578 293.147 261.386 293.356 261.224C293.565 261.063 293.815 260.935 294.093 260.849C294.37 260.762 294.668 260.72 294.968 260.723C295.268 260.718 295.566 260.759 295.843 260.845C296.12 260.931 296.369 261.059 296.576 261.222C296.783 261.384 296.942 261.577 297.043 261.788C297.143 262 297.184 262.224 297.162 262.448L297.146 262.637ZM293.343 262.295H296.499C296.499 261.981 296.333 261.681 296.037 261.459C295.741 261.238 295.34 261.113 294.921 261.113C294.502 261.113 294.101 261.238 293.805 261.459C293.509 261.681 293.343 261.981 293.343 262.295Z" fill="black"/>
<path d="M300.697 260.771V261.22H300.555C300.335 261.205 300.113 261.229 299.906 261.288C299.7 261.347 299.514 261.44 299.362 261.56C299.21 261.681 299.097 261.825 299.03 261.983C298.963 262.141 298.945 262.308 298.977 262.472V264.209H298.361V260.806H298.945V261.468C299.106 261.23 299.36 261.036 299.674 260.911C299.987 260.786 300.345 260.737 300.697 260.771Z" fill="black"/>
<path d="M304.674 260.83C304.674 260.357 304.169 260.038 303.285 260.038C302.975 260.025 302.664 260.065 302.377 260.155C302.09 260.245 301.834 260.383 301.628 260.558L301.171 260.298C301.439 260.071 301.774 259.892 302.148 259.775C302.523 259.659 302.928 259.607 303.333 259.625C304.548 259.625 305.321 260.062 305.321 260.806C305.321 261.905 303.743 261.987 303.743 262.885H303.096C303.096 261.775 304.674 261.669 304.674 260.83ZM302.97 263.89C302.989 263.811 303.045 263.74 303.127 263.689C303.209 263.638 303.313 263.61 303.419 263.61C303.526 263.61 303.63 263.638 303.712 263.689C303.794 263.74 303.85 263.811 303.869 263.89C303.882 263.939 303.879 263.99 303.863 264.039C303.846 264.088 303.815 264.133 303.772 264.172C303.729 264.21 303.675 264.242 303.614 264.263C303.553 264.284 303.487 264.296 303.419 264.296C303.352 264.296 303.286 264.284 303.225 264.263C303.164 264.242 303.11 264.21 303.067 264.172C303.024 264.133 302.993 264.088 302.976 264.039C302.96 263.99 302.957 263.939 302.97 263.89Z" fill="black"/>
<path d="M308.951 259.672H310.356V263.334H313.386V264.185H308.951V259.672Z" fill="black"/>
<path d="M313.702 262.46C313.67 262.077 313.793 261.696 314.054 261.366C314.315 261.037 314.702 260.773 315.166 260.61C315.629 260.447 316.148 260.392 316.653 260.452C317.159 260.511 317.629 260.684 318.003 260.946C318.377 261.209 318.636 261.549 318.748 261.923C318.86 262.297 318.82 262.688 318.632 263.044C318.444 263.401 318.117 263.707 317.694 263.923C317.271 264.139 316.771 264.255 316.258 264.256C315.93 264.272 315.601 264.238 315.292 264.155C314.982 264.072 314.699 263.942 314.459 263.773C314.219 263.605 314.029 263.402 313.898 263.176C313.768 262.95 313.701 262.706 313.702 262.46ZM317.442 262.46C317.424 262.288 317.339 262.125 317.198 261.989C317.058 261.852 316.867 261.75 316.65 261.694C316.432 261.637 316.198 261.63 315.975 261.671C315.752 261.713 315.55 261.803 315.394 261.929C315.238 262.055 315.134 262.213 315.095 262.382C315.057 262.552 315.085 262.727 315.177 262.884C315.269 263.042 315.42 263.177 315.612 263.271C315.804 263.366 316.029 263.416 316.258 263.417C316.423 263.419 316.586 263.395 316.737 263.347C316.889 263.299 317.025 263.227 317.136 263.137C317.248 263.046 317.333 262.94 317.386 262.823C317.439 262.706 317.458 262.583 317.442 262.46Z" fill="black"/>
<path d="M324.513 260.711V263.618C324.556 263.879 324.517 264.144 324.401 264.392C324.284 264.641 324.092 264.865 323.839 265.048C323.587 265.232 323.281 265.368 322.946 265.448C322.611 265.528 322.256 265.548 321.908 265.508C321.097 265.531 320.296 265.362 319.62 265.024L320.157 264.303C320.618 264.55 321.168 264.686 321.735 264.693C322.682 264.693 323.108 264.374 323.108 263.748V263.594C322.919 263.741 322.69 263.856 322.437 263.932C322.184 264.007 321.912 264.041 321.64 264.031C321.329 264.051 321.016 264.022 320.72 263.946C320.425 263.87 320.154 263.75 319.924 263.591C319.694 263.433 319.511 263.241 319.385 263.027C319.26 262.813 319.195 262.582 319.195 262.348C319.195 262.114 319.26 261.883 319.385 261.669C319.511 261.455 319.694 261.263 319.924 261.104C320.154 260.946 320.425 260.825 320.72 260.749C321.016 260.674 321.329 260.645 321.64 260.664C321.937 260.646 322.235 260.682 322.51 260.769C322.785 260.855 323.028 260.989 323.218 261.16V260.711H324.513ZM323.187 262.354C323.192 262.235 323.163 262.118 323.103 262.008C323.043 261.898 322.953 261.8 322.838 261.718C322.723 261.637 322.587 261.574 322.437 261.535C322.288 261.496 322.129 261.481 321.972 261.491C321.81 261.477 321.646 261.489 321.491 261.525C321.336 261.562 321.193 261.622 321.071 261.703C320.95 261.784 320.853 261.883 320.786 261.995C320.719 262.106 320.685 262.226 320.685 262.348C320.685 262.47 320.719 262.59 320.786 262.701C320.853 262.812 320.95 262.911 321.071 262.992C321.193 263.073 321.336 263.134 321.491 263.17C321.646 263.207 321.81 263.219 321.972 263.204C322.128 263.214 322.285 263.2 322.433 263.161C322.582 263.123 322.717 263.061 322.832 262.981C322.946 262.901 323.037 262.804 323.098 262.696C323.159 262.588 323.19 262.471 323.187 262.354Z" fill="black"/>
<path d="M328.095 259.672C328.097 259.593 328.12 259.515 328.164 259.443C328.208 259.37 328.271 259.306 328.349 259.253C328.427 259.2 328.52 259.159 328.62 259.134C328.72 259.108 328.826 259.098 328.931 259.105C329.035 259.097 329.139 259.104 329.238 259.128C329.337 259.151 329.429 259.19 329.507 259.24C329.586 259.291 329.649 259.354 329.694 259.424C329.739 259.494 329.764 259.571 329.768 259.648C329.768 259.814 329.68 259.974 329.523 260.091C329.366 260.208 329.153 260.274 328.931 260.274C328.71 260.274 328.497 260.208 328.34 260.091C328.183 259.974 328.095 259.814 328.095 259.648V259.672ZM328.253 260.712H329.594V264.256H328.253V260.712Z" fill="black"/>
<path d="M335.576 262.153V264.149H334.234V262.318C334.234 261.751 333.887 261.491 333.287 261.491C332.688 261.491 332.167 261.786 332.167 262.424V264.149H330.825V260.605H332.119V261.019C332.323 260.861 332.569 260.739 332.841 260.659C333.114 260.58 333.406 260.545 333.698 260.558C333.97 260.548 334.242 260.583 334.494 260.663C334.745 260.742 334.97 260.863 335.15 261.016C335.331 261.17 335.463 261.351 335.536 261.548C335.61 261.745 335.624 261.952 335.576 262.153Z" fill="black"/>
</g>
<path d="M381.628 273.53H175.134V299.994H381.628V273.53Z" fill="#B20937"/>
<path d="M251.709 290.873L249.184 288.144H248.427H245.428V290.897H243.692V281.835H248.427C251.583 281.835 253.461 283.017 253.461 285.001C253.501 285.63 253.263 286.251 252.784 286.768C252.304 287.285 251.61 287.669 250.81 287.86L253.682 290.897L251.709 290.873ZM251.709 284.966C251.709 283.666 250.557 282.934 248.332 282.934H245.396V287.01H248.332C250.51 287.022 251.662 286.266 251.662 284.978L251.709 284.966Z" fill="white"/>
<path d="M264.209 287.861H256.775C256.892 288.445 257.298 288.975 257.911 289.347C258.525 289.719 259.302 289.905 260.09 289.869C260.585 289.882 261.079 289.815 261.536 289.673C261.994 289.53 262.405 289.315 262.741 289.042L263.656 289.845C262.981 290.359 262.122 290.715 261.183 290.872C260.244 291.029 259.264 290.98 258.361 290.73C257.458 290.481 256.67 290.042 256.092 289.466C255.515 288.89 255.171 288.201 255.103 287.483C255.07 287.019 255.165 286.555 255.384 286.12C255.602 285.685 255.938 285.289 256.371 284.956C256.804 284.623 257.324 284.361 257.899 284.185C258.474 284.01 259.091 283.926 259.711 283.938C260.328 283.926 260.942 284.01 261.513 284.185C262.084 284.361 262.599 284.624 263.026 284.958C263.453 285.292 263.781 285.689 263.99 286.124C264.2 286.559 264.285 287.022 264.24 287.483C264.24 287.589 264.225 287.742 264.209 287.861ZM256.775 286.963H262.646C262.571 286.419 262.229 285.916 261.687 285.55C261.145 285.184 260.441 284.982 259.711 284.982C258.981 284.982 258.277 285.184 257.735 285.55C257.193 285.916 256.851 286.419 256.775 286.963Z" fill="white"/>
<path d="M275.319 284.021V289.928C275.319 292.35 273.662 293.472 270.585 293.472C269.014 293.523 267.469 293.164 266.213 292.456L267.002 291.499C268.012 292.086 269.259 292.399 270.538 292.385C272.7 292.385 273.694 291.641 273.694 290.082V289.538C273.286 289.889 272.777 290.167 272.206 290.351C271.635 290.535 271.017 290.62 270.395 290.601C269.219 290.601 268.091 290.252 267.26 289.629C266.428 289.007 265.961 288.162 265.961 287.282C265.961 286.401 266.428 285.557 267.26 284.934C268.091 284.312 269.219 283.962 270.395 283.962C271.045 283.947 271.69 284.046 272.279 284.251C272.868 284.457 273.385 284.762 273.789 285.143V284.08L275.319 284.021ZM273.741 287.27C273.776 286.798 273.621 286.329 273.296 285.924C272.971 285.518 272.491 285.195 271.918 284.996C271.345 284.798 270.706 284.732 270.082 284.808C269.459 284.884 268.881 285.098 268.422 285.423C267.963 285.747 267.644 286.168 267.508 286.629C267.371 287.091 267.423 287.572 267.656 288.012C267.889 288.451 268.292 288.828 268.815 289.094C269.337 289.36 269.953 289.502 270.585 289.503C270.989 289.521 271.393 289.476 271.773 289.371C272.153 289.267 272.499 289.105 272.791 288.895C273.083 288.685 273.314 288.433 273.469 288.153C273.625 287.873 273.701 287.573 273.694 287.27H273.741Z" fill="white"/>
<path d="M278.192 281.894C278.194 281.786 278.225 281.678 278.282 281.579C278.339 281.479 278.423 281.389 278.527 281.313C278.631 281.237 278.754 281.178 278.888 281.138C279.023 281.097 279.167 281.078 279.312 281.079C279.465 281.065 279.62 281.076 279.768 281.11C279.915 281.145 280.05 281.202 280.166 281.278C280.281 281.355 280.373 281.449 280.436 281.554C280.5 281.659 280.532 281.773 280.532 281.888C280.532 282.004 280.5 282.118 280.436 282.223C280.373 282.328 280.281 282.422 280.166 282.498C280.05 282.575 279.915 282.632 279.768 282.667C279.62 282.701 279.465 282.712 279.312 282.698C279.168 282.701 279.024 282.682 278.89 282.644C278.755 282.605 278.632 282.546 278.528 282.472C278.423 282.397 278.34 282.307 278.282 282.208C278.225 282.109 278.194 282.002 278.192 281.894ZM278.492 284.021H280.149V290.873H278.492V284.021Z" fill="white"/>
<path d="M282.153 290.153L282.848 289.172C283.788 289.629 284.883 289.875 286.004 289.881C287.582 289.881 288.182 289.526 288.182 288.947C288.182 287.412 282.39 288.747 282.39 286.006C282.39 284.824 283.858 283.95 286.209 283.95C287.373 283.936 288.522 284.152 289.539 284.576L288.829 285.557C288.041 285.186 287.124 284.997 286.193 285.013C284.741 285.013 284.031 285.415 284.031 285.958C284.031 287.577 289.839 286.254 289.839 288.924C289.839 290.105 288.261 290.956 285.878 290.956C284.557 290.97 283.261 290.691 282.153 290.153Z" fill="white"/>
<path d="M297.131 290.507C296.556 290.835 295.849 291.006 295.126 290.991C294.737 291.025 294.342 290.992 293.972 290.896C293.601 290.8 293.265 290.643 292.986 290.437C292.707 290.231 292.494 289.98 292.362 289.704C292.23 289.428 292.182 289.133 292.222 288.841V285.072H290.644V284.056H292.222V282.556H293.8V284.056H296.531V285.072H293.895V288.794C293.858 288.946 293.868 289.102 293.925 289.251C293.982 289.4 294.084 289.536 294.223 289.651C294.361 289.765 294.534 289.854 294.726 289.91C294.919 289.966 295.126 289.989 295.331 289.975C295.798 289.979 296.253 289.867 296.625 289.656L297.131 290.507Z" fill="white"/>
<path d="M307.073 287.86H299.687C299.804 288.447 300.212 288.979 300.828 289.351C301.445 289.723 302.227 289.908 303.017 289.869C303.51 289.883 304.002 289.816 304.457 289.673C304.912 289.53 305.32 289.315 305.653 289.042L306.568 289.845C305.895 290.36 305.037 290.717 304.098 290.875C303.159 291.033 302.179 290.984 301.277 290.734C300.374 290.484 299.587 290.044 299.011 289.467C298.435 288.891 298.094 288.201 298.03 287.482C297.997 287.019 298.093 286.555 298.311 286.12C298.529 285.685 298.865 285.288 299.298 284.956C299.731 284.623 300.251 284.36 300.826 284.185C301.401 284.01 302.018 283.926 302.638 283.938C303.255 283.927 303.867 284.013 304.437 284.189C305.007 284.365 305.521 284.629 305.948 284.962C306.374 285.296 306.703 285.692 306.913 286.126C307.123 286.56 307.21 287.022 307.168 287.482C307.151 287.61 307.12 287.737 307.073 287.86ZM299.687 286.963H305.574C305.483 286.426 305.134 285.933 304.592 285.576C304.05 285.219 303.353 285.022 302.63 285.022C301.908 285.022 301.211 285.219 300.669 285.576C300.127 285.933 299.778 286.426 299.687 286.963Z" fill="white"/>
<path d="M314.349 283.95V285.131H313.97C313.559 285.11 313.148 285.158 312.766 285.272C312.384 285.386 312.041 285.563 311.763 285.79C311.485 286.018 311.28 286.289 311.162 286.584C311.044 286.879 311.016 287.19 311.082 287.494V290.909H309.425V284.056H311.003V285.238C311.336 284.805 311.829 284.454 312.423 284.225C313.016 283.997 313.685 283.901 314.349 283.95Z" fill="white"/>
<g opacity="0.6">
<path d="M242.224 92.7489L242.935 91.6383C244.159 92.4069 245.708 92.8255 247.306 92.8198C249.595 92.8198 250.573 92.1582 250.573 91.2957C250.573 88.9329 242.556 90.3979 242.556 86.7236C242.556 85.1878 244.134 83.8882 247.622 83.8882C249.124 83.87 250.603 84.1733 251.883 84.7625L251.252 85.9439C250.168 85.4244 248.909 85.1458 247.622 85.1405C245.365 85.1405 244.465 85.8494 244.465 86.7118C244.465 89.0747 252.499 87.6097 252.499 91.2603C252.499 92.7725 250.92 94.0721 247.369 94.0721C245.499 94.1015 243.676 93.6325 242.224 92.7489Z" fill="#263238"/>
<path d="M254.613 84.0418C254.615 83.9229 254.649 83.8054 254.712 83.6963C254.775 83.5872 254.867 83.4885 254.981 83.4061C255.096 83.3237 255.231 83.2591 255.379 83.2161C255.527 83.1731 255.685 83.1526 255.844 83.1558C256.001 83.151 256.157 83.1696 256.305 83.2106C256.452 83.2515 256.586 83.3139 256.701 83.3942C256.815 83.4744 256.907 83.5709 256.972 83.678C257.036 83.7852 257.071 83.9008 257.075 84.0182C257.075 84.2626 256.946 84.497 256.715 84.6698C256.484 84.8426 256.171 84.9397 255.844 84.9397C255.518 84.9397 255.205 84.8426 254.974 84.6698C254.743 84.497 254.613 84.2626 254.613 84.0182V84.0418ZM254.929 86.4047H256.76V93.9185H254.929V86.4047Z" fill="#263238"/>
<path d="M269.812 86.3692V92.8552C269.812 95.5134 268.012 96.7185 264.619 96.7185C262.916 96.7589 261.246 96.3629 259.885 95.5961L260.753 94.5446C261.852 95.1955 263.218 95.542 264.619 95.5252C266.987 95.5252 268.06 94.6982 268.06 92.997V92.4063C267.613 92.7924 267.057 93.0989 266.431 93.3033C265.806 93.5077 265.128 93.6049 264.446 93.5877C263.785 93.6159 263.124 93.5428 262.502 93.373C261.881 93.2032 261.312 92.9402 260.831 92.6001C260.35 92.26 259.967 91.8499 259.705 91.3951C259.443 90.9402 259.308 90.4501 259.308 89.9548C259.308 89.4595 259.443 88.9694 259.705 88.5146C259.967 88.0597 260.35 87.6497 260.831 87.3096C261.312 86.9694 261.881 86.7064 262.502 86.5366C263.124 86.3668 263.785 86.2937 264.446 86.3219C265.143 86.2948 265.84 86.3871 266.482 86.5918C267.125 86.7965 267.697 87.1083 268.154 87.5034V86.3219L269.812 86.3692ZM268.044 89.9135C268.079 89.397 267.906 88.8846 267.548 88.4424C267.19 88.0002 266.663 87.6484 266.035 87.4325C265.407 87.2166 264.708 87.1465 264.026 87.2311C263.345 87.3158 262.713 87.5514 262.212 87.9075C261.711 88.2636 261.364 88.7239 261.216 89.229C261.068 89.7341 261.126 90.2609 261.381 90.7413C261.637 91.2216 262.079 91.6336 262.651 91.9241C263.222 92.2146 263.897 92.3702 264.588 92.3708C265.039 92.4005 265.494 92.3591 265.923 92.2494C266.352 92.1397 266.745 91.9641 267.078 91.7338C267.411 91.5035 267.676 91.2237 267.856 90.9122C268.036 90.6008 268.127 90.2646 268.123 89.9253L268.044 89.9135Z" fill="#263238"/>
<path d="M282.816 89.5591V93.8831H280.985V89.6654C280.985 88.1886 280.007 87.468 278.286 87.468C277.849 87.4466 277.411 87.4975 277.004 87.6171C276.596 87.7367 276.228 87.9221 275.927 88.16C275.626 88.398 275.398 88.6827 275.26 88.9939C275.123 89.3051 275.078 89.6352 275.13 89.9608V93.8358H273.315V86.322H275.067V87.5034C275.498 87.1031 276.051 86.7866 276.68 86.5809C277.31 86.3752 277.996 86.2864 278.681 86.322C279.25 86.2934 279.821 86.3587 280.353 86.5133C280.885 86.6679 281.365 86.9081 281.76 87.2168C282.154 87.5256 282.453 87.8954 282.635 88.3001C282.818 88.7048 282.88 89.1346 282.816 89.5591Z" fill="#263238"/>
<path d="M300.634 86.3693V93.8832H298.914V92.7017C298.513 93.0884 297.995 93.3974 297.401 93.603C296.808 93.8085 296.158 93.9046 295.505 93.8832C294.918 93.9284 294.325 93.8745 293.77 93.7255C293.214 93.5765 292.711 93.3362 292.296 93.0222C291.881 92.7082 291.565 92.3286 291.372 91.9112C291.179 91.4939 291.114 91.0494 291.181 90.6106V86.2866H292.995V90.457C292.995 91.922 293.99 92.6663 295.71 92.6663C296.148 92.6898 296.587 92.6404 296.996 92.5215C297.405 92.4027 297.774 92.2173 298.076 91.9789C298.378 91.7404 298.605 91.4548 298.742 91.1427C298.879 90.8305 298.921 90.4994 298.866 90.1735V86.2866L300.634 86.3693Z" fill="#263238"/>
<path d="M314.491 90.1262C314.526 90.6334 314.42 91.1407 314.179 91.6154C313.938 92.0902 313.567 92.5221 313.09 92.8835C312.614 93.2449 312.041 93.5278 311.41 93.7142C310.779 93.9005 310.103 93.9862 309.425 93.9658C308.758 93.9853 308.095 93.8887 307.487 93.6837C306.879 93.4787 306.343 93.1708 305.921 92.7844V96.6594H304.106V86.4047H305.842V87.5861C306.259 87.1748 306.802 86.8451 307.426 86.6249C308.05 86.4048 308.736 86.3009 309.425 86.322C310.099 86.3001 310.772 86.3837 311.401 86.5673C312.03 86.7509 312.601 87.0305 313.078 87.3884C313.554 87.7463 313.926 88.1745 314.169 88.6459C314.413 89.1173 314.522 89.6214 314.491 90.1262ZM312.66 90.1262C312.629 89.6323 312.406 89.1561 312.017 88.7564C311.628 88.3567 311.091 88.0511 310.473 87.8774C309.855 87.7036 309.182 87.6694 308.538 87.779C307.894 87.8885 307.307 88.137 306.85 88.4937C306.392 88.8503 306.085 89.2995 305.965 89.7857C305.845 90.2719 305.918 90.7737 306.176 91.2291C306.433 91.6844 306.863 92.0733 307.412 92.3476C307.962 92.622 308.606 92.7697 309.267 92.7726C309.727 92.7798 310.185 92.7154 310.61 92.5835C311.036 92.4517 311.42 92.2552 311.739 92.0065C312.058 91.7578 312.304 91.4623 312.463 91.1386C312.621 90.815 312.688 90.4703 312.66 90.1262Z" fill="#263238"/>
</g>
<path d="M381.628 149.374H175.134V175.838H381.628V149.374Z" fill="white"/>
<g opacity="0.4">
<path d="M186.434 158.294H187.508V165.182H193.173V165.879H186.434V158.294Z" fill="#263238"/>
<path d="M200.512 162.346V165.891H199.534V165.005C199.247 165.321 198.853 165.574 198.393 165.74C197.933 165.906 197.423 165.979 196.914 165.95C195.194 165.95 194.136 165.276 194.136 164.284C194.136 163.292 194.878 162.677 197.072 162.677H199.486V162.335C199.486 161.354 198.745 160.822 197.324 160.822C196.402 160.813 195.506 161.052 194.799 161.496L194.326 160.917C195.227 160.394 196.343 160.123 197.482 160.149C197.883 160.113 198.291 160.144 198.674 160.24C199.057 160.337 199.407 160.496 199.697 160.707C199.987 160.917 200.211 161.174 200.352 161.458C200.493 161.741 200.548 162.045 200.512 162.346ZM199.486 164.166V163.233H197.103C195.62 163.233 195.146 163.67 195.146 164.26C195.146 164.851 195.856 165.324 197.072 165.324C197.586 165.347 198.097 165.248 198.531 165.04C198.965 164.832 199.3 164.526 199.486 164.166Z" fill="#263238"/>
<path d="M202.248 165.276L202.706 164.674C203.502 165.09 204.45 165.312 205.42 165.312C206.872 165.312 207.456 164.946 207.456 164.378C207.456 162.89 202.532 164.059 202.532 161.815C202.532 160.881 203.59 160.184 205.531 160.184C206.478 160.175 207.411 160.359 208.23 160.716L207.772 161.33C207.108 161.002 206.326 160.833 205.531 160.846C204.158 160.846 203.558 161.248 203.558 161.791C203.558 163.327 208.482 162.169 208.482 164.355C208.482 165.347 207.33 165.985 205.326 165.985C204.225 166.003 203.145 165.755 202.248 165.276Z" fill="#263238"/>
<path d="M214.464 165.536C214.015 165.803 213.458 165.945 212.885 165.938C212.585 165.962 212.282 165.936 211.997 165.861C211.712 165.786 211.454 165.664 211.24 165.504C211.027 165.344 210.864 165.15 210.763 164.937C210.663 164.724 210.628 164.497 210.66 164.272V160.834H209.287V160.184H210.66V158.932H211.686V160.184H213.99V160.834H211.686V164.237C211.659 164.373 211.673 164.512 211.729 164.643C211.784 164.774 211.878 164.894 212.004 164.994C212.13 165.095 212.285 165.172 212.457 165.221C212.628 165.27 212.813 165.289 212.996 165.276C213.41 165.286 213.815 165.181 214.132 164.981L214.464 165.536Z" fill="#263238"/>
<path d="M228.668 158.294V165.879H227.784L221.282 159.724V165.879H220.208V158.294H221.092L227.61 164.449V158.294H228.668Z" fill="#263238"/>
<path d="M237.569 162.347V165.891H236.559V165.005C236.274 165.323 235.881 165.578 235.42 165.744C234.96 165.91 234.448 165.981 233.939 165.95C232.218 165.95 231.161 165.276 231.161 164.284C231.161 163.292 231.919 162.677 234.112 162.677H236.559V162.335C236.559 161.354 235.817 160.822 234.396 160.822C233.474 160.813 232.578 161.052 231.871 161.496L231.398 160.917C232.297 160.392 233.414 160.12 234.554 160.149C234.954 160.115 235.36 160.147 235.741 160.245C236.122 160.342 236.47 160.502 236.758 160.712C237.047 160.922 237.269 161.178 237.41 161.461C237.55 161.744 237.604 162.046 237.569 162.347ZM236.543 164.166V163.233H234.144C232.676 163.233 232.203 163.67 232.203 164.26C232.203 164.851 232.913 165.324 234.128 165.324C234.645 165.35 235.16 165.252 235.597 165.043C236.034 164.835 236.371 164.528 236.559 164.166H236.543Z" fill="#263238"/>
<path d="M252.925 162.571V165.879H251.899V162.654C251.899 161.472 251.078 160.834 249.705 160.834C249.349 160.822 248.994 160.868 248.664 160.969C248.334 161.07 248.038 161.224 247.796 161.42C247.554 161.616 247.372 161.849 247.263 162.102C247.154 162.356 247.12 162.625 247.164 162.89V165.879H246.138V162.654C246.138 161.472 245.318 160.834 243.929 160.834C243.573 160.822 243.218 160.868 242.888 160.969C242.558 161.07 242.262 161.224 242.02 161.42C241.778 161.616 241.596 161.849 241.487 162.102C241.377 162.356 241.344 162.625 241.388 162.89V165.879H240.362V160.184H241.293V161.224C241.591 160.876 242.006 160.592 242.496 160.401C242.986 160.211 243.535 160.119 244.087 160.137C244.646 160.103 245.206 160.198 245.692 160.409C246.177 160.62 246.564 160.938 246.801 161.319C247.113 160.938 247.556 160.627 248.083 160.419C248.611 160.211 249.204 160.114 249.8 160.137C250.232 160.106 250.667 160.148 251.075 160.26C251.482 160.373 251.849 160.553 252.15 160.787C252.451 161.021 252.677 161.304 252.811 161.612C252.945 161.921 252.984 162.249 252.925 162.571Z" fill="#263238"/>
<path d="M262.378 163.268H256.065C256.087 163.546 256.183 163.818 256.345 164.068C256.508 164.318 256.735 164.542 257.014 164.726C257.293 164.911 257.617 165.052 257.969 165.143C258.321 165.233 258.693 165.27 259.064 165.253C259.502 165.263 259.938 165.202 260.342 165.074C260.745 164.945 261.106 164.752 261.4 164.508L261.968 165.005C261.421 165.432 260.718 165.73 259.946 165.86C259.175 165.99 258.369 165.947 257.63 165.737C256.891 165.526 256.251 165.157 255.79 164.676C255.33 164.195 255.068 163.623 255.039 163.032C255.013 162.655 255.091 162.279 255.267 161.926C255.443 161.573 255.714 161.251 256.063 160.98C256.413 160.709 256.832 160.494 257.297 160.349C257.761 160.204 258.261 160.132 258.764 160.137C259.267 160.13 259.766 160.201 260.23 160.345C260.694 160.49 261.113 160.705 261.46 160.977C261.807 161.249 262.075 161.572 262.247 161.926C262.418 162.28 262.49 162.656 262.457 163.032C262.394 163.102 262.378 163.185 262.378 163.268ZM256.065 162.701H261.463C261.463 162.165 261.178 161.651 260.672 161.272C260.166 160.893 259.48 160.681 258.764 160.681C258.048 160.681 257.362 160.893 256.856 161.272C256.35 161.651 256.065 162.165 256.065 162.701Z" fill="#263238"/>
</g>
<path d="M381.628 113.223H175.134V139.687H381.628V113.223Z" fill="white"/>
<g opacity="0.4">
<path d="M187.508 122.84V125.817H192.747V126.514H187.508V129.727H186.434V122.143H193.379V122.84H187.508Z" fill="#263238"/>
<path d="M195.004 122.225C195.001 122.112 195.043 122.001 195.125 121.906C195.207 121.811 195.325 121.736 195.464 121.692C195.603 121.648 195.757 121.635 195.905 121.657C196.054 121.678 196.19 121.733 196.297 121.813C196.404 121.893 196.477 121.995 196.505 122.106C196.534 122.217 196.518 122.332 196.458 122.436C196.399 122.54 196.3 122.628 196.173 122.69C196.046 122.751 195.897 122.783 195.746 122.781C195.549 122.781 195.361 122.722 195.221 122.618C195.082 122.514 195.004 122.373 195.004 122.225ZM195.225 124.033H196.251V129.727H195.225V124.033Z" fill="#263238"/>
<path d="M202.958 123.986V124.73H202.706C202.343 124.717 201.981 124.764 201.646 124.868C201.31 124.971 201.01 125.129 200.765 125.33C200.521 125.531 200.339 125.77 200.233 126.03C200.126 126.29 200.097 126.564 200.149 126.833V129.739H199.123V124.045H200.102V125.108C200.375 124.729 200.792 124.42 201.301 124.22C201.81 124.021 202.387 123.939 202.958 123.986Z" fill="#263238"/>
<path d="M203.811 129.078L204.268 128.463C205.057 128.891 206.008 129.119 206.983 129.113C208.435 129.113 209.019 128.735 209.019 128.18C209.019 126.691 204.095 127.861 204.095 125.604C204.095 124.683 205.152 123.986 207.093 123.986C208.042 123.97 208.977 124.154 209.792 124.517L209.334 125.132C208.67 124.803 207.889 124.634 207.093 124.647C205.72 124.647 205.121 125.049 205.121 125.592C205.121 127.128 210.045 125.97 210.045 128.156C210.045 129.137 208.892 129.775 206.888 129.775C205.789 129.796 204.71 129.552 203.811 129.078Z" fill="#263238"/>
<path d="M216.042 129.385C215.588 129.643 215.033 129.78 214.464 129.775C214.164 129.801 213.861 129.776 213.576 129.703C213.291 129.629 213.032 129.508 212.818 129.349C212.605 129.19 212.441 128.997 212.341 128.785C212.24 128.572 212.205 128.345 212.238 128.121V124.683H210.865V124.033H212.238V122.745H213.264V123.998H215.568V124.647H213.264V128.038C213.238 128.175 213.252 128.314 213.307 128.446C213.362 128.577 213.456 128.698 213.582 128.799C213.708 128.9 213.862 128.978 214.034 129.029C214.206 129.079 214.39 129.1 214.574 129.089C214.987 129.093 215.389 128.989 215.71 128.794L216.042 129.385Z" fill="#263238"/>
<path d="M230.246 122.143V129.727H229.362L222.86 123.572V129.727H221.786V122.143H222.67L229.188 128.298V122.143H230.246Z" fill="#263238"/>
<path d="M239.131 126.195V129.739H238.137V128.853C237.854 129.169 237.463 129.422 237.005 129.586C236.547 129.75 236.039 129.819 235.533 129.786C233.797 129.786 232.739 129.125 232.739 128.132C232.739 127.14 233.497 126.526 235.69 126.526H238.137V126.171C238.137 125.202 237.395 124.671 235.975 124.671C235.052 124.662 234.156 124.901 233.449 125.344L232.976 124.765C233.876 124.241 234.993 123.969 236.132 123.997C236.532 123.963 236.937 123.995 237.317 124.093C237.698 124.19 238.045 124.35 238.332 124.56C238.62 124.771 238.841 125.027 238.979 125.31C239.117 125.593 239.169 125.895 239.131 126.195ZM238.105 128.014V127.081H235.706C234.239 127.081 233.765 127.518 233.765 128.097C233.765 128.676 234.475 129.172 235.69 129.172C236.21 129.199 236.727 129.101 237.167 128.893C237.607 128.685 237.947 128.377 238.137 128.014H238.105Z" fill="#263238"/>
<path d="M254.487 126.419V129.727H253.461V126.502C253.461 125.321 252.641 124.683 251.267 124.683C250.912 124.67 250.556 124.716 250.226 124.817C249.897 124.918 249.601 125.072 249.358 125.268C249.116 125.464 248.935 125.697 248.825 125.951C248.716 126.205 248.682 126.474 248.727 126.738V129.727H247.701V126.502C247.701 125.321 246.88 124.683 245.491 124.683C245.135 124.67 244.78 124.716 244.45 124.817C244.12 124.918 243.824 125.072 243.582 125.268C243.34 125.464 243.158 125.697 243.049 125.951C242.94 126.205 242.906 126.474 242.95 126.738V129.727H241.924V124.033H242.871V125.108C243.169 124.76 243.584 124.476 244.074 124.285C244.564 124.094 245.113 124.003 245.665 124.021C246.224 123.987 246.785 124.081 247.27 124.293C247.755 124.504 248.142 124.821 248.379 125.202C248.688 124.82 249.131 124.508 249.659 124.3C250.188 124.091 250.782 123.995 251.378 124.021C251.804 123.992 252.233 124.035 252.635 124.147C253.036 124.258 253.399 124.435 253.697 124.665C253.995 124.895 254.22 125.172 254.357 125.475C254.494 125.779 254.538 126.101 254.487 126.419Z" fill="#263238"/>
<path d="M263.941 127.117H257.628C257.65 127.394 257.745 127.666 257.908 127.917C258.071 128.167 258.298 128.391 258.576 128.575C258.855 128.759 259.18 128.901 259.531 128.991C259.883 129.081 260.255 129.119 260.626 129.101C261.066 129.112 261.504 129.05 261.907 128.919C262.311 128.788 262.671 128.592 262.962 128.345L263.53 128.853C262.983 129.281 262.28 129.578 261.509 129.708C260.737 129.839 259.932 129.796 259.193 129.585C258.454 129.375 257.814 129.006 257.353 128.525C256.892 128.044 256.631 127.472 256.602 126.88C256.576 126.504 256.653 126.128 256.83 125.775C257.006 125.422 257.277 125.1 257.626 124.828C257.975 124.557 258.395 124.342 258.859 124.197C259.324 124.052 259.823 123.98 260.327 123.986C260.829 123.978 261.328 124.049 261.792 124.194C262.256 124.338 262.675 124.554 263.022 124.826C263.37 125.098 263.637 125.421 263.809 125.775C263.981 126.128 264.052 126.505 264.02 126.88C263.956 126.939 263.941 127.022 263.941 127.117ZM257.628 126.538H263.025C263.025 126.002 262.741 125.488 262.235 125.109C261.729 124.73 261.042 124.517 260.327 124.517C259.611 124.517 258.924 124.73 258.418 125.109C257.912 125.488 257.628 126.002 257.628 126.538Z" fill="#263238"/>
</g>
<path d="M97.4389 338.094H95.9396C95.9396 336.429 97.7861 297.394 106.861 290.838C116.188 284.044 127.157 290.743 127.251 290.838L126.304 291.688C125.894 291.44 116.251 285.58 107.887 291.688C99.2539 297.843 97.4547 337.693 97.4389 338.094Z" fill="#B20937"/>
<path d="M96.6813 345.927L95.1978 345.821C95.1978 345.348 101.069 298.422 78.3583 278.905L79.4788 278.173C102.615 298.056 96.7445 345.455 96.6813 345.927Z" fill="#B20937"/>
<path d="M97.4074 340.918C97.218 338.697 92.8463 286.573 110.301 274.522L111.311 275.349C94.3772 286.998 98.8436 340.327 98.8909 340.835L97.4074 340.918Z" fill="#B20937"/>
<path d="M95.1979 340.883C95.1979 340.528 94.6613 305.44 82.2407 300.159C81.1848 299.638 79.977 299.314 78.719 299.215C77.4611 299.117 76.1898 299.246 75.0125 299.592C67.7369 301.848 63.8703 312.245 63.823 312.351L62.3868 312.056C62.5446 311.607 66.4901 301.033 74.4443 298.564C75.83 298.147 77.3295 297.987 78.8157 298.096C80.3019 298.205 81.7312 298.58 82.9825 299.19C96.129 304.826 96.6814 339.359 96.6972 340.871L95.1979 340.883Z" fill="#B20937"/>
<path d="M100.311 340.906C100.217 339.725 98.307 313.214 108.36 303.372C111.043 300.761 114.01 299.521 117.23 299.698C124.379 300.064 129.855 307.318 130.155 307.625L128.861 308.181C128.861 308.11 123.464 301.092 117.119 300.809C114.452 300.655 111.895 301.754 109.544 304.058C99.8221 313.509 101.779 340.575 101.795 340.847L100.311 340.906Z" fill="#B20937"/>
<path d="M98.307 344.58L96.8234 344.498C96.8234 343.86 103.136 280.559 92.7201 269.997L93.9195 269.336C104.683 280.228 98.5753 341.958 98.307 344.58Z" fill="#B20937"/>
<path d="M71.5562 304.861C71.5562 304.861 77.9953 306.645 76.0857 310.839C74.1761 315.033 53.7855 321.944 53.7855 321.944C53.7855 321.944 45.2474 316.096 53.0911 306.586C60.9348 297.075 71.3826 301.86 71.5562 304.861Z" fill="#B20937"/>
<path opacity="0.2" d="M71.5562 304.861C71.5562 304.861 77.9953 306.645 76.0857 310.839C74.1761 315.033 53.7855 321.944 53.7855 321.944C53.7855 321.944 45.2474 316.096 53.0911 306.586C60.9348 297.075 71.3826 301.86 71.5562 304.861Z" fill="black"/>
<path d="M99.5696 296.875C99.5696 296.875 92.7043 296.662 92.3098 301.081C91.9152 305.499 107.145 317.762 107.145 317.762C107.145 317.762 118.035 314.809 115.699 303.762C113.363 292.716 101.274 294.146 99.5696 296.875Z" fill="#B20937"/>
<path opacity="0.2" d="M99.5696 296.875C99.5696 296.875 92.7043 296.662 92.3098 301.081C91.9152 305.499 107.145 317.762 107.145 317.762C107.145 317.762 118.035 314.809 115.699 303.762C113.363 292.716 101.274 294.146 99.5696 296.875Z" fill="black"/>
<path d="M105.377 275.68C105.377 275.68 100.801 275.314 101.164 273.234C101.526 271.155 118.95 265.779 129.224 274.416C129.224 274.416 122.643 282.875 113.142 282.993C103.641 283.111 105.377 275.68 105.377 275.68Z" fill="#B20937"/>
<path opacity="0.2" d="M105.377 275.68C105.377 275.68 100.801 275.314 101.164 273.234C101.526 271.155 118.95 265.779 129.224 274.416C129.224 274.416 122.643 282.875 113.142 282.993C103.641 283.111 105.377 275.68 105.377 275.68Z" fill="black"/>
<path d="M96.855 270.612C96.855 270.612 100.99 272.112 102.158 270.198C103.326 268.284 92.3255 256.836 77.4745 260.132C77.4745 260.132 77.08 269.915 85.0657 273.778C93.0515 277.641 96.855 270.612 96.855 270.612Z" fill="#B20937"/>
<path opacity="0.2" d="M96.855 270.612C96.855 270.612 100.99 272.112 102.158 270.198C103.326 268.284 92.3255 256.836 77.4745 260.132C77.4745 260.132 77.08 269.915 85.0657 273.778C93.0515 277.641 96.855 270.612 96.855 270.612Z" fill="black"/>
<path d="M118.508 303.183C118.508 303.183 115.352 301.269 118.761 300.336C122.17 299.403 138.883 299.675 139.056 312.068C139.056 312.068 119.581 314.49 117.182 309.764C114.783 305.038 118.508 303.183 118.508 303.183Z" fill="#B20937"/>
<path opacity="0.2" d="M118.508 303.183C118.508 303.183 115.352 301.269 118.761 300.336C122.17 299.403 138.883 299.675 139.056 312.068C139.056 312.068 119.581 314.49 117.182 309.764C114.783 305.038 118.508 303.183 118.508 303.183Z" fill="black"/>
<path d="M78.7371 275.373C78.7371 275.373 81.8935 273.459 78.4846 272.537C75.0757 271.616 58.3624 271.864 58.1888 284.257C58.1888 284.257 77.6639 286.691 80.0628 281.965C82.4617 277.239 78.7371 275.373 78.7371 275.373Z" fill="#B20937"/>
<path opacity="0.2" d="M78.7371 275.373C78.7371 275.373 81.8935 273.459 78.4846 272.537C75.0757 271.616 58.3624 271.864 58.1888 284.257C58.1888 284.257 77.6639 286.691 80.0628 281.965C82.4617 277.239 78.7371 275.373 78.7371 275.373Z" fill="black"/>
<path d="M89.0901 285.356C89.0901 285.356 89.3742 282.993 86.8648 283.95C84.3555 284.907 75.6595 291.901 84.6869 298.576C84.6869 298.576 96.8549 291.83 94.6612 288.321C92.4675 284.812 89.0901 285.356 89.0901 285.356Z" fill="#B20937"/>
<path opacity="0.2" d="M89.0901 285.356C89.0901 285.356 89.3742 282.993 86.8648 283.95C84.3555 284.907 75.6595 291.901 84.6869 298.576C84.6869 298.576 96.8549 291.83 94.6612 288.321C92.4675 284.812 89.0901 285.356 89.0901 285.356Z" fill="black"/>
<path d="M121.349 288.664C121.349 288.664 119.455 286.809 122.233 286.584C125.01 286.36 137.384 288.829 134.495 298.091C134.495 298.091 119.408 297.241 118.713 293.366C118.019 289.491 121.349 288.664 121.349 288.664Z" fill="#B20937"/>
<path opacity="0.2" d="M121.349 288.664C121.349 288.664 119.455 286.809 122.233 286.584C125.01 286.36 137.384 288.829 134.495 298.091C134.495 298.091 119.408 297.241 118.713 293.366C118.019 289.491 121.349 288.664 121.349 288.664Z" fill="black"/>
<path d="M72.6768 375.238H121.459L127.946 339.725H66.1903L72.6768 375.238Z" fill="#263238"/>
<path opacity="0.2" d="M72.6768 375.238H121.459L127.946 339.725H66.1903L72.6768 375.238Z" fill="white"/>
<path d="M134.069 336.842V340.221C134.069 341.305 133.494 342.345 132.47 343.111C131.446 343.878 130.057 344.309 128.609 344.309H64.9277C63.4795 344.309 62.0905 343.878 61.0665 343.111C60.0424 342.345 59.4671 341.305 59.4671 340.221V336.842H134.069Z" fill="#263238"/>
<path d="M540.554 0.243527H495.212C491.512 0.243527 487.963 1.34385 485.347 3.30244C482.731 5.26102 481.261 7.91743 481.261 10.6873V40.2228C481.259 41.5953 481.618 42.9546 482.318 44.2231C483.018 45.4915 484.046 46.6442 485.341 47.6153C486.637 48.5863 488.176 49.3567 489.87 49.8823C491.563 50.4079 493.379 50.6784 495.212 50.6784H508.453L505.297 59.9998L517.923 50.6784H540.633C544.338 50.6784 547.89 49.5768 550.509 47.616C553.129 45.6552 554.6 42.9958 554.6 40.2228V10.6873C554.6 9.30981 554.236 7.94594 553.529 6.6742C552.822 5.40246 551.786 4.24799 550.481 3.27726C549.175 2.30654 547.626 1.53874 545.922 1.01808C544.219 0.497416 542.394 0.234177 540.554 0.243527Z" fill="#B20937"/>
<path opacity="0.7" d="M540.554 0.243527H495.212C491.512 0.243527 487.963 1.34385 485.347 3.30244C482.731 5.26102 481.261 7.91743 481.261 10.6873V40.2228C481.259 41.5953 481.618 42.9546 482.318 44.2231C483.018 45.4915 484.046 46.6442 485.341 47.6153C486.637 48.5863 488.176 49.3567 489.87 49.8823C491.563 50.4079 493.379 50.6784 495.212 50.6784H508.453L505.297 59.9998L517.923 50.6784H540.633C544.338 50.6784 547.89 49.5768 550.509 47.616C553.129 45.6552 554.6 42.9958 554.6 40.2228V10.6873C554.6 9.30981 554.236 7.94594 553.529 6.6742C552.822 5.40246 551.786 4.24799 550.481 3.27726C549.175 2.30654 547.626 1.53874 545.922 1.01808C544.219 0.497416 542.394 0.234177 540.554 0.243527Z" fill="white"/>
<path d="M517.891 38.5097C527.61 38.5097 535.488 32.6121 535.488 25.3369C535.488 18.0617 527.61 12.1641 517.891 12.1641C508.173 12.1641 500.294 18.0617 500.294 25.3369C500.294 32.6121 508.173 38.5097 517.891 38.5097Z" fill="white"/>
<path d="M517.891 8.48987C513.44 8.48987 509.089 9.47794 505.388 11.3291C501.687 13.1803 498.802 15.8114 497.099 18.8898C495.396 21.9682 494.95 25.3556 495.818 28.6236C496.687 31.8916 498.83 34.8935 501.977 37.2496C505.125 39.6057 509.135 41.2102 513.501 41.8603C517.866 42.5103 522.391 42.1767 526.504 40.9016C530.616 39.6265 534.131 37.4671 536.604 34.6966C539.077 31.9262 540.396 28.669 540.396 25.3369C540.398 23.1241 539.818 20.9327 538.688 18.888C537.557 16.8433 535.9 14.9855 533.809 13.4208C531.719 11.8561 529.237 10.6152 526.506 9.76912C523.775 8.92302 520.847 8.48832 517.891 8.48987ZM530.659 20.3041L517.102 32.2601C516.91 32.4328 516.668 32.5712 516.395 32.6653C516.122 32.7593 515.824 32.8065 515.524 32.8035C515.224 32.8049 514.927 32.7569 514.654 32.663C514.381 32.5691 514.14 32.4316 513.946 32.2601L505.123 24.4745C504.937 24.3206 504.794 24.1401 504.703 23.9439C504.611 23.7476 504.574 23.5397 504.592 23.3324C504.611 23.125 504.685 22.9226 504.81 22.7372C504.935 22.5517 505.109 22.387 505.321 22.2529C505.533 22.1188 505.779 22.0181 506.044 21.9566C506.309 21.8952 506.588 21.8744 506.864 21.8953C507.14 21.9163 507.408 21.9787 507.651 22.0788C507.894 22.1789 508.108 22.3146 508.28 22.4779L515.524 28.8694L527.502 18.3075C527.862 18.0103 528.362 17.8293 528.897 17.8026C529.432 17.776 529.959 17.9058 530.369 18.1647C530.778 18.4237 531.037 18.7914 531.091 19.1905C531.145 19.5896 530.99 19.9889 530.659 20.3041Z" fill="#B20937"/>
<path d="M532.695 182.478C532.695 182.478 505.218 179.879 463.585 188.385C463.585 188.385 456.893 132.693 457.682 125.037C458.471 117.381 521.963 119.626 521.963 119.626C521.963 119.626 523.541 141.92 527.676 155.364C531.811 168.809 534.841 179.89 532.695 182.478Z" fill="#B20937"/>
<path opacity="0.2" d="M532.695 182.478C532.695 182.478 505.218 179.879 463.585 188.385C463.585 188.385 456.893 132.693 457.682 125.037C458.471 117.381 521.963 119.626 521.963 119.626C521.963 119.626 523.541 141.92 527.676 155.364C531.811 168.809 534.841 179.89 532.695 182.478Z" fill="black"/>
<path d="M443.51 366.85L454.715 369.225L457.382 356.17L458.818 349.188L447.613 346.813L445.703 356.17L443.51 366.85Z" fill="#E4897B"/>
<path d="M507.933 367.535L519.485 368.681L519.596 356.17L519.675 348.396L508.106 347.262L508.027 356.17L507.933 367.535Z" fill="#E4897B"/>
<path opacity="0.2" d="M508.106 347.262L508.027 356.17H519.596L519.674 348.396L508.106 347.262Z" fill="black"/>
<path opacity="0.2" d="M445.704 356.17H457.382L458.819 349.188L447.613 346.813L445.704 356.17Z" fill="black"/>
<path d="M393.765 129.609L382.638 127.152L384.674 136.662C384.674 136.662 394.775 138.399 395.722 134.465L393.765 129.609Z" fill="#E4897B"/>
<path d="M371.527 129.361L376.988 137.087L384.674 136.662L382.638 127.152L371.527 129.361Z" fill="#E4897B"/>
<path d="M409.12 132.043L390.845 128.983L389.188 135.623L405.775 138.647L409.12 132.043Z" fill="#E4897B"/>
<path d="M464.405 126.041L463.332 126.998C461.028 129.019 455.441 133.898 449.617 138.104C444.883 141.53 440.148 144.519 436.992 145.121C428.043 146.846 395.516 139.675 395.516 139.675L398.878 129.798C398.878 129.798 429.18 132.811 431.531 132.811C433.314 132.811 451.748 112.821 456.214 111.179L464.405 126.041Z" fill="#B20937"/>
<path opacity="0.2" d="M463.332 126.998C461.028 129.018 455.441 133.898 449.618 138.103C450.785 131.18 454.179 124.824 458.645 120.807C459.061 120.42 459.538 120.071 460.065 119.768L463.332 126.998Z" fill="black"/>
<path d="M443.652 365.539L456.372 365.291C456.602 365.285 456.827 365.338 457.01 365.442C457.194 365.545 457.325 365.691 457.382 365.858L460.065 373.525C460.129 373.709 460.138 373.901 460.089 374.087C460.04 374.273 459.936 374.449 459.785 374.601C459.633 374.753 459.438 374.878 459.213 374.965C458.989 375.053 458.74 375.102 458.487 375.108C453.894 375.108 447.25 375.108 441.49 375.191C434.735 375.333 430.442 375.085 422.551 375.191C417.817 375.285 416.238 371.718 418.258 371.351C427.302 369.674 433.22 370.005 440.922 366.224C441.734 365.818 442.677 365.582 443.652 365.539Z" fill="#263238"/>
<path d="M442.547 366.768C440.685 367.075 437.371 367.488 436.045 366.673C435.852 366.553 435.699 366.401 435.601 366.228C435.502 366.056 435.459 365.868 435.477 365.681C435.476 365.568 435.515 365.458 435.59 365.36C435.665 365.263 435.773 365.182 435.903 365.125C437.307 364.499 442.058 366.189 442.61 366.378C442.659 366.397 442.699 366.426 442.727 366.462C442.755 366.497 442.769 366.537 442.768 366.579C442.765 366.624 442.742 366.668 442.702 366.702C442.662 366.736 442.607 366.76 442.547 366.768ZM436.234 365.456H436.14C436.087 365.479 436.043 365.512 436.013 365.551C435.982 365.59 435.966 365.635 435.966 365.681C435.953 365.803 435.979 365.926 436.042 366.039C436.105 366.152 436.204 366.252 436.329 366.33C437.071 366.791 438.996 366.838 441.553 366.46C439.706 365.882 437.134 365.208 436.266 365.456H436.234Z" fill="#B20937"/>
<path d="M442.547 366.768H442.358C440.922 366.319 438.049 364.499 438.207 363.519C438.207 363.282 438.46 362.987 439.217 362.916C439.495 362.889 439.778 362.903 440.049 362.958C440.32 363.013 440.573 363.107 440.795 363.235C442.374 364.121 442.737 366.449 442.768 366.543C442.773 366.579 442.765 366.615 442.746 366.648C442.726 366.681 442.696 366.71 442.658 366.732L442.547 366.768ZM439.012 363.377C438.775 363.436 438.76 363.53 438.76 363.566C438.665 364.157 440.622 365.598 442.09 366.212C441.92 365.22 441.335 364.293 440.417 363.566C440.261 363.468 440.079 363.396 439.883 363.355C439.687 363.315 439.481 363.306 439.28 363.33C439.188 363.336 439.098 363.352 439.012 363.377Z" fill="#B20937"/>
<path d="M508.39 365.539L521.111 365.291C521.342 365.285 521.569 365.338 521.756 365.44C521.942 365.543 522.076 365.691 522.136 365.858L524.804 373.525C524.871 373.709 524.881 373.902 524.834 374.089C524.787 374.276 524.683 374.453 524.531 374.605C524.379 374.758 524.182 374.883 523.956 374.97C523.73 375.057 523.48 375.104 523.225 375.108C518.633 375.108 511.989 375.108 506.212 375.191C499.473 375.333 495.165 375.085 487.274 375.191C482.539 375.286 480.961 371.718 482.981 371.351C492.024 369.674 497.927 370.005 505.628 366.224C506.45 365.814 507.404 365.578 508.39 365.539Z" fill="#263238"/>
<path d="M507.301 366.768C505.439 367.075 502.109 367.488 500.799 366.673C500.606 366.553 500.453 366.401 500.355 366.228C500.256 366.056 500.213 365.868 500.231 365.681C500.23 365.568 500.269 365.458 500.344 365.36C500.419 365.263 500.527 365.182 500.657 365.125C502.046 364.499 506.812 366.189 507.349 366.378C507.401 366.393 507.445 366.421 507.474 366.458C507.502 366.494 507.514 366.537 507.506 366.579C507.502 366.622 507.48 366.663 507.444 366.697C507.407 366.731 507.357 366.756 507.301 366.768ZM500.988 365.456H500.894C500.842 365.479 500.799 365.511 500.771 365.551C500.743 365.591 500.731 365.636 500.736 365.681C500.72 365.803 500.745 365.926 500.808 366.04C500.872 366.153 500.971 366.253 501.099 366.33C501.841 366.791 503.75 366.838 506.323 366.46C504.445 365.882 501.872 365.208 501.004 365.456H500.988Z" fill="#B20937"/>
<path d="M507.301 366.768H507.096C505.676 366.319 502.788 364.499 502.961 363.519C502.961 363.282 503.198 362.987 503.956 362.916C504.234 362.888 504.517 362.901 504.788 362.956C505.059 363.011 505.313 363.106 505.534 363.235C506.638 364.156 507.328 365.313 507.506 366.543C507.515 366.579 507.508 366.616 507.489 366.65C507.469 366.683 507.437 366.712 507.396 366.732L507.301 366.768ZM503.75 363.377C503.529 363.436 503.514 363.531 503.514 363.566C503.403 364.157 505.376 365.598 506.844 366.212C506.663 365.222 506.079 364.298 505.171 363.566C505.014 363.469 504.832 363.397 504.636 363.356C504.441 363.316 504.235 363.307 504.034 363.33L503.75 363.377Z" fill="#B20937"/>
<path d="M531.764 177.398C537.887 197.257 527.376 353.5 527.376 353.5H507.08L498.4 223.296L466.441 353.5L444.741 352.319C458.945 251.449 471.46 191.232 471.46 191.232V183.624L531.764 177.398Z" fill="#263238"/>
<path opacity="0.4" d="M444.741 352.319L466.441 353.5L491.598 251L498.4 223.296L507.08 353.5H527.376C527.376 353.5 537.887 197.257 531.764 177.398L471.428 183.624V191.232C471.428 191.232 458.929 251.449 444.741 352.319Z" fill="white"/>
<path d="M520.827 103.842C520.204 113.338 520.526 122.855 521.789 132.315C522.642 138.931 523.809 145.18 525.056 150.816C527.976 164.036 531.29 173.948 531.764 177.41L471.428 183.636C449.428 137.56 457.714 110.789 457.714 110.789C462.225 109.395 466.848 108.211 471.555 107.245C472.549 107.044 473.559 106.855 474.601 106.678C483.075 105.43 491.637 104.546 500.247 104.031C501.825 103.925 503.545 103.842 505.155 103.783C513.393 103.476 520.827 103.842 520.827 103.842Z" fill="#263238"/>
<path d="M488.536 83.1085C488.978 89.4291 489.878 101.291 496.901 104.303C496.901 104.303 492.529 110.529 483.076 111.167C475.926 111.64 476.4 106.359 476.4 106.359C480.535 104.055 479.556 100.145 476.4 95.7261L488.536 83.1085Z" fill="#E4897B"/>
<path opacity="0.2" d="M483.581 88.2595L476.447 95.7261C477.198 96.7473 477.832 97.8144 478.341 98.9159C481.655 97.9235 485.459 94.1902 484.906 91.4848C484.733 90.3578 484.284 89.2644 483.581 88.2595Z" fill="black"/>
<path d="M457.761 70.3846C456.388 73.6689 457.146 80.403 463.253 78.2174C469.361 76.0317 460.129 64.7492 457.761 70.3846Z" fill="#263238"/>
<path d="M489.325 74.8268C490.004 83.2503 490.904 88.1532 485.995 92.9262C478.53 100.097 464.074 97.4274 460.034 89.2992C456.404 81.9744 455.915 69.4277 466.347 65.1746C468.659 64.2328 471.253 63.7456 473.885 63.7584C476.518 63.7713 479.103 64.2839 481.398 65.2482C483.694 66.2125 485.626 67.5971 487.012 69.2723C488.398 70.9475 489.194 72.8586 489.325 74.8268Z" fill="#E4897B"/>
<path d="M481.434 70.2427V60.7913C481.434 60.7913 494.818 60.0471 494.218 65.1744C501.635 67.9271 498.132 76.5633 488.173 80.7928C482.713 77.5203 483.344 69.652 483.344 69.652C482.76 69.8765 482.097 70.0655 481.434 70.2427Z" fill="#263238"/>
<path d="M494.77 81.3955C494.512 82.426 493.982 83.4074 493.209 84.2819C492.437 85.1564 491.438 85.9063 490.272 86.4874C487.116 88.0351 484.386 86.133 484.275 83.4748C484.181 81.112 485.68 77.3787 489.31 76.9061C490.104 76.8134 490.916 76.8696 491.674 77.0695C492.432 77.2694 493.112 77.6068 493.653 78.0516C494.194 78.4964 494.579 79.0347 494.774 79.6182C494.969 80.2018 494.968 80.8124 494.77 81.3955Z" fill="#E4897B"/>
<path d="M472.707 78.5837C472.817 79.2689 472.423 79.8596 471.823 79.9069C471.223 79.9542 470.655 79.4461 470.545 78.7255C470.434 78.0048 470.829 77.4495 471.413 77.4023C471.997 77.355 472.596 77.8512 472.707 78.5837Z" fill="#263238"/>
<path d="M462.385 79.4461C462.496 80.1314 462.101 80.7221 461.501 80.7693C460.902 80.8166 460.334 80.3086 460.223 79.5879C460.113 78.8672 460.507 78.312 461.107 78.2647C461.707 78.2174 462.243 78.7609 462.385 79.4461Z" fill="#263238"/>
<path d="M465.715 79.5051C464.918 81.6177 463.733 83.6374 462.196 85.5067C462.877 85.7686 463.624 85.9198 464.388 85.9503C465.152 85.9809 465.916 85.8901 466.631 85.684L465.715 79.5051Z" fill="#DE5753"/>
<path d="M471.949 87.8814C471.56 87.9557 471.164 88.0109 470.765 88.0468C470.694 88.0468 470.626 88.0256 470.576 87.9879C470.525 87.9503 470.497 87.8992 470.497 87.8459C470.497 87.7927 470.525 87.7416 470.576 87.7039C470.626 87.6662 470.694 87.6451 470.765 87.6451C471.899 87.5681 472.992 87.2927 473.957 86.8413C474.922 86.3898 475.732 85.7748 476.321 85.0459C476.334 85.0221 476.354 85.0005 476.379 84.9827C476.405 84.9648 476.434 84.951 476.467 84.9422C476.5 84.9333 476.534 84.9295 476.569 84.9311C476.603 84.9327 476.637 84.9396 476.668 84.9514C476.7 84.9628 476.73 84.9789 476.754 84.9988C476.777 85.0187 476.796 85.042 476.808 85.0674C476.819 85.0927 476.824 85.1195 476.822 85.1463C476.82 85.173 476.81 85.1992 476.794 85.2232C476.278 85.8942 475.581 86.4772 474.746 86.9349C473.912 87.3927 472.959 87.715 471.949 87.8814Z" fill="#263238"/>
<path d="M475.484 75.8309C475.389 75.8475 475.289 75.8454 475.195 75.8247C475.101 75.804 475.016 75.7655 474.948 75.7128C474.491 75.3379 473.923 75.0477 473.291 74.8652C472.658 74.6827 471.977 74.6129 471.302 74.6613C471.232 74.6733 471.16 74.6745 471.09 74.6647C471.02 74.6549 470.953 74.6345 470.894 74.6045C470.835 74.5746 470.784 74.5359 470.746 74.4908C470.708 74.4457 470.682 74.3952 470.671 74.3423C470.657 74.2903 470.657 74.2368 470.671 74.1849C470.685 74.1329 470.713 74.0836 470.752 74.0396C470.792 73.9957 470.843 73.9581 470.902 73.9289C470.961 73.8998 471.027 73.8797 471.097 73.8698C471.949 73.7938 472.813 73.871 473.617 74.095C474.421 74.3189 475.143 74.6832 475.721 75.1575C475.773 75.194 475.814 75.2379 475.842 75.2867C475.87 75.3354 475.884 75.388 475.884 75.4411C475.884 75.4942 475.87 75.5467 475.842 75.5955C475.814 75.6442 475.773 75.6882 475.721 75.7246C475.654 75.7727 475.573 75.809 475.484 75.8309Z" fill="#263238"/>
<path d="M457.509 77.1659C457.407 77.195 457.294 77.195 457.193 77.1659C457.059 77.131 456.95 77.0581 456.888 76.963C456.825 76.8678 456.816 76.7582 456.861 76.6579C457.122 76.0498 457.575 75.498 458.183 75.0495C458.79 74.601 459.533 74.2692 460.349 74.0824C460.487 74.0558 460.634 74.0713 460.757 74.1256C460.88 74.1799 460.969 74.2685 461.004 74.3719C461.04 74.4753 461.019 74.585 460.947 74.677C460.874 74.7689 460.756 74.8355 460.618 74.8622C459.972 75.011 459.386 75.2764 458.91 75.6348C458.434 75.9933 458.082 76.4339 457.887 76.9178C457.857 76.9798 457.807 77.035 457.741 77.0784C457.674 77.1218 457.595 77.1519 457.509 77.1659Z" fill="#263238"/>
<path d="M487.368 73.7397C487.368 73.7397 479.477 71.5777 475.879 68.1516C475.879 68.1516 468.714 69.5575 467.246 71.6959C466.576 71.2665 466.143 70.6667 466.029 70.0122C465.916 69.3577 466.13 68.6949 466.631 68.1516C466.631 68.1516 461.265 69.0022 460.207 71.6959C459.335 71.3851 458.619 70.8731 458.165 70.2351C457.71 69.5972 457.541 68.8669 457.682 68.1516C457.682 68.1516 455.299 68.825 454.526 71.6959C454.526 71.6959 448.607 62.4572 468.161 59.8108C466.682 59.4349 465.131 59.2394 463.569 59.2319C463.569 59.2319 477.22 55.1087 488.031 58.8775C498.842 62.6462 496.964 69.9474 487.368 73.7397Z" fill="#263238"/>
<path d="M536.419 185.36L517.481 187.251C517.481 187.251 509.669 146.385 506.228 133.189V105.024L516.123 103.074L523.794 105.024C525.897 110.69 527.515 116.452 528.639 122.273C529.57 126.691 530.406 131.417 531.148 136.201C532.174 142.723 533.026 149.363 533.752 155.577C534.888 165.607 535.646 174.48 536.056 179.902C536.293 183.305 536.419 185.36 536.419 185.36Z" fill="#B20937"/>
<path d="M506.244 133.165C506.244 133.165 507.822 113.282 516.139 103.027C516.139 103.027 515.934 100.097 514.277 99.6247C512.62 99.1521 506.244 101.988 506.244 101.988C506.244 101.988 502.283 99.9555 501.415 100.901C500.547 101.846 498.432 108.131 506.244 133.165Z" fill="#B20937"/>
<path opacity="0.7" d="M506.244 133.165C506.244 133.165 507.822 113.282 516.139 103.027C516.139 103.027 515.934 100.097 514.277 99.6247C512.62 99.1521 506.244 101.988 506.244 101.988C506.244 101.988 502.283 99.9555 501.415 100.901C500.547 101.846 498.432 108.131 506.244 133.165Z" fill="white"/>
<path d="M463.19 190.807L465.352 191.988C465.352 191.988 462.196 178.815 463.49 145.499C463.49 143.893 463.632 142.345 463.711 140.868C465.289 112.679 471.16 107.552 471.602 107.245L466.141 108.639L456.246 111.191C453.263 135.233 463.19 190.807 463.19 190.807Z" fill="#B20937"/>
<path d="M464.043 136.012C464.043 136.012 458.582 116.684 460.207 110.021C461.833 103.358 467.657 106.323 467.657 106.323C467.657 106.323 473.007 103.086 474.601 106.654C474.601 106.654 467.246 110.529 464.043 136.012Z" fill="#B20937"/>
<path opacity="0.7" d="M464.043 136.012C464.043 136.012 458.582 116.684 460.207 110.021C461.833 103.358 467.657 106.323 467.657 106.323C467.657 106.323 473.007 103.086 474.601 106.654C474.601 106.654 467.246 110.529 464.043 136.012Z" fill="white"/>
<path opacity="0.2" d="M531.117 136.154C523.036 132.764 521.963 123.915 521.963 123.915C522.452 123.773 525.451 123.005 528.607 122.225C529.538 126.644 530.375 131.37 531.117 136.154Z" fill="black"/>
<path opacity="0.2" d="M491.598 251L498.4 223.296L497.09 208.634C497.09 208.634 487.763 234.059 491.598 251Z" fill="black"/>
<path opacity="0.2" d="M536.025 179.855C530.943 179.595 526.555 179.347 526.555 179.347L525.593 163.882C527.176 163.14 529.079 162.878 530.911 163.15C532.16 160.679 533.106 158.129 533.736 155.53C534.841 165.56 535.614 174.444 536.025 179.855Z" fill="black"/>
<path d="M537.761 155.518L527.865 167.415L535.693 170.782L544.989 160.066L537.761 155.518Z" fill="#E4897B"/>
<path d="M523.368 104.835C530.028 105.378 558.341 134.465 559.588 143.231C560.834 151.997 542.953 167.131 542.953 167.131L531.022 161.874C531.022 161.874 543.143 147.921 543.774 144.153C544.405 140.384 521.6 125.155 521.6 125.155C519.876 121.647 518.927 117.952 518.791 114.215C518.475 107.812 523.368 104.835 523.368 104.835Z" fill="#B20937"/>
<path d="M525.577 163.894C525.577 163.894 535.756 165.524 539.86 170.321C539.86 170.321 535.599 180.304 532.553 181.391C529.507 182.478 521.963 182.478 521.963 182.478C521.963 182.478 521.474 171.372 525.577 163.894Z" fill="#B20937"/>
</svg>
