<svg width="1083" height="599" viewBox="0 0 1083 599" fill="none" xmlns="http://www.w3.org/2000/svg">
<path d="M1013.51 515.837C1013.51 516.047 792.761 516.226 520.534 516.226C248.307 516.226 27.4972 516.047 27.4972 515.837C27.4972 515.628 248.232 515.448 520.504 515.448C792.776 515.448 1013.51 515.628 1013.51 515.837Z" fill="#263238"/>
<path d="M997.399 275.864C984.892 282.342 975.288 293.502 968.391 305.784C961.495 318.066 957.037 331.56 952.639 344.949L948.779 414.005C963.35 389.216 975.034 360.149 978.19 331.53L968.496 330.677C974.989 329.675 980.464 324.978 983.92 319.398C987.376 313.817 989.171 307.429 990.921 301.042L979.103 302.792C988.432 296.498 994.983 286.856 997.399 275.864Z" fill="#455A64"/>
<g opacity="0.3">
<path d="M997.399 275.864C984.892 282.342 975.288 293.502 968.391 305.784C961.495 318.066 957.037 331.56 952.639 344.949L948.779 414.005C963.35 389.216 975.034 360.149 978.19 331.53L968.496 330.677C974.989 329.675 980.464 324.978 983.92 319.398C987.376 313.817 989.171 307.429 990.921 301.042L979.103 302.792C988.432 296.498 994.983 286.856 997.399 275.864Z" fill="black"/>
</g>
<path d="M946.625 430.176C946.625 430.176 915.014 392.342 915.448 356.229H928.209C928.209 356.229 914.341 347.103 915.433 342.002C916.525 336.901 916.929 317.557 916.929 317.557L928.598 320.475C928.598 320.475 919.846 316.091 918.754 309.165C917.662 302.238 921.312 270.134 921.312 270.134C921.312 270.134 935.539 285.094 939.908 300.413C944.276 315.732 955.78 333.61 952.414 380.3C949.048 426.99 946.625 430.176 946.625 430.176Z" fill="#455A64"/>
<path d="M962.647 433.752C962.647 433.752 996.89 410.938 1004.53 381.826L994.242 379.088C994.242 379.088 1007.38 374.794 1007.62 370.441C1007.86 366.088 1011.79 350.47 1011.79 350.47L1001.77 350.26C1001.77 350.26 1009.76 348.659 1012.16 343.319C1014.57 337.978 1018.67 311.319 1018.67 311.319C1018.67 311.319 1003.97 320.295 997.1 331.59C990.233 342.885 977.068 354.808 969.573 393.091C962.078 431.373 962.647 433.752 962.647 433.752Z" fill="#455A64"/>
<path d="M929.854 303.121C929.917 303.243 929.958 303.374 929.974 303.51L930.258 304.677C930.513 305.754 930.842 307.25 931.276 309.165C932.158 313.07 933.325 318.724 934.672 325.756C936.018 332.787 937.469 341.149 938.935 350.484C940.401 359.819 941.793 370.112 943.064 380.928C944.336 391.744 945.263 402.111 946.056 411.536C946.849 420.961 947.268 429.488 947.552 436.579C947.836 443.67 948.016 449.505 948.046 453.499C948.046 455.444 948.046 456.985 948.046 458.092V459.289C948.058 459.428 948.058 459.568 948.046 459.707C948.031 459.568 948.031 459.428 948.046 459.289C948.046 458.989 948.046 458.585 948.046 458.107C948.046 456.985 947.941 455.459 947.866 453.499C947.747 449.52 947.507 443.745 947.148 436.609C946.789 429.473 946.221 421.006 945.488 411.581C944.755 402.156 943.737 391.849 942.496 381.018C941.254 370.187 939.833 359.924 938.442 350.589C937.05 341.254 935.629 332.877 934.342 325.845C933.056 318.814 931.979 313.144 931.186 309.24C930.827 307.325 930.528 305.814 930.318 304.752C930.228 304.273 930.169 303.884 930.109 303.57C929.997 303.437 929.911 303.285 929.854 303.121Z" fill="#263238"/>
<path d="M942.241 453.349C942.241 453.349 913.309 420.527 904.333 400.69L911.11 397.788C906.203 398.596 901.161 396.486 897.346 393.3C893.698 389.896 890.55 385.993 887.996 381.706L896.972 380.21C888.792 377.855 881.829 372.445 877.524 365.1C887.996 366.836 897.601 372.58 905.455 379.851C911.692 385.848 917.356 392.414 922.374 399.463C924.908 402.851 927.112 406.473 928.957 410.28C933.714 420.303 942.256 441.292 942.241 453.349Z" fill="#455A64"/>
<path d="M1004.95 330.423C1004.95 330.423 1004.95 330.543 1004.83 330.767C1004.71 330.992 1004.56 331.336 1004.4 331.725L1002.65 335.375C1001.15 338.531 998.925 343.109 996.277 348.839C990.966 360.208 983.965 376.096 977.053 393.958C970.142 411.82 964.637 428.291 960.911 440.334C959.041 446.318 957.575 451.195 956.603 454.561L955.436 458.436L955.107 459.438C955.078 459.558 955.032 459.674 954.972 459.782C954.958 459.663 954.958 459.542 954.972 459.423C954.972 459.139 955.122 458.81 955.227 458.406C955.481 457.448 955.81 456.132 956.244 454.486C957.142 451.09 958.533 446.199 960.328 440.17C963.918 428.202 969.304 411.626 976.26 393.794C983.217 375.961 990.278 360.044 995.708 348.719C998.431 343.049 1000.69 338.502 1002.32 335.39C1003.11 333.894 1003.74 332.682 1004.19 331.799L1004.7 330.872C1004.76 330.711 1004.85 330.56 1004.95 330.423Z" fill="#263238"/>
<path d="M944.695 467.352C944.476 466.583 944.321 465.798 944.231 465.003C944.007 463.507 943.618 461.308 943.079 458.63C940.319 444.637 935.264 431.196 928.119 418.852C926.758 416.488 925.606 414.588 924.768 413.301C924.31 412.649 923.909 411.959 923.571 411.237C924.123 411.826 924.624 412.462 925.067 413.137C925.98 414.379 927.207 416.234 928.643 418.567C932.308 424.72 935.402 431.195 937.888 437.911C940.418 444.612 942.321 451.533 943.573 458.585C944.051 461.293 944.351 463.492 944.485 465.033C944.629 465.798 944.699 466.574 944.695 467.352Z" fill="#263238"/>
<path d="M982.858 459.692H919.547V472.603H982.858V459.692Z" fill="#B20937"/>
<path d="M925.591 472.603L932.443 516.047H970.695L977.068 472.603H925.591Z" fill="#B20937"/>
<path d="M978.983 472.603C978.983 472.812 967.015 472.992 952.235 472.992C937.454 472.992 925.486 472.812 925.486 472.603C925.486 472.393 937.454 472.214 952.235 472.214C967.015 472.214 978.983 472.393 978.983 472.603Z" fill="#263238"/>
<path d="M92.7976 477.33C92.7976 477.33 87.1427 438.434 87.6214 415.905C88.1002 393.375 87.6214 367.883 87.6214 367.883H90.2245C90.2245 367.883 88.4592 412.763 90.3741 439.781C92.289 466.799 97.3454 477.33 97.3454 477.33H92.8574" fill="#263238"/>
<path d="M109.628 324.185C109.212 322.818 108.38 321.616 107.249 320.744C106.37 320.327 105.409 320.111 104.436 320.111C103.464 320.111 102.503 320.327 101.624 320.744C93.755 323.527 86.7837 338.187 83.672 345.907L94.144 381.078C112.859 363.619 116.12 340.671 109.628 324.185Z" fill="#455A64"/>
<path d="M106.636 322.135C106.611 322.297 106.561 322.454 106.486 322.599L105.977 323.886C105.514 324.993 104.885 326.593 104.107 328.598C102.611 332.592 100.607 338.172 98.8564 344.471C97.1061 350.769 95.8644 356.558 95.1762 360.777C94.8022 362.886 94.518 364.592 94.3534 365.789C94.2487 366.342 94.1889 366.791 94.129 367.15C94.1081 367.307 94.073 367.463 94.0243 367.614C94.0012 367.455 94.0012 367.294 94.0243 367.135C94.0243 366.776 94.1141 366.312 94.1589 365.759C94.2936 364.562 94.5329 362.841 94.8621 360.732C96.6432 349.685 99.6539 338.871 103.838 328.493C104.646 326.504 105.334 324.903 105.843 323.811L106.426 322.569C106.482 322.418 106.552 322.273 106.636 322.135Z" fill="#263238"/>
<path d="M89.3717 389.56C84.6159 386.855 80.6376 382.969 77.8206 378.279C75.0037 373.588 73.4432 368.251 73.2897 362.782C72.9008 354.973 75.3093 347.313 78.0171 339.983C78.1883 339.324 78.5788 338.744 79.1241 338.337C79.5686 338.175 80.0467 338.127 80.5146 338.198C80.9824 338.268 81.4251 338.455 81.802 338.741C88.908 342.795 93.2165 350.514 95.5053 358.368C97.155 363.579 97.7101 369.075 97.136 374.51C96.2287 380.201 93.5112 385.447 89.3867 389.47" fill="#455A64"/>
<path d="M89.3718 389.56C89.3497 389.406 89.3497 389.25 89.3718 389.096C89.3718 388.737 89.3718 388.288 89.3718 387.735C89.3718 386.568 89.3718 384.878 89.2222 382.783C88.9499 377.336 88.3454 371.91 87.412 366.537C86.3199 360.224 85.0034 354.569 84.031 350.5L82.8791 345.682L82.5799 344.366C82.5542 344.207 82.5542 344.046 82.5799 343.887C82.6444 344.032 82.6945 344.182 82.7295 344.336C82.8342 344.68 82.9539 345.114 83.1185 345.638C83.4326 346.76 83.8814 348.405 84.405 350.44C85.4522 354.494 86.8136 360.134 87.9057 366.462C88.8491 371.852 89.4189 377.3 89.6111 382.768C89.6111 384.863 89.6111 386.568 89.6111 387.75C89.6111 388.288 89.6111 388.737 89.6111 389.096C89.5484 389.259 89.4681 389.415 89.3718 389.56Z" fill="#263238"/>
<g opacity="0.3">
<path d="M89.3717 389.56C84.6159 386.855 80.6376 382.969 77.8206 378.279C75.0037 373.588 73.4432 368.251 73.2897 362.782C72.9008 354.973 75.3093 347.313 78.0171 339.983C78.1883 339.324 78.5788 338.744 79.1241 338.337C79.5686 338.175 80.0467 338.127 80.5146 338.198C80.9824 338.268 81.4251 338.455 81.802 338.741C88.908 342.795 93.2165 350.514 95.5053 358.368C97.155 363.579 97.7101 369.075 97.136 374.51C96.2287 380.201 93.5112 385.447 89.3867 389.47" fill="black"/>
</g>
<path d="M100.412 448.951C110.046 451.076 117.975 457.927 127.34 461.174C133.489 463.358 140.43 464.166 145.292 468.429C144.11 465.437 141.313 463.477 138.605 461.772C130.956 456.997 122.79 453.102 114.265 450.163C109.882 448.667 105.14 447.38 100.696 448.667" fill="#455A64"/>
<path d="M86.4844 457.538C74.4267 457.344 61.7256 447.066 49.7128 446.453C62.2792 442.399 80.276 445.72 86.4844 457.538Z" fill="#455A64"/>
<path d="M91.152 428.606C97.3687 426.562 103.999 426.109 110.435 427.289C116.839 428.472 123.134 430.183 129.255 432.406C128.642 428.217 125.246 425.075 122.059 422.293C119.761 420.115 117.255 418.166 114.579 416.473C111.862 414.777 108.717 413.89 105.514 413.915C103.592 414.039 101.715 414.55 99.9957 415.416C98.276 416.282 96.7488 417.486 95.5053 418.956C93.0367 421.609 91.5073 424.999 91.152 428.606Z" fill="#455A64"/>
<path d="M66.453 415.276C58.8533 408.799 47.3491 409.427 37.3708 409.651C53.4079 417.299 68.533 426.729 82.4602 437.761C82.8642 430.7 76.0424 423.474 66.453 415.276Z" fill="#455A64"/>
<g opacity="0.3">
<path d="M66.453 415.276C58.8533 408.799 47.3491 409.427 37.3708 409.651C53.4079 417.299 68.533 426.729 82.4602 437.761C82.8642 430.7 76.0424 423.474 66.453 415.276Z" fill="black"/>
</g>
<path d="M94.6227 406.33C98.3274 403.763 102.229 401.492 106.292 399.538C110.301 397.728 114.026 394.841 117.886 392.747C122.897 390.039 127.221 386.269 131.828 382.903C136.436 379.537 141.462 376.515 147.087 375.617C142.455 374.8 137.696 375.076 133.19 376.425C128.704 377.772 124.332 379.473 120.115 381.512C114.131 384.174 108.147 386.912 103.329 391.251C98.5123 395.589 94.1141 399.853 94.6227 406.33Z" fill="#455A64"/>
<path d="M127.056 457.538C126.919 457.502 126.788 457.447 126.667 457.374L125.56 456.88C124.647 456.401 123.346 455.683 121.7 454.86C120.892 454.427 119.995 453.978 119.008 453.529C118.02 453.08 116.988 452.572 115.881 452.033C113.468 450.952 110.965 450.086 108.401 449.445C105.878 448.742 103.221 448.675 100.667 449.25C99.5518 449.492 98.4567 449.818 97.3903 450.223C95.1198 451.142 93.0775 452.546 91.4063 454.337C90.7032 455.085 90.3591 455.534 90.3292 455.519L90.5536 455.16C90.7802 454.832 91.0249 454.517 91.2866 454.217C92.2333 453.101 93.3369 452.129 94.5629 451.33C95.4075 450.75 96.3039 450.249 97.2407 449.834C98.319 449.403 99.4295 449.058 100.562 448.802C103.177 448.193 105.903 448.25 108.491 448.966C111.058 449.617 113.562 450.498 115.971 451.599C117.078 452.093 118.125 452.586 119.097 453.095C120.07 453.604 120.967 454.038 121.775 454.486C123.406 455.354 124.677 456.102 125.575 456.641L126.577 457.254C126.751 457.322 126.913 457.418 127.056 457.538Z" fill="#263238"/>
<path d="M77.4935 451.554C77.7567 451.595 78.0133 451.67 78.2565 451.779C78.927 452.021 79.5816 452.306 80.2162 452.631C82.3241 453.706 84.2643 455.082 85.9758 456.715C87.6847 458.357 89.1416 460.243 90.2993 462.311C90.6451 462.936 90.9548 463.58 91.2268 464.24C91.3479 464.476 91.4336 464.728 91.4811 464.988C91.4811 464.988 90.9575 464.001 89.9851 462.475C88.7743 460.48 87.3111 458.65 85.6317 457.03C83.9428 455.423 82.0579 454.036 80.0217 452.901C78.5108 452.033 77.4636 451.629 77.4935 451.554Z" fill="#263238"/>
<path d="M50.76 414.678C50.9356 414.704 51.1067 414.755 51.2686 414.827L52.7646 415.336L55.0535 416.189C55.9362 416.518 56.9086 416.997 58.0455 417.49C63.7049 420.104 68.988 423.465 73.7535 427.484C76.348 429.724 78.7918 432.132 81.069 434.694C82.9149 436.804 84.6525 439.006 86.275 441.292C87.6514 443.236 88.6836 444.867 89.4017 445.989L90.2245 447.276C90.332 447.419 90.4224 447.575 90.4938 447.739L90.1646 447.336C89.9552 447.051 89.641 446.632 89.267 446.079C88.5041 444.987 87.427 443.386 86.0207 441.471C84.6145 439.556 82.8492 437.327 80.7698 434.964C78.4926 432.425 76.054 430.037 73.4693 427.813C68.7265 423.821 63.4991 420.443 57.9109 417.76C56.8338 417.266 55.8763 416.757 54.9189 416.398L52.6749 415.501L51.2537 414.902L50.76 414.678Z" fill="#263238"/>
<path d="M109.298 421.814C108.976 421.811 108.654 421.771 108.341 421.694L107.234 421.485C106.8 421.485 106.306 421.485 105.738 421.35C103.521 421.154 101.288 421.455 99.202 422.232C97.1161 423.008 95.2296 424.24 93.6802 425.838C92.757 426.736 91.9435 427.74 91.2567 428.83C90.6538 429.83 90.119 430.87 89.656 431.942C89.6908 431.618 89.7714 431.301 89.8954 430.999C90.205 430.173 90.5906 429.376 91.0473 428.621C91.7064 427.478 92.4999 426.418 93.411 425.464C94.5259 424.294 95.8246 423.313 97.2557 422.562C99.883 421.217 102.855 420.696 105.783 421.066C106.336 421.141 106.845 421.156 107.279 421.26L108.386 421.545C108.699 421.6 109.005 421.691 109.298 421.814Z" fill="#263238"/>
<path d="M121.431 384.204L120.967 384.489L119.621 385.222C118.454 385.85 116.778 386.718 114.729 387.989C112.679 389.261 110.241 390.712 107.743 392.477C104.953 394.424 102.34 396.611 99.9335 399.015C98.6886 400.24 97.6165 401.629 96.747 403.144C95.9541 404.64 95.251 406.136 94.503 407.527C93.258 410.012 92.1395 412.558 91.152 415.157C90.4956 416.916 89.951 418.714 89.5213 420.542C89.2072 421.829 89.1025 422.547 89.0576 422.547C89.0378 422.368 89.0378 422.187 89.0576 422.008C89.0576 421.664 89.1773 421.156 89.3119 420.512C89.6792 418.668 90.1792 416.854 90.8079 415.082C91.7748 412.468 92.8886 409.911 94.144 407.422C94.8321 406.001 95.64 404.535 96.373 403.009C97.2594 401.458 98.3514 400.034 99.6193 398.775C102.047 396.356 104.685 394.158 107.503 392.208C110.091 390.398 112.515 388.917 114.579 387.72C116.644 386.523 118.349 385.655 119.546 385.072L120.937 384.414C121.093 384.324 121.258 384.253 121.431 384.204Z" fill="#263238"/>
<path d="M87.6065 420.737C87.4873 420.408 87.407 420.067 87.3671 419.719L86.8435 416.922C85.7099 410.789 83.7839 404.83 81.1138 399.194L79.932 396.621C79.7776 396.308 79.6476 395.982 79.543 395.649C79.7619 395.923 79.943 396.224 80.0816 396.546C80.4107 397.13 80.8595 398.042 81.3831 399.06C82.7934 401.857 83.9887 404.758 84.9586 407.736C85.9149 410.724 86.645 413.78 87.1427 416.877C87.3222 418.059 87.4569 419.016 87.5317 419.69C87.5935 420.035 87.6186 420.386 87.6065 420.737Z" fill="#263238"/>
<path d="M86.664 393.285C86.2901 388.719 84.9544 384.283 82.7445 380.27C79.7696 374.738 75.6188 369.925 70.584 366.17C65.5493 362.414 59.7528 359.808 53.6024 358.533L80.5304 398.745L84.0161 405.911C86.2289 402.095 87.1571 397.669 86.664 393.285Z" fill="#455A64"/>
<path d="M125.425 472.528H62.6981V483.644H125.425V472.528Z" fill="#B20937"/>
<path d="M67.3806 481.444L72.7213 515.942H114.37L120.743 481.444H67.3806Z" fill="#B20937"/>
<path d="M125.395 483.658C125.395 483.778 111.243 483.883 93.7999 483.883C76.3566 483.883 62.1895 483.778 62.1895 483.658C62.1895 483.539 76.3416 483.434 93.7999 483.434C111.258 483.434 125.395 483.539 125.395 483.658Z" fill="#263238"/>
<path d="M886.022 227.842C886.022 227.842 875.4 227.513 869.431 233.677L878.048 249.131L894.414 245.854L895.91 240.678L898.528 230.849L886.022 227.842Z" fill="#FFBF9D"/>
<path d="M778.325 214.349C778.325 214.349 783.501 217.64 784.802 221.185C786.104 224.731 815.755 245.839 815.755 245.839L819.749 244.762L867.456 230.131L879.424 251.674L820.377 273.844C818.657 274.218 776.694 260.545 776.694 260.545L778.325 214.349Z" fill="#455A64"/>
<path d="M891.692 263.791L855.369 252.212L840.409 299.052L790.053 283L805.013 236.145L684.884 197.833L695.955 163.096L846.243 55.1442L900.488 72.408L760.118 175.482L819.958 194.601L833.273 152.848L882.042 168.391L868.728 210.145L905.051 221.724L891.692 263.791Z" fill="#B20937"/>
<g opacity="0.3">
<path d="M891.692 263.791L855.369 252.212L840.409 299.052L790.053 283L805.013 236.145L684.884 197.833L695.955 163.096L846.243 55.1442L900.488 72.408L760.118 175.482L819.958 194.601L833.273 152.848L882.042 168.391L868.728 210.145L905.051 221.724L891.692 263.791Z" fill="black"/>
</g>
<path d="M877.958 259.602L841.62 248.023L826.66 294.863L776.32 278.856L791.28 232.001L671.136 193.584L682.222 158.847L832.495 50.8955L886.68 68.1743L746.4 171.294L806.24 190.398L819.554 148.659L868.309 164.203L854.995 205.956L891.377 217.52L877.958 259.602Z" fill="#B20937"/>
<g opacity="0.3">
<path d="M783.606 229.488L783.127 214.842L784.354 207.631C784.354 207.631 798.192 208.02 801.139 202.994C803.325 198.862 805.133 194.541 806.539 190.083L789.32 186.104L776.694 205.836L772.879 215.5L778.863 228.127L783.606 229.488Z" fill="black"/>
</g>
<path d="M760.642 167.494C760.801 161.684 761.456 155.898 762.602 150.2C763.765 144.464 766.335 139.108 770.082 134.612C770.665 133.953 775.108 129.705 775.901 130.124C776.47 130.408 773.104 134.612 773.193 135.285C773.953 141.3 772.868 147.404 770.082 152.788C767.494 158.037 764.333 162.984 760.657 167.539" fill="#263238"/>
<path d="M779.536 209.337C781.047 205.552 782.304 202.56 782.304 202.56C782.304 202.56 795.992 206.285 801.872 193.584C804.699 187.45 809.516 174.331 813.75 162.407C815.939 156.222 815.721 149.439 813.137 143.407C810.554 137.376 805.795 132.537 799.807 129.854L798.566 129.301C784.922 124.125 772.894 132.831 768.092 146.625L749.781 194.317L754.793 208.903C755.668 211.461 757.309 213.687 759.492 215.281C761.676 216.874 764.297 217.758 766.999 217.812C769.702 217.866 772.356 217.087 774.601 215.582C776.846 214.077 778.575 211.917 779.551 209.397L779.536 209.337Z" fill="#FFBF9D"/>
<path d="M782.304 202.56C776.406 199.899 771.391 195.606 767.853 190.188C767.853 190.188 767.763 201.303 781.032 205.851L782.304 202.56Z" fill="#FF9A6C"/>
<path d="M801.303 171.548C801.096 172.024 800.71 172.399 800.23 172.595C799.749 172.791 799.211 172.791 798.73 172.595C798.488 172.512 798.266 172.381 798.076 172.209C797.887 172.038 797.733 171.83 797.626 171.598C797.518 171.367 797.459 171.115 797.45 170.86C797.442 170.604 797.486 170.35 797.578 170.112C797.786 169.632 798.173 169.253 798.656 169.055C799.14 168.856 799.681 168.854 800.166 169.05C800.407 169.136 800.628 169.27 800.816 169.443C801.005 169.616 801.156 169.826 801.262 170.059C801.368 170.292 801.426 170.543 801.433 170.799C801.44 171.055 801.396 171.309 801.303 171.548Z" fill="#263238"/>
<path d="M808.634 166.417C808.289 166.551 807.362 164.921 805.402 164.038C803.442 163.155 801.558 163.499 801.453 163.155C801.348 162.811 801.812 162.677 802.65 162.512C803.761 162.304 804.909 162.44 805.941 162.901C806.965 163.359 807.818 164.129 808.379 165.1C808.768 165.833 808.783 166.357 808.634 166.417Z" fill="#263238"/>
<path d="M784.698 164.831C784.49 165.306 784.105 165.682 783.624 165.878C783.143 166.073 782.605 166.074 782.124 165.878C781.883 165.795 781.66 165.663 781.471 165.492C781.281 165.321 781.128 165.113 781.02 164.881C780.913 164.65 780.853 164.398 780.845 164.143C780.837 163.887 780.88 163.633 780.973 163.395C781.18 162.915 781.567 162.536 782.051 162.337C782.534 162.139 783.076 162.137 783.561 162.333C783.801 162.419 784.023 162.553 784.211 162.726C784.399 162.899 784.551 163.109 784.657 163.342C784.763 163.575 784.821 163.826 784.828 164.082C784.835 164.338 784.791 164.592 784.698 164.831Z" fill="#263238"/>
<path d="M790.023 158.922C789.694 159.056 788.767 157.426 786.792 156.543C784.817 155.66 782.947 156.004 782.843 155.675C782.738 155.346 783.202 155.182 784.039 155.017C785.152 154.807 786.302 154.948 787.331 155.421C788.37 155.89 789.231 156.682 789.784 157.68C790.173 158.338 790.173 158.862 790.023 158.922Z" fill="#263238"/>
<path d="M789.32 176.844C790.496 176.995 791.651 177.281 792.761 177.696C793.285 177.876 793.808 177.981 794.048 177.696C794.324 177.2 794.439 176.63 794.377 176.066C794.377 174.57 794.526 173.149 794.601 171.578C794.975 165.22 795.484 160.074 795.738 160.089C795.992 160.103 795.903 165.28 795.529 171.638C795.424 173.208 795.334 174.63 795.229 176.126C795.273 176.869 795.056 177.604 794.616 178.205C794.464 178.348 794.281 178.455 794.082 178.518C793.882 178.58 793.671 178.596 793.464 178.564C793.151 178.516 792.844 178.431 792.552 178.31C791.416 177.961 790.331 177.468 789.32 176.844Z" fill="#263238"/>
<path d="M792.776 152.22C792.267 152.594 790.637 151.172 788.363 150.02C786.089 148.868 784.024 148.3 784.024 147.687C784.024 147.387 784.653 147.133 785.655 147.118C786.955 147.138 788.232 147.466 789.38 148.076C790.561 148.66 791.586 149.516 792.372 150.574C792.911 151.397 793.045 152.04 792.776 152.22Z" fill="#263238"/>
<path d="M811.117 159.281C810.578 159.565 809.426 158.503 807.811 157.785C806.195 157.067 804.669 156.737 804.564 156.124C804.564 155.84 804.938 155.481 805.731 155.331C806.754 155.19 807.796 155.356 808.723 155.81C809.671 156.258 810.455 156.99 810.967 157.904C811.386 158.578 811.371 159.176 811.117 159.281Z" fill="#263238"/>
<path d="M764.891 156.498C764.711 156.304 757.261 149.961 753.626 158.832C749.99 167.703 759.61 169.513 759.774 169.304C759.939 169.095 764.891 156.498 764.891 156.498Z" fill="#FFBF9D"/>
<path d="M758.443 164.801C758.443 164.801 758.233 164.801 757.934 164.801C757.502 164.809 757.083 164.648 756.767 164.352C756.345 163.753 756.088 163.053 756.023 162.323C755.957 161.593 756.085 160.858 756.393 160.193C756.688 159.425 757.147 158.73 757.74 158.159C757.934 157.914 758.186 157.722 758.474 157.599C758.761 157.477 759.074 157.427 759.385 157.456C759.583 157.477 759.765 157.569 759.9 157.715C760.035 157.861 760.112 158.05 760.118 158.248C760.118 158.548 760.014 158.697 760.118 158.727C760.223 158.757 760.373 158.727 760.447 158.263C760.484 158.027 760.442 157.785 760.328 157.575C760.158 157.29 759.885 157.081 759.565 156.992C759.17 156.917 758.762 156.944 758.38 157.069C757.998 157.195 757.654 157.415 757.381 157.71C756.706 158.324 756.192 159.095 755.885 159.954C755.52 160.726 755.389 161.588 755.508 162.433C755.628 163.279 755.993 164.071 756.558 164.711C756.766 164.876 757.008 164.993 757.267 165.053C757.526 165.112 757.795 165.113 758.054 165.055C758.368 165.01 758.458 164.831 758.443 164.801Z" fill="#FF9A6C"/>
<path d="M813.87 145.293C815.62 145.069 813.166 138.681 810.264 135.659C805.881 131.096 798.296 126.339 792.821 125.77C786.209 125.082 780.105 126.055 774.959 130.258C769.892 134.619 766.072 140.246 763.888 146.565C763.055 148.442 762.74 150.508 762.976 152.549C763.439 155.002 765.324 157.201 764.128 159.879C763.9 160.358 763.77 160.876 763.745 161.405C763.719 161.934 763.798 162.463 763.978 162.961C764.906 165.34 767.553 164.457 769.124 163.245C772.46 160.537 774.345 156.468 776.111 152.534C777.517 149.814 778.472 146.883 778.938 143.857C779.088 142.196 778.938 140.521 779.192 138.875C779.27 138.043 779.525 137.237 779.941 136.512C780.356 135.787 780.922 135.16 781.601 134.672C781.927 134.498 782.267 134.353 782.618 134.238C784.291 133.646 786.092 133.512 787.833 133.852C789.575 134.191 791.194 134.991 792.522 136.168C796.83 139.937 804.325 145.996 807.242 145.144C809.257 144.731 811.164 143.901 812.837 142.705L813.87 145.293Z" fill="#263238"/>
<path d="M789.59 183.875C789.59 184.04 789.081 184.204 788.258 184.084C787.184 183.907 786.185 183.418 785.386 182.678C784.584 181.944 784.013 180.993 783.74 179.941C783.561 179.133 783.74 178.609 783.845 178.594C783.95 178.579 784.698 180.3 786.283 181.706C787.869 183.112 789.604 183.501 789.59 183.875Z" fill="#263238"/>
<path d="M793.778 106.921C792.173 110.154 790.338 113.269 788.288 116.241C786.455 119.347 784.4 122.317 782.139 125.127C783.743 121.897 785.578 118.787 787.63 115.822C789.473 112.717 791.527 109.743 793.778 106.921Z" fill="#FF9A6C"/>
<path d="M754.942 382.723L782.768 409.143C782.768 409.143 769.304 499.336 771.667 499.501L804.909 501.865C804.909 501.865 824.955 397.474 823.444 391.355C821.933 385.236 773.328 337.08 773.328 337.08L772.73 328.807L758.907 326.967L754.942 382.723Z" fill="#263238"/>
<path d="M702.657 346.61C705.35 352.699 709.838 359.924 710.765 365.983L727.715 427.678L667.351 500.982L694.279 523.557C694.279 523.557 767 445.076 769.528 435.412C771.548 427.708 763.424 350.14 763.424 350.14L766.087 328L703.255 313.04V313.144C700.728 318.343 699.365 324.031 699.262 329.811C699.159 335.591 700.317 341.324 702.657 346.61Z" fill="#263238"/>
<path d="M708.312 502.912L688.864 525.352C688.864 525.352 703.899 551.786 700.682 556.274L658.181 521.866L687.173 485.663L708.312 502.912Z" fill="#263238"/>
<path d="M677.27 512.8C676.736 512.604 676.149 512.608 675.618 512.812C675.087 513.015 674.648 513.405 674.383 513.907C674.13 514.408 674.083 514.988 674.254 515.523C674.425 516.057 674.799 516.503 675.295 516.765C675.855 516.948 676.461 516.928 677.008 516.709C677.555 516.49 678.008 516.087 678.287 515.568C678.39 515.296 678.438 515.006 678.428 514.716C678.418 514.425 678.35 514.14 678.229 513.875C678.108 513.611 677.936 513.373 677.723 513.176C677.509 512.979 677.259 512.826 676.986 512.726" fill="#E0E0E0"/>
<path d="M658.136 521.851L661.128 518.321L700.727 552.729C700.727 552.729 701.924 555.137 700.578 556.364L658.136 521.851Z" fill="#455A64"/>
<path d="M689.717 525.696C689.522 525.905 688.415 525.172 686.814 525.038C685.214 524.903 683.942 525.397 683.822 525.157C683.703 524.918 685.034 523.901 686.949 524.08C688.864 524.26 689.911 525.561 689.717 525.696Z" fill="white"/>
<path d="M692.544 531.291C692.424 531.545 691.228 531.186 689.776 531.545C688.325 531.904 687.323 532.712 687.114 532.533C686.904 532.353 687.787 531.037 689.612 530.603C691.437 530.169 692.753 531.082 692.544 531.291Z" fill="white"/>
<path d="M690.569 538.98C690.345 538.876 690.943 537.484 692.439 536.766C693.935 536.048 695.297 536.318 695.237 536.572C695.177 536.826 694.07 536.976 692.843 537.619C691.617 538.262 690.794 539.16 690.569 538.98Z" fill="white"/>
<path d="M693.606 520.131C693.367 520.266 692.664 519.188 691.422 518.321C690.18 517.453 688.939 517.109 688.984 516.825C689.028 516.541 690.48 516.481 691.976 517.528C693.472 518.575 693.86 520.041 693.606 520.131Z" fill="white"/>
<path d="M803.607 483.643L803.248 513.937C803.248 513.937 832.315 524.619 832.764 530.229L777.053 531.366L775.796 484.137L803.607 483.643Z" fill="#263238"/>
<path d="M785.954 511.738C785.414 511.944 784.966 512.336 784.692 512.844C784.417 513.352 784.334 513.942 784.458 514.506C784.597 515.061 784.946 515.54 785.432 515.842C785.918 516.143 786.502 516.244 787.061 516.122C787.649 515.907 788.136 515.483 788.429 514.93C788.722 514.378 788.8 513.736 788.647 513.13C788.55 512.85 788.398 512.592 788.201 512.372C788.003 512.151 787.764 511.971 787.497 511.843C787.23 511.716 786.941 511.642 786.645 511.626C786.349 511.611 786.054 511.654 785.775 511.753" fill="#E0E0E0"/>
<path d="M777.038 531.366V526.594L830.43 527.282C830.43 527.282 832.944 528.374 832.704 530.274L777.038 531.366Z" fill="#455A64"/>
<path d="M804.131 513.623C804.131 513.908 802.769 514.057 801.453 515.015C800.136 515.972 799.448 517.184 799.194 517.079C798.939 516.974 799.314 515.299 800.929 514.177C802.545 513.055 804.176 513.354 804.131 513.623Z" fill="white"/>
<path d="M810.025 516.047C810.1 516.331 808.933 516.84 808.035 518.066C807.138 519.293 806.898 520.595 806.539 520.58C806.18 520.565 806.06 518.964 807.212 517.453C808.364 515.942 810.01 515.778 810.025 516.047Z" fill="white"/>
<path d="M813.511 523.362C813.256 523.362 812.852 522.001 813.511 520.37C814.169 518.74 815.44 518.126 815.56 518.366C815.68 518.605 814.902 519.458 814.378 520.774C813.855 522.091 813.72 523.317 813.511 523.362Z" fill="white"/>
<path d="M803.487 506.697C803.383 506.966 802.126 506.592 800.585 506.697C799.044 506.801 797.862 507.37 797.713 507.131C797.563 506.891 798.7 505.829 800.51 505.635C802.32 505.44 803.607 506.472 803.487 506.697Z" fill="white"/>
<path d="M763.873 344.994C763.946 345.259 763.996 345.529 764.023 345.802C764.098 346.415 764.187 347.178 764.307 348.121C764.546 350.125 764.846 353.043 765.19 356.648C765.878 363.859 766.686 373.837 767.419 384.878C768.152 395.918 768.72 405.822 769.184 413.122C769.379 416.653 769.543 419.555 769.663 421.694L769.753 424.028C769.789 424.296 769.789 424.568 769.753 424.836C769.669 424.574 769.624 424.302 769.618 424.028C769.618 423.414 769.468 422.652 769.364 421.709C769.184 419.585 768.945 416.682 768.645 413.167C768.077 405.941 767.404 395.948 766.656 384.922C765.908 373.897 765.16 363.978 764.666 356.693C764.397 353.177 764.187 350.275 764.023 348.151C764.023 347.208 763.918 346.43 763.873 345.817C763.837 345.544 763.837 345.267 763.873 344.994Z" fill="#455A64"/>
<path d="M910.96 227.124C912.142 229.368 907.504 231.388 907.504 231.388C908.581 232.271 907.504 236.085 905.619 236.25C906.412 236.863 906.981 236.923 907.34 237.866C907.528 238.332 907.605 238.836 907.564 239.338C907.522 239.839 907.363 240.324 907.1 240.753C906.819 241.169 906.41 241.482 905.935 241.644C905.459 241.806 904.944 241.808 904.467 241.65C904.947 242.26 905.231 243.001 905.282 243.776C905.332 244.55 905.148 245.322 904.752 245.989C904.254 246.778 903.481 247.354 902.582 247.605C902.135 247.731 901.669 247.777 901.206 247.739C901.028 247.746 900.851 247.72 900.683 247.664L900.488 247.515C900.234 247.231 900.024 246.916 899.755 246.662L899.426 246.378C898.914 245.975 898.351 245.643 897.75 245.39C897.452 245.306 897.162 245.195 896.883 245.061C896.732 244.933 896.592 244.793 896.464 244.642C895.412 243.908 894.22 243.399 892.963 243.146C891.588 242.839 890.328 242.149 889.328 241.157C888.859 240.639 888.61 239.96 888.632 239.263C888.654 238.565 888.947 237.903 889.448 237.417C889.001 237.336 888.601 237.093 888.324 236.733C888.047 236.374 887.915 235.924 887.952 235.472C888.007 235.03 888.173 234.609 888.435 234.248C888.696 233.887 889.045 233.598 889.448 233.408C890.266 233.035 891.172 232.895 892.066 233.004C891.576 232.821 891.175 232.456 890.949 231.984C890.723 231.512 890.689 230.972 890.854 230.475C891.046 229.985 891.359 229.553 891.765 229.218C892.171 228.882 892.655 228.656 893.173 228.56C894.206 228.376 895.268 228.417 896.284 228.68C897.302 228.905 901.565 229.787 902.612 229.862L903.675 227.094L903.824 226.735C905.724 226.496 906.278 226.331 907.968 226.227C909.21 226.107 910.421 226.197 910.96 227.124Z" fill="#FFBF9D"/>
<path d="M900.742 251.434C900.652 251.857 900.472 252.254 900.214 252.6C899.956 252.946 899.626 253.233 899.246 253.439C897.982 253.661 896.68 253.484 895.521 252.93L896.239 250.043L896.419 249.325C896.224 248.682 895.013 248.397 894.489 247.978C894.051 247.587 893.782 247.041 893.737 246.456C893.692 245.87 893.876 245.29 894.25 244.837C894.642 244.398 895.153 244.081 895.721 243.925C896.288 243.768 896.889 243.779 897.451 243.954C898.574 244.329 899.518 245.107 900.099 246.138C900.566 246.929 900.865 247.807 900.976 248.719C901.086 249.63 901.007 250.555 900.742 251.434Z" fill="#FFBF9D"/>
<path d="M904.737 241.74C902.309 240.636 899.778 239.775 897.182 239.167C894.65 238.309 892.039 237.708 889.388 237.372C891.817 238.485 894.353 239.347 896.957 239.945C899.481 240.812 902.088 241.414 904.737 241.74Z" fill="#FF9A6C"/>
<path d="M905.799 236.295C903.672 235.108 901.369 234.269 898.977 233.811C896.654 233.092 894.227 232.764 891.796 232.839C894.088 233.566 896.421 234.155 898.783 234.604C901.084 235.314 903.427 235.879 905.799 236.295Z" fill="#FF9A6C"/>
<path d="M906.831 230.984C905.06 230.027 903.128 229.403 901.131 229.144C899.18 228.615 897.169 228.338 895.147 228.321C896.981 229.13 898.92 229.674 900.907 229.937C902.845 230.467 904.828 230.818 906.831 230.984Z" fill="#FF9A6C"/>
<path d="M900.772 249.624C900.862 249.624 901.161 249.16 901.071 248.248C900.897 247.094 900.28 246.052 899.351 245.346C898.465 244.629 897.449 244.091 896.359 243.76C895.402 243.535 894.863 244.119 895.013 244.179C895.162 244.239 895.521 244.014 896.195 244.313C897.112 244.777 897.979 245.334 898.783 245.974C899.575 246.573 900.161 247.405 900.458 248.353C900.727 249.086 900.638 249.594 900.772 249.624Z" fill="#FF9A6C"/>
<path d="M776.23 276.253C776.205 275.507 776.25 274.761 776.365 274.024C776.515 272.528 776.709 270.419 776.933 268.04C777.412 262.939 777.966 255.877 778.28 248.068C778.594 240.259 778.579 233.108 778.519 228.052C778.519 225.598 778.444 223.564 778.414 221.978C778.357 221.236 778.357 220.491 778.414 219.749C778.575 220.476 778.66 221.218 778.669 221.963C778.788 223.459 778.908 225.464 779.013 228.037C779.237 233.168 779.312 240.259 779.013 248.098C778.714 255.937 778.055 263.058 777.442 268.085C777.128 270.643 776.844 272.692 776.619 274.069C776.561 274.808 776.431 275.539 776.23 276.253Z" fill="#263238"/>
<path d="M753.012 185.057C751.651 185.82 726.204 198.251 720.803 204.325C715.403 210.399 707.13 249.385 707.13 249.385L701.056 283.897L696.314 335.15L775.826 336.048C778.968 329.032 776.918 321.746 773.208 314.386L779.387 233.303L778.325 214.348L753.012 185.057Z" fill="#455A64"/>
<path d="M718.844 226.361C718.844 226.361 705.484 220.662 704.123 212.194C702.762 203.727 704.422 201.483 706.651 197.907C708.88 194.332 749.527 151.023 749.527 151.023L769.379 167.344L740.7 201.064C740.7 201.064 744.934 201.707 743.528 207.048" fill="#455A64"/>
<path d="M743.528 207.123C743.628 206.489 743.693 205.849 743.722 205.208C743.742 204.433 743.55 203.668 743.169 202.994C742.896 202.548 742.532 202.165 742.102 201.869C741.671 201.573 741.184 201.37 740.67 201.273H740.401L740.581 201.064L769.109 167.15V167.658L749.242 151.352H749.766L742.286 159.43L718.799 184.608C715.223 188.527 711.813 192.238 708.731 195.798C707.967 196.646 707.262 197.546 706.621 198.491C706.018 199.418 705.474 200.383 704.991 201.378C704.172 203.262 703.804 205.311 703.914 207.362C703.944 209.25 704.17 211.13 704.587 212.972C705.016 214.59 705.792 216.096 706.861 217.385C708.563 219.489 710.582 221.316 712.845 222.801C714.264 223.771 715.738 224.66 717.258 225.464L718.44 226.092C718.582 226.152 718.718 226.227 718.844 226.316C718.692 226.289 718.546 226.239 718.41 226.167L717.183 225.613C715.634 224.858 714.135 224.003 712.695 223.055C710.372 221.587 708.292 219.765 706.532 217.655C705.42 216.346 704.599 214.816 704.123 213.167C703.675 211.288 703.424 209.368 703.375 207.437C703.251 205.291 703.625 203.146 704.467 201.169C705.439 199.078 706.715 197.142 708.252 195.424C711.334 191.834 714.715 188.109 718.29 184.174C725.426 176.335 733.355 167.718 741.703 158.832L749.183 150.768L749.437 150.499L749.706 150.739L769.543 167.075L769.827 167.314L769.588 167.583L740.76 201.243L740.655 200.989C741.21 201.096 741.734 201.321 742.194 201.649C742.653 201.977 743.037 202.4 743.318 202.889C743.696 203.607 743.871 204.413 743.827 205.223C743.815 205.728 743.744 206.23 743.617 206.719C743.602 206.856 743.572 206.992 743.528 207.123Z" fill="#263238"/>
<path d="M752.205 116.241C752.205 116.241 749.871 114.401 749.392 118.305C748.913 122.21 752.638 137.753 753.087 137.753C753.536 137.753 755.84 146.729 755.481 147.956C755.122 149.183 751.726 152.893 751.726 152.893L767.553 165.893L772.445 157.067C776.173 155.602 779.395 153.087 781.721 149.826C785.296 144.575 798.85 124.603 799.239 121.806C799.628 119.008 796.8 118.634 794.751 121.312C792.701 123.99 787.944 130.288 787.091 130.692C786.239 131.096 785.73 129.884 786.194 129.196C786.657 128.508 795.559 114.236 796.396 111.573C797.518 108.058 793.704 107.325 793.704 107.325C793.704 107.325 795.035 103.615 793.075 102.911C791.115 102.208 789.201 104.108 787.091 107.265C784.982 110.421 777.816 120.729 777.068 121.208C776.32 121.686 775.737 121.208 776.395 119.801C777.053 118.395 785.745 105.769 785.715 103.989C785.685 102.208 784.383 99.3959 780.673 103.151C776.963 106.906 768.705 122.599 767.434 123.945C766.162 125.292 762.407 129.585 760.956 129.121C759.505 128.658 756.049 124.125 755.286 120.923C754.878 119.033 753.779 117.363 752.205 116.241Z" fill="#FFBF9D"/>
<path d="M752.204 116.241C752.785 116.615 753.292 117.091 753.7 117.647C754.236 118.318 754.66 119.071 754.957 119.876C755.152 120.355 755.256 120.893 755.436 121.372C755.636 121.951 755.876 122.516 756.154 123.063C756.811 124.358 757.609 125.577 758.533 126.698C759.49 127.775 760.881 129.824 762.482 128.194C764.042 126.942 765.484 125.55 766.79 124.035C767.502 123.214 768.119 122.315 768.631 121.357L770.396 118.365C772.804 114.236 775.348 109.628 778.624 104.901C779.45 103.673 780.459 102.579 781.616 101.655C782.254 101.136 783.052 100.85 783.875 100.847C784.305 100.926 784.703 101.128 785.021 101.428C785.34 101.728 785.565 102.113 785.67 102.537C785.795 102.93 785.871 103.337 785.894 103.749C785.876 103.977 785.836 104.202 785.775 104.422L785.55 104.991C785.221 105.709 784.847 106.397 784.473 107.1C783.695 108.477 782.857 109.823 782.005 111.199L776.694 119.577C776.492 119.881 776.368 120.23 776.335 120.594C776.335 120.759 776.335 120.804 776.425 120.819C776.474 120.84 776.528 120.852 776.582 120.852C776.636 120.852 776.689 120.84 776.739 120.819L776.888 120.669L777.098 120.43C777.233 120.28 777.352 120.1 777.487 119.936L778.265 118.919C779.297 117.512 780.329 116.091 781.347 114.64L787.57 105.664C788.134 104.897 788.77 104.185 789.47 103.54C790.195 102.798 791.172 102.355 792.208 102.298C792.759 102.296 793.292 102.498 793.704 102.867C794.094 103.269 794.323 103.802 794.347 104.363C794.41 105.379 794.262 106.398 793.913 107.355L793.629 106.846C794.265 106.952 794.867 107.207 795.387 107.589C795.907 107.971 796.329 108.47 796.621 109.045C796.816 109.649 796.877 110.289 796.799 110.92C796.722 111.55 796.508 112.156 796.172 112.695C795.125 114.835 793.928 116.854 792.731 118.919L789.021 125.097L787.106 128.209L786.612 128.972L786.388 129.346C786.33 129.429 786.298 129.528 786.298 129.63C786.284 129.724 786.292 129.82 786.32 129.911C786.349 130.001 786.398 130.084 786.463 130.154C786.52 130.201 786.591 130.227 786.665 130.227C786.739 130.227 786.81 130.201 786.867 130.154C787.111 129.96 787.336 129.745 787.54 129.51L788.243 128.717L789.604 127.057C790.472 125.92 791.355 124.798 792.222 123.676C793.09 122.554 793.868 121.417 794.885 120.295C795.417 119.736 796.081 119.32 796.815 119.083C797.218 118.928 797.66 118.906 798.077 119.019C798.494 119.132 798.864 119.374 799.134 119.711C799.352 120.052 799.492 120.436 799.544 120.837C799.595 121.238 799.558 121.646 799.433 122.03C799.331 122.386 799.196 122.732 799.029 123.063C798.88 123.392 798.73 123.721 798.566 124.02C797.922 125.262 797.219 126.458 796.501 127.625C795.095 129.974 793.629 132.278 792.178 134.522C789.265 139.02 786.373 143.368 783.501 147.567C782.783 148.614 782.124 149.661 781.347 150.679C780.565 151.674 779.694 152.595 778.744 153.431C776.877 155.045 774.753 156.334 772.46 157.246L772.655 157.082L767.748 165.893L767.553 166.237L767.254 165.998L751.471 152.953L751.232 152.773L751.442 152.549C752.498 151.424 753.497 150.245 754.434 149.018C754.647 148.722 754.842 148.412 755.017 148.091C755.183 147.812 755.247 147.484 755.196 147.163C755.136 146.45 755.036 145.741 754.897 145.039C754.628 143.633 754.314 142.286 753.97 140.985C753.805 140.341 753.626 139.698 753.431 139.085C753.322 138.776 753.217 138.476 753.117 138.187C753.117 138.052 752.982 137.888 752.938 137.813C752.938 137.813 753.147 137.813 753.012 137.813C752.924 137.795 752.845 137.748 752.788 137.678L752.683 137.424C751.983 135.172 751.399 132.885 750.933 130.572C750.484 128.463 750.11 126.518 749.826 124.753C749.302 121.282 748.853 118.395 749.736 116.615C749.822 116.418 749.947 116.24 750.104 116.094C750.261 115.947 750.446 115.834 750.649 115.762C750.945 115.667 751.264 115.667 751.561 115.762C751.794 115.843 752.007 115.97 752.19 116.136C752.19 116.136 751.98 115.986 751.531 115.837C751.258 115.757 750.967 115.757 750.694 115.837C750.507 115.905 750.336 116.012 750.195 116.152C750.053 116.291 749.942 116.459 749.871 116.645C749.078 118.35 749.557 121.133 750.125 124.663C750.867 128.904 751.866 133.096 753.117 137.215C753.141 137.277 753.171 137.338 753.207 137.394C753.207 137.394 753.072 137.394 753.072 137.484C753.072 137.574 753.072 137.738 753.072 137.349H753.222V137.424C753.321 137.576 753.406 137.736 753.476 137.903C753.596 138.217 753.7 138.531 753.805 138.845C754 139.474 754.194 140.102 754.374 140.76C754.718 142.062 755.047 143.423 755.331 144.844C755.484 145.565 755.589 146.294 755.645 147.028C755.66 147.228 755.66 147.428 755.645 147.627C755.603 147.837 755.527 148.039 755.421 148.225C755.243 148.57 755.038 148.9 754.808 149.213C753.883 150.473 752.883 151.677 751.816 152.818V152.414L767.673 165.384L767.179 165.474C768.675 162.632 770.366 159.685 772.056 156.648V156.543H772.176C774.364 155.649 776.386 154.395 778.16 152.833C779.071 152.032 779.902 151.145 780.643 150.185C781.376 149.228 782.139 148.135 782.783 147.088C785.625 142.899 788.527 138.546 791.43 134.058C792.886 131.804 794.317 129.51 795.723 127.177C796.426 126.01 797.129 124.813 797.758 123.601C797.922 123.302 798.072 123.003 798.206 122.689C798.356 122.402 798.476 122.101 798.566 121.791C798.662 121.513 798.696 121.218 798.665 120.926C798.634 120.633 798.539 120.351 798.386 120.1C798.205 119.892 797.963 119.746 797.694 119.684C797.425 119.623 797.144 119.648 796.89 119.756C796.283 119.962 795.738 120.317 795.304 120.789C794.422 121.761 793.569 122.988 792.701 124.08C791.834 125.172 790.951 126.339 790.068 127.476C789.619 128.044 789.171 128.598 788.707 129.151L787.974 129.989C787.707 130.298 787.4 130.569 787.061 130.797C786.853 130.905 786.615 130.943 786.383 130.905C786.152 130.867 785.938 130.756 785.775 130.587C785.633 130.433 785.525 130.251 785.458 130.053C785.391 129.854 785.366 129.644 785.386 129.435C785.399 129.225 785.461 129.02 785.565 128.837L785.82 128.433L786.313 127.67L788.438 124.768C789.694 122.703 790.921 120.639 792.148 118.604C793.374 116.57 794.541 114.505 795.559 112.441C795.847 112.005 796.036 111.511 796.114 110.995C796.191 110.478 796.155 109.95 796.007 109.449C795.765 108.993 795.422 108.599 795.005 108.296C794.588 107.992 794.107 107.788 793.599 107.699L793.18 107.609L793.315 107.205C793.623 106.358 793.761 105.458 793.718 104.557C793.705 104.17 793.557 103.799 793.3 103.51C793.008 103.274 792.643 103.147 792.267 103.151C791.418 103.22 790.622 103.592 790.023 104.198C789.358 104.813 788.752 105.489 788.213 106.218L781.99 115.194C780.973 116.69 779.94 118.081 778.893 119.487L778.1 120.519L777.681 121.043L777.472 121.297L777.143 121.581C777.006 121.668 776.851 121.721 776.69 121.737C776.529 121.753 776.366 121.73 776.215 121.671C776.058 121.596 775.927 121.477 775.837 121.328C775.746 121.179 775.701 121.007 775.707 120.833C775.728 120.345 775.877 119.87 776.14 119.457C777.951 116.465 779.806 113.802 781.511 111.065C782.364 109.688 783.202 108.342 783.965 106.981C784.339 106.307 784.713 105.634 785.027 104.946L785.236 104.437C785.251 104.288 785.251 104.138 785.236 103.989C785.229 103.632 785.168 103.28 785.057 102.941C784.994 102.63 784.841 102.344 784.618 102.118C784.395 101.892 784.111 101.736 783.8 101.67C783.127 101.685 782.478 101.928 781.96 102.358C780.893 103.208 779.951 104.206 779.162 105.32C775.886 109.928 773.313 114.52 770.875 118.634C770.261 119.652 769.678 120.654 769.094 121.626C768.557 122.605 767.915 123.523 767.179 124.364C765.837 125.886 764.36 127.283 762.766 128.538C762.38 128.833 761.945 129.056 761.48 129.196C761.227 129.278 760.955 129.278 760.702 129.196C760.492 129.094 760.292 128.974 760.103 128.837C759.451 128.288 758.859 127.671 758.338 126.997C757.42 125.843 756.627 124.594 755.974 123.272C755.701 122.71 755.466 122.13 755.271 121.537C755.107 120.968 755.002 120.445 754.822 120.041C754.554 119.242 754.155 118.494 753.641 117.827C753.335 117.405 752.984 117.019 752.593 116.675C752.451 116.542 752.321 116.397 752.204 116.241Z" fill="#FF9A6C"/>
<path d="M740.775 201.214C738.673 205.204 736.063 208.905 733.011 212.224C729.911 215.564 725.662 217.605 721.118 217.939" fill="#455A64"/>
<path d="M721.118 217.939C721.118 217.789 722.614 217.789 724.917 216.996C727.873 215.93 730.544 214.2 732.727 211.94C734.914 209.657 736.854 207.15 738.516 204.46C739.178 203.313 739.934 202.222 740.775 201.199C740.317 202.444 739.72 203.633 738.995 204.744C737.435 207.56 735.514 210.16 733.28 212.478C731.016 214.823 728.196 216.557 725.082 217.52C724.14 217.786 723.172 217.946 722.195 217.999C721.835 218.048 721.47 218.027 721.118 217.939Z" fill="#263238"/>
<path d="M742.331 212.748C741.76 213.851 741.023 214.86 740.147 215.74C736.134 220.186 730.949 223.412 725.187 225.045C724.015 225.444 722.789 225.656 721.551 225.673C729.643 223.574 736.908 219.073 742.391 212.763L742.331 212.748Z" fill="#263238"/>
<g opacity="0.3">
<path d="M721.671 217.221C725.411 218.582 728.972 219.091 732.577 217.43C736.227 215.733 739.071 212.679 740.506 208.918C741.523 206.21 741.762 203.218 742.959 200.57C745.637 194.691 752.638 191.31 754.224 185.057C748.644 191.16 743.408 196.621 739.085 203.936C737.024 207.525 734.333 210.713 731.141 213.346C728.437 215.673 725.039 217.041 721.477 217.236" fill="black"/>
</g>
<g opacity="0.3">
<path d="M777.816 260.904L781.317 261.936C781.317 261.936 782.663 235.816 778.938 227.902L777.816 260.904Z" fill="black"/>
</g>
<path d="M434.559 192.417L424.551 136.631C421.559 122.823 427.183 109.613 441.007 107.055L442.308 106.891C448.595 106.108 454.947 107.72 460.1 111.407C465.253 115.093 468.829 120.584 470.119 126.788C472.602 138.756 475.19 152.025 475.923 158.518C477.419 171.982 464.254 175.737 464.254 175.737C464.254 175.737 465.526 183.875 466.184 187.779L470.852 196.411L459.422 195.574L434.559 192.417Z" fill="#AE7461"/>
<path d="M464.299 175.737C458.094 176.496 451.8 175.458 446.168 172.745C446.168 172.745 451.628 182.319 464.883 179.447L464.299 175.737Z" fill="#6F4439"/>
<path d="M466.483 139.863C466.552 140.364 466.421 140.872 466.119 141.278C465.817 141.683 465.368 141.954 464.868 142.032C464.626 142.079 464.377 142.078 464.136 142.029C463.894 141.979 463.665 141.881 463.462 141.742C463.258 141.603 463.085 141.424 462.951 141.217C462.818 141.01 462.727 140.779 462.684 140.536C462.615 140.039 462.744 139.534 463.043 139.131C463.343 138.729 463.788 138.459 464.284 138.382C464.526 138.33 464.776 138.327 465.019 138.374C465.262 138.421 465.494 138.516 465.699 138.654C465.904 138.793 466.08 138.971 466.214 139.179C466.349 139.386 466.441 139.619 466.483 139.863Z" fill="#263238"/>
<path d="M468.054 133.086C467.845 133.355 466.259 132.472 464.195 132.727C462.13 132.981 460.739 134.223 460.484 133.983C460.23 133.744 460.484 133.415 461.143 132.846C461.979 132.106 463.025 131.646 464.135 131.53C465.209 131.391 466.3 131.601 467.246 132.128C467.875 132.532 468.144 132.951 468.054 133.086Z" fill="#263238"/>
<path d="M448.202 142.181C448.268 142.68 448.137 143.184 447.839 143.588C447.54 143.993 447.097 144.266 446.602 144.351C446.359 144.398 446.109 144.397 445.867 144.348C445.624 144.298 445.394 144.201 445.19 144.062C444.985 143.923 444.81 143.744 444.675 143.537C444.54 143.33 444.447 143.098 444.403 142.855C444.329 142.355 444.457 141.847 444.756 141.441C445.056 141.034 445.504 140.763 446.003 140.685C446.246 140.636 446.497 140.635 446.74 140.684C446.983 140.733 447.214 140.829 447.419 140.969C447.624 141.108 447.799 141.288 447.933 141.496C448.068 141.704 448.159 141.937 448.202 142.181Z" fill="#263238"/>
<path d="M447.873 136.078C447.664 136.362 446.078 135.464 444.014 135.734C441.949 136.003 440.573 137.23 440.318 136.99C440.064 136.751 440.318 136.407 440.977 135.853C441.805 135.102 442.855 134.64 443.969 134.537C445.042 134.391 446.133 134.596 447.08 135.12C447.709 135.524 447.978 135.958 447.873 136.078Z" fill="#263238"/>
<path d="M457.253 151.023C458.299 150.547 459.399 150.2 460.529 149.991C461.053 149.871 461.547 149.706 461.577 149.332C461.557 148.79 461.369 148.267 461.038 147.836L458.973 144.022C456.101 138.576 453.947 134.073 454.171 133.953C456.286 137.021 458.161 140.247 459.781 143.603L461.771 147.462C462.18 148.058 462.371 148.777 462.31 149.497C462.254 149.691 462.155 149.87 462.021 150.02C461.886 150.171 461.719 150.288 461.532 150.365C461.25 150.485 460.953 150.566 460.649 150.604C459.539 150.887 458.398 151.028 457.253 151.023Z" fill="#263238"/>
<path d="M447.739 129.54C447.529 130.109 445.45 129.795 443.011 130.049C440.573 130.303 438.523 130.932 438.254 130.423C438.119 130.184 438.478 129.645 439.271 129.121C440.342 128.453 441.558 128.053 442.817 127.954C444.065 127.825 445.327 127.995 446.497 128.448C447.38 128.822 447.828 129.256 447.739 129.54Z" fill="#263238"/>
<path d="M467.381 126.997C467.022 127.536 465.272 127.281 463.252 127.536C461.233 127.79 459.572 128.373 459.108 127.939C458.914 127.73 459.108 127.221 459.796 126.668C460.748 125.974 461.87 125.55 463.043 125.441C464.202 125.278 465.384 125.444 466.454 125.92C467.246 126.264 467.546 126.743 467.381 126.997Z" fill="#263238"/>
<path d="M426.884 146.43C426.645 146.43 417.31 144.934 418.746 154C420.182 163.066 429.068 159.819 429.054 159.55C429.039 159.281 426.884 146.43 426.884 146.43Z" fill="#AE7461"/>
<path d="M425.703 156.528C425.703 156.528 425.568 156.663 425.314 156.827C425.142 156.942 424.948 157.02 424.745 157.056C424.541 157.092 424.332 157.085 424.132 157.037C423.484 156.755 422.924 156.306 422.508 155.735C422.093 155.164 421.837 154.493 421.768 153.79C421.623 153.011 421.654 152.208 421.858 151.442C421.883 151.127 421.988 150.825 422.163 150.563C422.339 150.301 422.579 150.088 422.86 149.946C423.036 149.872 423.232 149.861 423.415 149.916C423.598 149.97 423.756 150.087 423.862 150.245C424.027 150.484 423.997 150.664 424.057 150.679C424.117 150.694 424.221 150.499 424.057 150.125C423.974 149.907 423.815 149.726 423.608 149.617C423.471 149.539 423.319 149.49 423.162 149.472C423.006 149.454 422.847 149.468 422.696 149.512C422.32 149.638 421.984 149.86 421.721 150.157C421.459 150.454 421.279 150.814 421.2 151.202C420.932 152.054 420.876 152.957 421.035 153.835C421.125 154.66 421.457 155.44 421.99 156.076C422.522 156.712 423.231 157.177 424.027 157.411C424.295 157.459 424.571 157.441 424.831 157.361C425.092 157.28 425.329 157.138 425.523 156.947C425.732 156.753 425.747 156.543 425.703 156.528Z" fill="#6F4439"/>
<path d="M451.03 153.357C451.344 153.357 451.703 155.391 453.752 156.573C455.802 157.755 457.986 157.126 458.061 157.426C458.136 157.725 457.627 157.919 456.685 158.099C455.464 158.335 454.2 158.122 453.124 157.5C452.081 156.913 451.308 155.942 450.97 154.793C450.746 153.94 450.88 153.372 451.03 153.357Z" fill="#263238"/>
<path d="M486.59 111.708C486.348 111.193 485.912 110.796 485.378 110.601C484.227 110.287 483.013 110.287 481.862 110.601C478.941 110.994 475.969 110.717 473.171 109.793C474.009 109.209 474.751 108.497 475.37 107.684C476.03 106.85 476.45 105.853 476.585 104.798C476.719 103.743 476.563 102.672 476.133 101.7C476.06 101.515 475.945 101.349 475.797 101.217C475.649 101.084 475.472 100.988 475.28 100.937C474.652 100.832 474.218 101.505 473.874 102.029C473.462 102.828 472.841 103.501 472.077 103.975C471.313 104.45 470.434 104.708 469.535 104.722C468.302 104.845 467.056 104.676 465.9 104.228L465.765 104.123L464.15 102.926C461.054 100.414 457.497 98.5339 453.678 97.3912C448.066 96.2775 442.257 96.7172 436.878 98.6628C432.39 100.608 428.814 105.036 428.919 109.898C425.927 108.103 422.037 108.731 419.06 110.496H418.971C415.619 112.306 414.198 116.36 413.705 120.13C413.705 120.34 413.705 120.549 413.705 120.759C412.799 122.854 411.41 124.705 409.65 126.159C409.336 126.399 408.992 126.713 409.007 127.117C409.022 127.521 409.411 127.775 409.755 127.954C410.685 128.421 411.707 128.677 412.747 128.702C412.57 129.617 412.31 130.513 411.969 131.38C411.67 132.113 411.326 132.996 411.775 133.654C411.975 133.891 412.243 134.06 412.543 134.138C412.844 134.216 413.16 134.198 413.45 134.088C414.012 133.858 414.52 133.518 414.946 133.086C414.692 134.088 414.438 135.105 414.198 136.078C415.519 136.095 416.825 135.803 418.013 135.225C419.285 138.486 420.826 144.65 422.052 146.804C424.476 146.475 425.044 146.116 426.316 146.34C427.991 146.61 427.812 149.512 429.757 148.405C430.744 147.836 431.731 143.603 431.926 142.421C433.148 134.943 432.745 127.289 430.744 119.981C431.982 118.207 433.545 116.684 435.352 115.493L435.217 115.657C438.763 113.787 442.787 111.843 446.617 113.054C449.609 113.997 451.643 116.6 454.097 118.56C456.146 120.362 458.552 121.714 461.157 122.526C463.763 123.337 466.511 123.592 469.221 123.272C470.373 127.221 471.555 133.744 472.333 137.544L474.382 129.51C474.568 129.02 474.728 128.521 474.861 128.014V127.865C475.085 127.102 475.295 126.369 475.594 125.561C476.087 125.902 476.69 126.044 477.283 125.959C477.876 125.875 478.415 125.57 478.793 125.105C479.17 124.64 479.359 124.05 479.321 123.452C479.282 122.855 479.02 122.293 478.586 121.881C478.201 121.49 477.756 121.162 477.27 120.908C477.803 121.28 478.422 121.51 479.069 121.575C479.715 121.641 480.368 121.54 480.965 121.282C481.547 120.994 482.019 120.524 482.31 119.944C482.602 119.364 482.697 118.705 482.58 118.066C482.463 117.64 482.235 117.252 481.92 116.942C481.605 116.632 481.213 116.411 480.785 116.301C482.47 116.173 484.078 115.548 485.408 114.505C486.305 113.862 487.098 112.8 486.59 111.708Z" fill="#263238"/>
<path d="M433.287 110.78C432.864 111.248 432.479 111.748 432.135 112.276C431.277 113.723 430.808 115.367 430.774 117.049C430.711 118.204 430.771 119.362 430.953 120.504C431.148 121.731 431.447 123.048 431.761 124.424C432.107 125.863 432.367 127.322 432.539 128.792C432.599 129.579 432.599 130.369 432.539 131.156C432.553 131.992 432.347 132.818 431.941 133.55C431.748 133.847 431.481 134.089 431.166 134.252C430.852 134.415 430.5 134.492 430.146 134.477C429.472 134.461 428.824 134.219 428.306 133.789C427.425 132.896 426.796 131.786 426.48 130.572H426.765C426.516 131.624 426.113 132.632 425.568 133.564C425.061 134.445 424.237 135.098 423.264 135.39C422.8 135.525 422.307 135.525 421.843 135.39C421.412 135.248 421.036 134.976 420.766 134.612C420.508 134.284 420.347 133.89 420.302 133.475C420.257 133.085 420.353 132.693 420.571 132.368L420.721 132.472C420.07 133.508 419.208 134.395 418.193 135.075C417.922 135.251 417.643 135.41 417.355 135.554L417.041 135.689C417.125 135.614 417.221 135.553 417.325 135.509C417.504 135.39 417.789 135.225 418.133 134.986C419.105 134.281 419.929 133.392 420.556 132.368L420.721 132.472C420.547 132.789 420.475 133.151 420.515 133.51C420.555 133.869 420.706 134.207 420.945 134.477C421.192 134.8 421.531 135.04 421.918 135.165C422.338 135.285 422.784 135.285 423.204 135.165C424.134 134.894 424.925 134.279 425.418 133.445C425.937 132.507 426.32 131.499 426.555 130.453L426.675 130.004L426.839 130.453C427.146 131.585 427.745 132.616 428.575 133.445C429.045 133.83 429.628 134.051 430.235 134.073C430.532 134.084 430.827 134.017 431.09 133.877C431.352 133.738 431.574 133.532 431.731 133.28C432.106 132.598 432.297 131.83 432.285 131.051C432.345 130.279 432.345 129.504 432.285 128.732C432.127 127.272 431.877 125.823 431.537 124.394C431.223 123.018 430.938 121.701 430.759 120.445C430.586 119.286 430.536 118.113 430.609 116.944C430.674 115.234 431.19 113.572 432.105 112.127C432.426 111.619 432.825 111.164 433.287 110.78Z" fill="#455A64"/>
<path d="M476.731 117.393L476.641 117.497L476.342 117.797C476.207 117.916 476.043 118.081 475.833 118.245C475.597 118.446 475.347 118.631 475.085 118.799C473.417 119.887 471.505 120.544 469.52 120.714C466.562 120.981 463.589 120.384 460.963 118.993C457.796 117.26 455.013 114.904 452.78 112.067C451.553 110.571 450.506 109.075 449.399 107.654C448.373 106.278 447.148 105.063 445.764 104.048C444.53 103.114 443.078 102.512 441.545 102.298C440.856 102.222 440.16 102.252 439.481 102.388C438.851 102.518 438.242 102.735 437.67 103.031C435.928 103.948 434.593 105.485 433.93 107.34C433.719 108.025 433.594 108.733 433.556 109.449C433.556 109.449 433.556 109.449 433.556 109.314V108.895C433.59 108.354 433.681 107.817 433.826 107.295C434.097 106.484 434.496 105.721 435.008 105.036C435.696 104.125 436.574 103.374 437.581 102.837C438.165 102.523 438.789 102.292 439.436 102.148C440.143 101.993 440.871 101.958 441.59 102.044C443.172 102.252 444.676 102.859 445.958 103.809C447.355 104.846 448.599 106.075 449.653 107.459C450.775 108.865 451.823 110.451 453.049 111.857C455.244 114.669 457.988 117.005 461.113 118.724C463.683 120.104 466.597 120.717 469.505 120.489C471.464 120.348 473.359 119.732 475.026 118.694C476.178 117.946 476.701 117.288 476.731 117.393Z" fill="#455A64"/>
<path d="M477.12 111.304C476.984 111.447 476.839 111.582 476.686 111.708C476.275 112.058 475.834 112.374 475.37 112.65C474.696 113.077 473.985 113.443 473.245 113.742C472.33 114.102 471.383 114.378 470.418 114.565C469.431 114.745 468.429 114.83 467.426 114.82C466.627 114.81 465.831 114.73 465.047 114.58C464.513 114.492 463.987 114.356 463.476 114.176C463.117 114.057 462.923 113.982 462.938 113.952C462.953 113.922 463.746 114.161 465.077 114.356C465.855 114.47 466.64 114.525 467.426 114.52C468.39 114.522 469.352 114.432 470.298 114.251C471.24 114.064 472.165 113.804 473.066 113.473C473.804 113.19 474.52 112.85 475.205 112.456C476.357 111.798 477 111.304 477.12 111.304Z" fill="#455A64"/>
<path d="M602.919 281.055L608.095 280.232C609.701 278.613 611.5 277.196 613.45 276.014C616.442 274.278 619.031 274.278 619.779 275.714C620.142 276.495 620.227 277.376 620.02 278.211C619.813 279.047 619.327 279.786 618.642 280.307C617.146 281.728 611.281 283.299 610.952 285.767C610.623 288.236 629.398 296.239 629.398 296.239L614.558 313.129L593.015 301.67L592.028 299.905L591.803 295.267L602.919 281.055Z" fill="#AE7461"/>
<path d="M452.645 327.626L459.168 404.52L456.969 417.879C456.969 417.879 430.31 494.475 430.864 526.175L462.055 524.679C462.055 524.679 492.499 437.911 494.892 428.381C497.286 418.852 509.553 354.733 509.553 354.733L529.779 405.403L530.348 417.206L518.694 490.705L554.912 492.605C554.912 492.605 569.737 409.188 568.271 398.357C566.805 387.526 542.839 302.942 542.839 302.942L530.482 292.156L460.006 304.124L452.645 327.626Z" fill="#263238"/>
<path d="M551.561 470.194L550.424 501.027C550.424 501.027 579.761 512.606 580.075 518.336L523.361 518.216L523.227 470.09L551.561 470.194Z" fill="#263238"/>
<path d="M532.906 498.379C532.349 498.573 531.881 498.961 531.587 499.472C531.293 499.983 531.193 500.583 531.305 501.162C531.427 501.731 531.769 502.23 532.256 502.549C532.744 502.868 533.337 502.982 533.908 502.867C534.505 502.659 535.006 502.24 535.317 501.69C535.628 501.139 535.728 500.494 535.599 499.875C535.21 498.753 533.699 497.855 532.696 498.379" fill="#E0E0E0"/>
<path d="M523.361 518.216L523.526 513.354L577.876 515.224C577.876 515.224 580.404 516.391 580.105 518.216H523.361Z" fill="#455A64"/>
<path d="M551.366 500.728C551.366 501.027 549.975 501.147 548.614 502.089C547.252 503.032 546.519 504.243 546.265 504.124C546.011 504.004 546.43 502.329 548.09 501.222C549.751 500.114 551.426 500.459 551.366 500.728Z" fill="white"/>
<path d="M557.321 503.346C557.321 503.63 556.184 504.124 555.241 505.35C554.299 506.577 554.014 507.894 553.745 507.879C553.476 507.864 553.296 506.218 554.493 504.707C555.69 503.196 557.306 503.062 557.321 503.346Z" fill="white"/>
<path d="M560.687 510.871C560.432 510.871 560.043 509.464 560.761 507.879C561.479 506.293 562.781 505.635 562.886 505.889C562.99 506.143 562.212 506.981 561.644 508.297C561.076 509.614 560.896 510.841 560.687 510.871Z" fill="white"/>
<path d="M550.888 493.667C550.768 493.936 549.496 493.532 547.896 493.667C546.295 493.801 545.113 494.295 544.904 494.041C544.694 493.786 545.936 492.754 547.791 492.649C549.646 492.545 551.022 493.442 550.888 493.667Z" fill="white"/>
<path d="M459.018 502.643L459.243 538.053L467.486 565.998C467.627 566.476 467.668 566.977 467.608 567.471C467.547 567.966 467.385 568.442 467.133 568.871C466.88 569.301 466.542 569.673 466.14 569.967C465.737 570.26 465.279 570.467 464.793 570.576C464.228 570.701 463.641 570.689 463.081 570.541C462.521 570.393 462.005 570.112 461.577 569.723C456.026 564.697 435.696 546.131 435.83 543.528C435.98 540.536 433.123 506.203 433.123 506.203L459.018 502.643Z" fill="#263238"/>
<path d="M464.793 570.576L435.756 541.15V542.646C435.796 543.942 436.294 545.182 437.162 546.146C439.481 548.719 446.048 555.691 461.427 569.723C461.868 570.127 462.402 570.415 462.981 570.564C463.56 570.713 464.167 570.717 464.748 570.576H464.793Z" fill="#455A64"/>
<g opacity="0.6">
<path d="M442.712 529.511C443.154 529.823 443.466 530.285 443.59 530.812C443.714 531.338 443.641 531.892 443.385 532.368C443.095 532.823 442.642 533.149 442.119 533.279C441.596 533.41 441.043 533.336 440.573 533.071C440.108 532.746 439.779 532.262 439.649 531.71C439.52 531.158 439.598 530.577 439.87 530.079C440.218 529.636 440.725 529.347 441.284 529.271C441.842 529.196 442.408 529.341 442.862 529.675" fill="white"/>
</g>
<path d="M456.251 555.347C456.46 555.437 457.208 553.552 459.243 552.504C460.524 551.946 461.9 551.641 463.297 551.607C463.297 551.517 462.878 551.248 462.04 551.158C460.947 551.072 459.852 551.3 458.884 551.816C457.911 552.319 457.106 553.093 456.565 554.045C456.176 554.793 456.176 555.317 456.251 555.347Z" fill="white"/>
<path d="M458.914 560.014C459.907 559.405 460.942 558.865 462.01 558.399C463.145 558.143 464.294 557.958 465.451 557.845C464.895 557.523 464.269 557.337 463.627 557.303C462.985 557.27 462.344 557.389 461.756 557.651C459.692 558.324 458.719 559.91 458.914 560.014Z" fill="white"/>
<path d="M451.389 549.408C452.845 548.353 454.38 547.413 455.982 546.595C457.685 546.006 459.43 545.546 461.203 545.219C459.337 544.905 457.422 545.134 455.682 545.876C453.943 546.618 452.453 547.844 451.389 549.408Z" fill="white"/>
<path d="M450.416 538.651C450.521 538.861 452.451 537.978 454.994 537.814C457.537 537.649 459.572 538.203 459.647 537.978C458.236 537.119 456.567 536.785 454.934 537.036C453.287 537.034 451.689 537.605 450.416 538.651Z" fill="white"/>
<path d="M450.087 528.254C451.617 527.716 453.212 527.384 454.83 527.267C456.446 527.394 458.038 527.746 459.557 528.314C459.557 528.224 459.213 527.805 458.39 527.357C457.288 526.8 456.071 526.511 454.837 526.511C453.603 526.511 452.386 526.8 451.284 527.357C450.446 527.746 450.042 528.179 450.087 528.254Z" fill="white"/>
<path d="M417.983 194.123C417.983 194.123 399.014 205.552 412.792 232.929C429.592 266.439 445.584 313.578 451.075 316.705C453.319 317.976 463.865 312.696 463.865 312.696L472.228 297.197L450.042 239.242L435.561 205.732L417.983 194.123Z" fill="#455A64"/>
<path d="M431.821 185.236L417.983 194.123L454.68 258.899L449.369 316.765L457.672 321.462L543.378 309.584L546.16 305.709L536.751 278.527L524.214 248.008C524.214 248.008 511.812 220.273 504.497 208.454C497.181 196.636 489.312 184.698 489.312 184.698L468.368 183.202L465.795 180.344C465.795 180.344 462.624 186.089 454.007 186.613C446.991 187.046 432.105 183.247 432.105 183.247L431.821 185.236Z" fill="#455A64"/>
<path d="M602.919 281.055C602.919 281.055 552.638 240.783 548.539 236.085C544.44 231.388 509.478 194.571 509.478 194.571C509.478 194.571 496.688 182.304 489.342 184.698C480.366 187.69 498.318 230.924 498.318 230.924C498.318 230.924 535.299 261.622 541.298 267.456C547.297 273.291 583.336 296.479 583.336 296.479L591.878 295.297L602.919 281.055Z" fill="#455A64"/>
<path d="M439.84 220.018C439.989 220.26 440.115 220.515 440.214 220.781C440.468 221.38 440.782 222.113 441.156 223.025C441.964 224.985 443.146 227.812 444.627 231.298C447.619 238.27 451.868 247.754 456.595 258.346C461.322 268.938 465.406 278.542 468.114 285.618C469.475 289.148 470.523 292.036 471.196 294.04C471.495 294.983 471.749 295.746 471.959 296.359C472.064 296.623 472.135 296.9 472.168 297.182C472.013 296.946 471.892 296.689 471.809 296.419L470.912 294.145C470.149 292.17 469.027 289.328 467.605 285.812C464.763 278.796 460.604 269.207 455.877 258.66C451.149 248.113 446.901 238.539 444.133 231.508C442.712 227.992 441.605 225.135 440.887 223.13C440.558 222.202 440.303 221.44 440.079 220.841C439.96 220.58 439.88 220.303 439.84 220.018Z" fill="#263238"/>
<path d="M501.385 203.637C501.385 203.637 501.55 203.757 501.849 204.071C502.255 204.537 502.62 205.038 502.941 205.567C503.824 206.853 504.99 208.813 506.337 211.252C509.045 216.144 512.53 223.025 516.24 230.7C519.95 238.374 523.167 245.39 525.441 250.477C526.578 253.035 527.49 255.099 528.089 256.551C528.433 257.281 528.723 258.036 528.956 258.81C528.5 258.138 528.114 257.421 527.804 256.67L524.947 250.686L515.537 230.984C511.842 223.309 508.416 216.398 505.858 211.461C504.572 208.978 503.494 206.973 502.687 205.672C501.879 204.37 501.325 203.697 501.385 203.637Z" fill="#263238"/>
<g opacity="0.3">
<path d="M451.314 247.44C451.314 247.44 447.739 227.498 449.818 215.845C451.897 204.191 457.822 187.226 457.822 187.226L468.294 182.738L522.823 209.232L526.862 214.124L519.636 237.088L525.022 278.976L451.314 247.44Z" fill="black"/>
</g>
<path d="M464.434 212.449C468.518 137.439 510.645 97.0621 564.127 99.9793C617.909 102.971 655.084 147.612 651 222.651C646.916 297.691 605.103 338.053 551.307 335.121C497.825 332.173 460.335 287.473 464.434 212.449ZM600.316 219.854C603.128 168.227 586.852 145.847 561.704 144.47C536.825 143.109 518.245 163.604 515.433 215.231C512.62 266.858 528.897 289.253 553.73 290.6C578.923 291.976 597.503 271.496 600.316 219.854Z" fill="#B20937"/>
<g opacity="0.3">
<path d="M464.434 212.449C468.518 137.439 510.645 97.0621 564.127 99.9793C617.909 102.971 655.084 147.612 651 222.651C646.916 297.691 605.103 338.053 551.307 335.121C497.825 332.173 460.335 287.473 464.434 212.449ZM600.316 219.854C603.128 168.227 586.852 145.847 561.704 144.47C536.825 143.109 518.245 163.604 515.433 215.231C512.62 266.858 528.897 289.253 553.73 290.6C578.923 291.976 597.503 271.496 600.316 219.854Z" fill="black"/>
</g>
<path d="M449.01 212.523C453.109 137.514 495.222 97.1369 548.704 100.054C602.56 103.046 639.675 147.672 635.591 222.726C631.507 297.78 589.679 338.128 535.898 335.195C482.401 332.248 444.926 287.533 449.01 212.523ZM584.892 220.003C587.719 168.376 571.428 145.981 546.28 144.62C521.402 143.259 502.821 163.739 500.009 215.381C497.196 267.023 513.473 289.388 538.321 290.749C563.499 292.051 582.079 271.556 584.832 219.929L584.892 220.003Z" fill="#B20937"/>
<path d="M505.544 325.995L496.254 320.34C496.254 320.34 486.754 314.072 486.171 313.114C485.465 311.575 485.064 309.914 484.989 308.223C484.989 306.846 489.268 303.735 489.746 301.102C490.225 298.469 487.398 295.866 486.38 295.417C485.363 294.968 484.316 296.539 484.091 297.706C483.867 298.873 482.161 300.578 479.484 301.176C476.806 301.775 473.126 305.26 473.126 305.26L465.077 320.4C466.454 322.988 482.939 329.152 483.448 329.451C483.957 329.75 501.535 330.079 503.285 329.451C503.666 329.384 504.03 329.24 504.353 329.027C504.676 328.814 504.952 328.537 505.164 328.213C505.376 327.889 505.519 327.525 505.584 327.143C505.649 326.762 505.636 326.371 505.544 325.995Z" fill="#AE7461"/>
<path d="M636.444 294.459C636.534 296.988 631.477 296.823 631.477 296.823C632.076 298.065 629.458 301.057 627.677 300.398C628.141 301.281 628.62 301.58 628.53 302.583C628.5 303.089 628.348 303.58 628.087 304.015C627.827 304.449 627.466 304.815 627.034 305.081C626.602 305.338 626.097 305.446 625.598 305.389C625.098 305.333 624.63 305.114 624.267 304.767C624.44 305.523 624.38 306.314 624.094 307.035C623.809 307.757 623.31 308.374 622.666 308.806C621.873 309.304 620.925 309.49 620.003 309.33C619.545 309.247 619.104 309.085 618.701 308.851C618.541 308.782 618.395 308.686 618.268 308.567C618.215 308.502 618.179 308.424 618.163 308.342C618.043 307.983 617.998 307.609 617.864 307.265L617.684 306.861C617.394 306.276 617.027 305.733 616.592 305.246C616.367 305.036 616.157 304.811 615.964 304.572C615.879 304.394 615.808 304.209 615.754 304.019C615.138 302.889 614.292 301.9 613.271 301.117C612.155 300.258 611.313 299.094 610.847 297.766C610.643 297.097 610.707 296.375 611.025 295.752C611.343 295.13 611.891 294.655 612.553 294.429C612.201 294.156 611.959 293.765 611.874 293.327C611.789 292.89 611.865 292.436 612.089 292.051C612.331 291.676 612.663 291.369 613.056 291.157C613.448 290.945 613.887 290.836 614.333 290.839C615.229 290.86 616.103 291.123 616.861 291.602C616.496 291.225 616.291 290.721 616.291 290.196C616.291 289.671 616.496 289.166 616.861 288.79C617.245 288.434 617.712 288.181 618.219 288.053C618.726 287.925 619.257 287.926 619.764 288.056C620.781 288.345 621.721 288.856 622.516 289.552C623.339 290.181 626.81 292.814 627.722 293.337L629.877 291.303L630.161 291.034C631.971 291.647 632.554 291.737 634.11 292.365C635.352 292.814 636.399 293.412 636.444 294.459Z" fill="#AE7461"/>
<path d="M616.787 312.022C616.519 312.361 616.181 312.639 615.797 312.835C615.412 313.031 614.989 313.142 614.558 313.159C613.321 312.824 612.221 312.106 611.416 311.11C611.416 311.11 613.256 308.776 613.256 308.776L613.72 308.207C613.824 307.534 612.867 306.711 612.568 306.158C612.333 305.609 612.32 304.99 612.532 304.432C612.744 303.874 613.164 303.42 613.705 303.166C614.252 302.947 614.85 302.887 615.429 302.993C616.009 303.099 616.547 303.366 616.981 303.764C617.853 304.577 618.387 305.688 618.477 306.876C618.573 307.804 618.471 308.743 618.18 309.629C617.889 310.516 617.414 311.331 616.787 312.022Z" fill="#AE7461"/>
<path d="M624.581 304.991C622.863 302.949 620.949 301.08 618.866 299.411C616.953 297.546 614.858 295.877 612.613 294.429C616.226 298.354 620.237 301.894 624.581 304.991Z" fill="#6F4439"/>
<path d="M627.872 300.533C626.475 298.543 624.762 296.794 622.8 295.357C621.004 293.711 618.953 292.368 616.727 291.378C618.487 293.018 620.34 294.557 622.277 295.985C624.046 297.615 625.915 299.134 627.872 300.533Z" fill="#6F4439"/>
<path d="M631.103 296.18C629.915 294.555 628.439 293.161 626.75 292.066C625.231 290.76 623.552 289.654 621.753 288.775C623.057 290.29 624.568 291.615 626.241 292.709C627.753 294.012 629.38 295.174 631.103 296.18Z" fill="#6F4439"/>
<path d="M617.594 310.392C617.594 310.466 618.148 310.137 618.462 309.285C618.805 308.166 618.697 306.959 618.163 305.919C617.684 304.902 617.014 303.988 616.188 303.226C615.41 302.598 614.692 302.912 614.782 303.016C614.872 303.121 615.32 303.091 615.799 303.645C616.428 304.461 616.975 305.338 617.43 306.263C617.876 307.15 618.043 308.151 617.909 309.135C617.744 309.898 617.505 310.272 617.594 310.392Z" fill="#6F4439"/>
<path d="M286.874 486.142L282.057 514.566C282.057 514.566 310.6 526.22 310.84 531.815L255.368 530.977L262.324 484.197L286.874 486.142Z" fill="#263238"/>
<path d="M264.942 511.813C264.393 511.995 263.929 512.37 263.635 512.867C263.34 513.365 263.236 513.952 263.342 514.521C263.454 515.078 263.78 515.568 264.25 515.887C264.72 516.206 265.296 516.328 265.855 516.226C266.437 516.034 266.929 515.637 267.24 515.108C267.551 514.58 267.66 513.956 267.545 513.354C267.462 513.069 267.322 512.804 267.135 512.574C266.947 512.344 266.716 512.154 266.454 512.015C266.192 511.876 265.905 511.79 265.609 511.763C265.314 511.736 265.016 511.768 264.733 511.858" fill="#E0E0E0"/>
<path d="M255.368 531.022L256.071 526.309L308.7 528.868C308.7 528.868 311.154 530.034 310.84 531.86L255.368 531.022Z" fill="#455A64"/>
<path d="M282.954 514.326C282.954 514.611 281.593 514.715 280.246 515.628C278.9 516.541 278.167 517.707 277.928 517.588C277.688 517.468 278.107 515.837 279.753 514.775C281.398 513.713 283.029 514.072 282.954 514.326Z" fill="white"/>
<path d="M288.744 516.959C288.744 517.229 287.622 517.707 286.679 518.889C285.737 520.071 285.467 521.358 285.183 521.343C284.899 521.328 284.764 519.712 285.946 518.246C287.128 516.78 288.744 516.72 288.744 516.959Z" fill="white"/>
<path d="M291.945 524.35C291.691 524.35 291.347 522.973 292.065 521.358C292.783 519.742 294.054 519.203 294.159 519.443C294.264 519.682 293.471 520.505 292.903 521.791C292.334 523.078 292.214 524.32 291.945 524.35Z" fill="white"/>
<path d="M282.64 507.43C282.52 507.684 281.294 507.265 279.753 507.355C278.212 507.445 277.015 507.939 276.88 507.684C276.746 507.43 277.913 506.443 279.708 506.368C281.503 506.293 282.64 507.206 282.64 507.43Z" fill="white"/>
<path d="M206.673 490.615L191.952 516.93C191.952 516.93 212.328 540.088 210.039 545.144L160.761 519.712L182.109 477.824L206.673 490.615Z" fill="#263238"/>
<path d="M177.92 506.802C177.347 506.717 176.763 506.844 176.276 507.157C175.789 507.471 175.432 507.951 175.272 508.507C175.128 509.056 175.204 509.64 175.483 510.134C175.763 510.628 176.223 510.995 176.768 511.155C177.374 511.236 177.988 511.096 178.499 510.761C179.01 510.425 179.383 509.918 179.551 509.33C179.73 508.178 178.803 506.727 177.681 506.772" fill="#E0E0E0"/>
<path d="M160.761 519.712L163.065 515.568L209.441 541.554C209.441 541.554 211.116 543.693 210.024 545.189L160.761 519.712Z" fill="#455A64"/>
<path d="M192.88 517.079C192.745 517.333 191.474 516.825 189.888 517.079C188.302 517.333 187.105 518.022 186.896 517.812C186.687 517.603 187.853 516.316 189.798 516.092C191.743 515.867 193.074 516.87 192.88 517.079Z" fill="white"/>
<path d="M196.904 522.016C196.829 522.285 195.558 522.18 194.196 522.824C192.835 523.467 191.997 524.499 191.773 524.32C191.549 524.14 192.117 522.659 193.837 521.881C195.558 521.103 197.024 521.762 196.904 522.016Z" fill="white"/>
<path d="M196.47 530.064C196.231 530.064 196.47 528.568 197.877 527.491C199.283 526.414 200.629 526.444 200.614 526.713C200.599 526.983 199.537 527.357 198.445 528.209C197.353 529.062 196.725 530.184 196.47 530.064Z" fill="white"/>
<path d="M195.618 510.736C195.393 510.916 194.481 510.003 193.06 509.39C191.638 508.776 190.367 508.686 190.352 508.417C190.337 508.148 191.848 507.744 193.478 508.492C195.109 509.24 195.872 510.586 195.618 510.736Z" fill="white"/>
<path d="M241.021 316.436C241.021 316.436 250.94 412.344 247.993 423.444C245.045 434.545 197.607 519.338 197.607 519.338L164.83 501.132C164.83 501.132 204.683 424.342 204.175 421.096C203.666 417.849 205.237 408.619 205.237 408.619L183.246 335.046L187.629 303.45L226.525 299.531L241.021 316.436Z" fill="#263238"/>
<path d="M215.021 352.609C216.008 355.601 268.772 415.785 268.772 415.785C268.579 417.078 268.787 418.399 269.37 419.57C270.512 421.055 272.077 422.161 273.858 422.741L252.914 509.509L289.552 512.89C289.552 512.89 311.408 426.122 310.496 415.127C309.583 404.131 257.388 319.248 257.388 319.248L219.988 317.228L215.021 352.609Z" fill="#263238"/>
<path d="M241.994 337.395C241.947 338.198 241.822 338.995 241.62 339.773C241.375 341.948 241.315 344.14 241.44 346.326C242.057 353.541 243.121 360.71 244.627 367.793C246.134 374.909 247.223 382.107 247.888 389.351C248.043 391.559 248.002 393.777 247.768 395.978C247.678 396.786 247.508 397.583 247.26 398.357C247.27 397.55 247.34 396.745 247.469 395.948C247.579 393.763 247.534 391.574 247.334 389.396C246.901 383.86 245.434 376.305 243.864 367.943C242.327 360.827 241.327 353.606 240.872 346.341C240.789 344.128 240.929 341.913 241.291 339.728C241.461 338.932 241.696 338.152 241.994 337.395Z" fill="#455A64"/>
<path d="M320.175 189.665C320.175 189.665 326.862 178.923 332.98 177.966C339.099 177.008 349.691 177.966 349.691 177.966L343.976 201.064L331.26 203.263L320.175 189.665Z" fill="#FFBF9D"/>
<path d="M222.576 207.242L269.909 210.13L318.439 187.54L333.459 205.926L273.993 237.522L241.111 241.65L222.576 207.242Z" fill="#455A64"/>
<path d="M369.976 256.252L332.427 249.669L323.945 298.11L271.884 288.999L280.366 240.558L156.198 218.822L162.481 182.918L296.822 55.6678L352.832 65.4667L227.722 186.538L289.671 197.369L297.226 154.209L347.626 163.036L340.071 206.195L377.636 212.778L369.976 256.252Z" fill="#B20937"/>
<g opacity="0.3">
<path d="M369.976 256.252L332.427 249.669L323.945 298.11L271.884 288.999L280.366 240.558L156.198 218.822L162.481 182.918L296.822 55.6678L352.832 65.4667L227.722 186.538L289.671 197.369L297.226 154.209L347.626 163.036L340.071 206.195L377.636 212.778L369.976 256.252Z" fill="black"/>
</g>
<path d="M357.29 254.486L319.726 247.919L311.244 296.344L259.183 287.234L267.68 238.793L143.512 217.056L149.795 181.152L284.136 53.8876L340.146 63.6864L214.991 184.758L276.925 195.604L284.405 152.429L334.82 161.256L327.266 204.415L364.815 210.997L357.29 254.486Z" fill="#B20937"/>
<g opacity="0.3">
<path d="M245.046 231.538C245.046 231.538 239.615 216.907 234.813 211.267C231.197 206.852 227.826 202.242 224.715 197.459L248.89 186.807L236.264 177.128L214.976 186.882L213.704 206.001L239.391 232.764L245.046 231.538Z" fill="black"/>
</g>
<path d="M227.408 134.687C229.84 136.716 231.745 139.304 232.959 142.23C234.173 145.155 234.66 148.331 234.379 151.487C234.095 154.479 233.182 158.009 235.112 160.373C237.042 162.737 240.902 162.737 242.742 165.145C244.911 167.987 242.966 172.116 243.699 175.617C244.094 177.263 245.066 178.713 246.438 179.704C247.81 180.695 249.492 181.161 251.179 181.018C247.186 184.143 242.408 186.105 237.371 186.687L233.646 181.691C234.271 182.632 234.565 183.755 234.481 184.882C234.397 186.009 233.94 187.076 233.182 187.914C231.591 189.574 229.537 190.715 227.288 191.19C222.103 192.677 216.645 192.947 211.339 191.979C206.032 191.011 201.021 188.832 196.695 185.61" fill="#263238"/>
<path d="M169.423 160.567C170.44 158.322 171.339 156.025 172.116 153.686C173.327 148.525 170.919 142.645 173.522 138.023C175.377 134.746 179.222 133.191 182.842 132.158C186.462 131.126 190.322 130.258 193.104 127.67C195.109 125.77 196.291 123.182 198.281 121.208C201.138 118.5 205.297 117.632 209.231 117.468C213.29 117.158 217.361 117.9 221.05 119.622C222.878 120.505 224.474 121.804 225.71 123.415C226.947 125.025 227.789 126.903 228.171 128.897C228.201 130.869 228.391 132.835 228.739 134.776C229.367 136.856 230.968 138.486 231.926 140.431C232.879 142.524 233.118 144.872 232.604 147.113C232.09 149.355 230.853 151.365 229.083 152.833L200.659 188.109C194.795 190.188 180.718 187.256 176.304 182.858C171.891 178.459 167.448 166.447 169.423 160.567Z" fill="#263238"/>
<path d="M228.44 148.24C227.453 140.087 221.454 130.363 213.345 131.68L188.257 139.578C187.067 139.77 185.992 140.403 185.246 141.351C184.501 142.299 184.139 143.492 184.233 144.695L190.427 203.712C190.427 203.712 188.557 205.208 187.36 204.699C187.293 204.668 187.219 204.66 187.147 204.677C187.076 204.693 187.012 204.733 186.966 204.789C186.92 204.846 186.894 204.916 186.892 204.989C186.89 205.062 186.912 205.134 186.956 205.193C189.858 209.681 203.621 228.89 218.372 223.369C221.648 222.143 218.252 211.82 218.716 208.02L218.462 198.311C218.237 193.345 218.132 191.31 218.132 191.37C218.132 191.43 228.485 189.036 229.876 175.258C230.504 168.406 229.532 157.306 228.44 148.24Z" fill="#FFBF9D"/>
<path d="M226.45 160.672C226.483 161.128 226.335 161.578 226.039 161.925C225.742 162.273 225.32 162.489 224.865 162.527C224.642 162.558 224.415 162.544 224.198 162.485C223.98 162.426 223.777 162.323 223.601 162.183C223.425 162.043 223.279 161.869 223.172 161.671C223.065 161.473 223 161.255 222.98 161.031C222.946 160.574 223.094 160.122 223.39 159.772C223.687 159.422 224.109 159.203 224.565 159.161C224.789 159.13 225.017 159.145 225.236 159.205C225.454 159.265 225.657 159.369 225.834 159.51C226.01 159.651 226.156 159.828 226.262 160.027C226.368 160.227 226.432 160.447 226.45 160.672Z" fill="#263238"/>
<path d="M209.456 161.465C209.485 161.92 209.336 162.368 209.039 162.714C208.743 163.061 208.324 163.278 207.87 163.32C207.647 163.349 207.42 163.333 207.202 163.274C206.985 163.214 206.782 163.111 206.605 162.972C206.428 162.833 206.281 162.659 206.172 162.462C206.063 162.265 205.994 162.048 205.97 161.824C205.941 161.368 206.089 160.918 206.385 160.569C206.681 160.22 207.101 160 207.556 159.954C207.781 159.923 208.009 159.937 208.228 159.997C208.447 160.057 208.652 160.161 208.83 160.302C209.007 160.443 209.154 160.619 209.262 160.819C209.37 161.019 209.436 161.239 209.456 161.465Z" fill="#263238"/>
<path d="M227.198 154.987C227.004 155.301 225.388 154.239 223.354 154.494C221.319 154.748 219.973 156.124 219.718 155.855C219.464 155.586 219.718 155.197 220.332 154.568C221.084 153.748 222.101 153.219 223.204 153.072C224.292 152.947 225.39 153.212 226.301 153.82C227.004 154.344 227.288 154.838 227.198 154.987Z" fill="#263238"/>
<path d="M208.887 156.184C208.648 156.483 207.062 155.286 204.878 155.346C202.694 155.406 201.108 156.603 200.869 156.319C200.629 156.034 200.988 155.675 201.676 155.107C202.594 154.393 203.716 153.995 204.878 153.97C206.032 153.954 207.158 154.322 208.079 155.017C208.768 155.496 209.007 156.005 208.887 156.184Z" fill="#263238"/>
<path d="M215.5 169.154C216.463 168.79 217.468 168.543 218.492 168.421C218.97 168.346 219.419 168.227 219.479 167.898C219.499 167.4 219.363 166.908 219.09 166.491L217.459 162.916C215.968 159.886 214.712 156.745 213.704 153.521C215.449 156.413 216.951 159.446 218.192 162.587L219.778 166.192C220.11 166.755 220.232 167.418 220.122 168.062C220.065 168.237 219.968 168.396 219.838 168.526C219.708 168.656 219.549 168.753 219.374 168.81C219.114 168.902 218.842 168.957 218.566 168.975C217.555 169.161 216.525 169.221 215.5 169.154Z" fill="#263238"/>
<path d="M218.073 191.37C211.653 191.828 205.231 190.497 199.522 187.525C199.522 187.525 204.654 196.845 218.237 194.796L218.073 191.37Z" fill="#FF9A6C"/>
<path d="M209.65 174.525C209.879 174.074 210.219 173.687 210.638 173.403C211.147 173.164 211.726 173.116 212.268 173.268C213.073 173.408 213.812 173.801 214.378 174.39C214.656 174.688 214.848 175.054 214.935 175.452C215.022 175.85 215 176.263 214.871 176.649C214.647 177.442 213.465 177.846 212.657 177.966C211.84 178.065 211.014 177.874 210.323 177.427C210.023 177.29 209.76 177.083 209.556 176.822C209.353 176.562 209.216 176.256 209.156 175.931C209.183 175.425 209.354 174.937 209.65 174.525Z" fill="#FF9A6C"/>
<path d="M210.099 171.892C210.398 171.892 210.518 173.897 212.358 175.243C214.198 176.59 216.352 176.245 216.382 176.53C216.412 176.814 215.918 176.964 214.991 177.038C213.797 177.117 212.612 176.779 211.64 176.081C210.71 175.4 210.078 174.388 209.875 173.253C209.755 172.401 209.949 171.892 210.099 171.892Z" fill="#263238"/>
<path d="M208.872 150.2C208.708 150.709 206.823 150.574 204.624 150.978C202.424 151.382 200.674 152.07 200.36 151.621C200.21 151.412 200.495 150.918 201.198 150.38C202.115 149.701 203.182 149.255 204.309 149.078C205.432 148.883 206.585 148.955 207.675 149.287C208.498 149.542 208.932 149.916 208.872 150.2Z" fill="#263238"/>
<path d="M225.792 146.969C225.433 147.417 223.937 147.058 222.142 147.148C220.347 147.238 218.866 147.627 218.492 147.148C218.118 146.669 218.492 146.505 219.18 146.056C220.075 145.491 221.113 145.19 222.172 145.188C223.214 145.131 224.251 145.37 225.164 145.877C225.672 146.325 225.897 146.759 225.792 146.969Z" fill="#263238"/>
<path d="M182.692 141.434C184.184 139.642 186.197 138.361 188.452 137.768C197.822 134.364 207.565 132.089 217.474 130.991C218.656 133.041 217.474 135.779 215.589 137.215C213.574 138.47 211.372 139.399 209.067 139.967C207.917 140.266 206.839 140.791 205.896 141.513C204.953 142.235 204.164 143.139 203.576 144.171C202.559 146.475 203.322 149.243 202.424 151.651C200.928 155.705 195.154 156.917 193.613 160.971C192.461 164.053 194.196 167.374 194.57 170.635C194.771 172.293 194.615 173.973 194.113 175.565C193.611 177.157 192.775 178.624 191.66 179.866C190.545 181.108 189.177 182.098 187.649 182.769C186.12 183.44 184.466 183.776 182.797 183.755C182.348 172.027 181.904 160.303 181.466 148.584C181.376 146.086 181.331 143.453 182.692 141.434Z" fill="#263238"/>
<path d="M158.472 170.546C160.357 168.93 162.706 167.554 163.499 165.175C164.636 161.749 162.003 157.695 163.783 154.524C165.473 151.681 170.275 151.92 171.846 149.018C173.073 146.759 171.756 144.71 172.235 142.705C172.666 141.636 173.423 140.73 174.397 140.116C175.372 139.501 176.515 139.208 177.666 139.279L193.194 162.766C194.526 170.576 195.947 174.734 194.182 179.222C193.051 181.618 192.173 184.125 191.564 186.702C191.275 188.003 191.339 189.358 191.75 190.625C192.16 191.893 192.901 193.028 193.897 193.913C184.323 194.482 175.452 189.306 167.268 184.294L158.607 178.998C157.654 178.526 156.836 177.821 156.228 176.949C155.031 174.869 156.647 172.176 158.472 170.546Z" fill="#263238"/>
<path d="M167.119 182.02C167.449 182.131 167.79 182.206 168.136 182.244C169.135 182.365 170.147 182.314 171.128 182.095C172.692 181.752 174.14 181.01 175.332 179.941C176.901 178.487 177.907 176.527 178.174 174.405C178.339 173.175 178.258 171.924 177.935 170.725C177.527 169.459 176.953 168.251 176.229 167.135C175.46 165.987 174.865 164.732 174.464 163.41C174.261 162.734 174.209 162.021 174.313 161.323C174.416 160.625 174.672 159.958 175.063 159.371C175.96 158.219 177.576 157.964 179.087 157.396C179.911 157.118 180.631 156.596 181.151 155.9C181.645 155.168 181.896 154.299 181.869 153.416C181.697 151.718 181.362 150.039 180.867 148.405C180.687 147.602 180.687 146.769 180.867 145.966C181.09 145.18 181.589 144.5 182.273 144.051C183.76 143.232 185.438 142.819 187.135 142.855C188.877 142.826 190.584 142.363 192.102 141.508C193.55 140.641 194.738 139.401 195.543 137.918C196.227 136.478 196.676 134.937 196.874 133.355C197.068 131.897 197.414 130.463 197.907 129.077C198.424 127.807 199.21 126.663 200.21 125.725C201.88 124.179 203.997 123.201 206.258 122.932C208.518 122.663 210.806 123.117 212.792 124.229C214.163 124.959 215.389 125.933 216.412 127.102C217.275 128.115 218.018 129.224 218.626 130.408C218.626 130.408 218.626 130.318 218.626 130.169C218.626 130.019 218.462 129.75 218.297 129.451C217.851 128.559 217.298 127.726 216.651 126.967C215.637 125.751 214.404 124.737 213.016 123.975C211.174 122.911 209.068 122.392 206.942 122.479C204.345 122.651 201.885 123.707 199.971 125.471C198.915 126.451 198.079 127.645 197.518 128.972C197.01 130.386 196.654 131.85 196.455 133.34C196.247 134.864 195.808 136.347 195.154 137.738C194.396 139.138 193.267 140.302 191.893 141.104C190.457 141.925 188.834 142.363 187.18 142.376C185.381 142.339 183.604 142.783 182.034 143.663C181.24 144.185 180.661 144.977 180.403 145.892C180.202 146.778 180.202 147.698 180.403 148.584C180.879 150.187 181.209 151.829 181.391 153.491C181.421 154.264 181.212 155.026 180.792 155.675C180.317 156.268 179.685 156.714 178.967 156.962C178.249 157.246 177.471 157.441 176.723 157.74C175.948 158.011 175.261 158.487 174.734 159.116C174.289 159.765 173.999 160.506 173.885 161.284C173.771 162.062 173.836 162.855 174.075 163.604C174.493 164.971 175.113 166.267 175.915 167.449C176.623 168.528 177.186 169.695 177.591 170.92C178.025 172.475 178.032 174.118 177.611 175.677C177.19 177.235 176.356 178.651 175.197 179.776C174.058 180.835 172.668 181.586 171.158 181.96C169.83 182.256 168.455 182.276 167.119 182.02Z" fill="#455A64"/>
<path d="M154.687 165.295C154.523 165.527 154.41 165.793 154.358 166.073C154.19 166.883 154.318 167.726 154.717 168.451C155.006 168.979 155.416 169.43 155.914 169.768C156.528 170.139 157.23 170.34 157.948 170.351C158.826 170.35 159.686 170.109 160.435 169.652C161.185 169.196 161.794 168.542 162.197 167.763C162.669 166.868 162.92 165.873 162.93 164.861C162.915 163.776 162.707 162.702 162.317 161.689C161.599 159.61 160.267 157.56 160.282 155.152C160.249 154.556 160.335 153.959 160.535 153.396C160.736 152.833 161.046 152.317 161.449 151.876C162.441 151.097 163.695 150.732 164.95 150.858C166.345 150.993 167.754 150.877 169.109 150.514C169.816 150.239 170.419 149.747 170.829 149.108C171.231 148.474 171.487 147.759 171.577 147.014C171.663 145.592 171.573 144.165 171.308 142.765C171.126 141.447 171.228 140.106 171.607 138.83C172.334 136.397 173.967 134.336 176.17 133.071C178.246 132.068 180.538 131.595 182.842 131.695C184.893 131.73 186.936 131.447 188.901 130.857C190.512 130.292 191.989 129.401 193.239 128.239C194.195 127.375 195.008 126.365 195.648 125.247C196.219 124.328 196.625 123.315 196.844 122.255C196.486 123.267 196.025 124.239 195.468 125.157C193.919 127.65 191.557 129.531 188.781 130.483C186.836 131.034 184.818 131.287 182.797 131.231C180.418 131.112 178.047 131.59 175.9 132.622C173.583 133.929 171.85 136.068 171.053 138.606C170.659 139.955 170.547 141.371 170.724 142.765C170.991 144.119 171.081 145.502 170.993 146.879C170.956 147.536 170.738 148.17 170.363 148.711C169.988 149.252 169.471 149.68 168.869 149.946C167.581 150.278 166.244 150.384 164.92 150.26C163.528 150.129 162.14 150.554 161.06 151.442C160.601 151.927 160.247 152.501 160.021 153.129C159.794 153.757 159.7 154.426 159.744 155.092C159.771 156.324 160.04 157.539 160.536 158.667C160.985 159.759 161.479 160.777 161.853 161.794C162.239 162.745 162.447 163.759 162.466 164.786C162.47 165.733 162.244 166.668 161.808 167.509C161.441 168.231 160.886 168.84 160.201 169.272C159.517 169.703 158.728 169.942 157.918 169.962C157.417 169.972 156.92 169.872 156.462 169.67C156.003 169.469 155.594 169.169 155.262 168.794C154.93 168.418 154.685 167.975 154.541 167.495C154.398 167.014 154.361 166.509 154.433 166.013C154.505 165.769 154.59 165.53 154.687 165.295Z" fill="#263238"/>
<path d="M255.353 172.984C255.639 173.792 255.639 174.674 255.353 175.482C255.183 175.945 254.913 176.363 254.561 176.707C254.209 177.052 253.784 177.313 253.318 177.472C252.699 177.639 252.045 177.631 251.43 177.449C250.814 177.267 250.262 176.917 249.833 176.44C249.344 175.879 249.068 175.164 249.055 174.42C249.038 173.599 249.175 172.782 249.459 172.012C250.324 170.307 250.833 168.444 250.955 166.536C250.902 165.463 250.626 164.412 250.144 163.452C249.662 162.491 248.986 161.641 248.157 160.956C247.275 160.225 246.259 159.671 245.165 159.326C244.062 158.993 242.921 158.807 241.769 158.772C240.657 158.739 239.55 158.604 238.463 158.368C237.445 158.134 236.544 157.546 235.92 156.708C235.365 155.862 235.064 154.876 235.052 153.865C235.012 152.859 235.112 151.852 235.351 150.873C235.915 149.063 236.242 147.187 236.324 145.293C236.26 143.607 235.697 141.978 234.708 140.611C233.863 139.529 232.823 138.616 231.641 137.918C230.779 137.394 229.959 136.803 229.188 136.153C228.55 135.583 228.04 134.884 227.692 134.103C227.692 134.103 227.692 134.103 227.692 134.283C227.741 134.441 227.8 134.596 227.871 134.746C228.162 135.337 228.557 135.869 229.038 136.317C229.793 137.007 230.603 137.632 231.462 138.187C232.594 138.882 233.584 139.785 234.379 140.85C235.318 142.162 235.839 143.726 235.875 145.338C235.761 147.192 235.425 149.025 234.873 150.798C234.619 151.805 234.503 152.842 234.529 153.88C234.551 154.991 234.883 156.074 235.486 157.007C236.184 157.952 237.198 158.616 238.343 158.877C239.458 159.133 240.596 159.279 241.739 159.311C242.844 159.351 243.939 159.527 245.001 159.834C246.011 160.162 246.953 160.668 247.783 161.33C248.558 161.966 249.192 162.755 249.646 163.649C250.099 164.543 250.361 165.521 250.416 166.521C250.551 168.451 249.548 170.127 248.92 171.817C248.626 172.642 248.489 173.515 248.516 174.39C248.549 175.234 248.877 176.039 249.444 176.664C249.927 177.183 250.547 177.556 251.232 177.741C251.916 177.926 252.639 177.916 253.318 177.712C253.818 177.534 254.27 177.242 254.638 176.861C255.007 176.479 255.282 176.018 255.443 175.512C255.679 174.892 255.726 174.215 255.577 173.568C255.537 173.362 255.461 173.164 255.353 172.984Z" fill="#263238"/>
<path d="M353.161 176.874C354.508 178.878 350.319 181.272 350.319 181.272C351.426 181.99 350.798 185.76 349.032 186.089C349.84 186.583 350.394 186.583 350.828 187.436C351.06 187.855 351.188 188.324 351.201 188.803C351.214 189.282 351.111 189.757 350.902 190.188C350.681 190.615 350.325 190.957 349.89 191.163C349.455 191.368 348.964 191.425 348.494 191.325C349.012 191.854 349.358 192.527 349.486 193.256C349.614 193.985 349.519 194.736 349.212 195.409C348.821 196.214 348.143 196.843 347.312 197.174C346.902 197.337 346.467 197.428 346.026 197.444C345.857 197.466 345.686 197.466 345.517 197.444C345.443 197.413 345.377 197.367 345.322 197.309C345.053 197.085 344.829 196.8 344.53 196.591L344.2 196.352C343.669 196.022 343.095 195.766 342.495 195.589C342.206 195.535 341.921 195.46 341.642 195.364C341.485 195.254 341.336 195.134 341.193 195.005C340.127 194.397 338.944 194.02 337.723 193.898C336.386 193.768 335.116 193.248 334.072 192.402C333.569 191.96 333.258 191.34 333.205 190.672C333.152 190.005 333.361 189.343 333.788 188.827C333.365 188.787 332.971 188.592 332.681 188.281C332.392 187.969 332.227 187.562 332.217 187.136C332.222 186.71 332.335 186.293 332.547 185.923C332.76 185.554 333.063 185.245 333.429 185.027C334.163 184.592 335 184.365 335.853 184.369C335.368 184.245 334.95 183.936 334.69 183.508C334.43 183.08 334.348 182.568 334.461 182.08C334.596 181.599 334.848 181.16 335.196 180.802C335.543 180.444 335.975 180.179 336.451 180.03C337.422 179.744 338.444 179.678 339.443 179.836C340.445 179.941 344.574 180.33 345.577 180.285L346.31 177.547L346.4 177.203C348.18 176.784 348.688 176.56 350.289 176.29C351.456 176.081 352.608 176.036 353.161 176.874Z" fill="#FFBF9D"/>
<path d="M346.026 201.064C345.973 201.475 345.835 201.871 345.622 202.227C345.408 202.582 345.123 202.889 344.784 203.129C343.606 203.467 342.353 203.436 341.193 203.039L341.567 200.211L341.672 199.523C341.418 198.925 340.176 198.775 339.697 198.431C339.234 198.102 338.917 197.606 338.814 197.047C338.711 196.489 338.829 195.912 339.144 195.439C339.48 194.98 339.94 194.627 340.47 194.42C341 194.214 341.578 194.162 342.136 194.272C343.246 194.513 344.227 195.158 344.889 196.082C345.412 196.789 345.783 197.597 345.978 198.454C346.174 199.312 346.19 200.2 346.026 201.064Z" fill="#FFBF9D"/>
<path d="M348.823 191.385C343.914 190.011 338.875 189.148 333.788 188.812C336.22 189.617 338.726 190.178 341.268 190.487C343.75 191.037 346.281 191.338 348.823 191.385Z" fill="#FF9A6C"/>
<path d="M349.257 186.104C347.118 185.189 344.844 184.629 342.525 184.444C340.242 184.003 337.901 183.942 335.598 184.264C337.852 184.716 340.13 185.035 342.42 185.221C344.68 185.649 346.963 185.944 349.257 186.104Z" fill="#FF9A6C"/>
<path d="M349.691 180.943C347.91 180.227 346.015 179.837 344.096 179.791C342.206 179.485 340.285 179.43 338.381 179.626C340.204 180.195 342.097 180.507 344.006 180.554C345.884 180.861 347.788 180.992 349.691 180.943Z" fill="#FF9A6C"/>
<path d="M345.861 199.269C345.951 199.269 346.19 198.79 346.011 197.937C345.726 196.853 345.028 195.924 344.066 195.349C343.151 194.768 342.137 194.362 341.074 194.153C340.131 194.048 339.712 194.646 339.832 194.691C339.952 194.736 340.296 194.482 340.969 194.691C341.884 195.044 342.766 195.48 343.602 195.993C344.424 196.478 345.077 197.204 345.472 198.072C345.756 198.775 345.741 199.254 345.861 199.269Z" fill="#FF9A6C"/>
<path d="M188.392 196.875C179.745 204.759 173.911 207.736 172.789 215.86C172.033 223.035 172.803 230.29 175.048 237.148C179.73 251.016 185.714 267.322 189.349 275.161C190.654 278 190.888 281.214 190.008 284.212C187.973 291.019 182.528 303.989 183.365 330.333L264.299 324.679C264.299 324.679 250.222 292.26 247.125 276.089C246.751 274.129 248.905 250.776 247.873 246.168C243.938 228.979 225.328 211.955 219.21 202.784L218.506 199.792L188.946 194.856L188.392 196.875Z" fill="#455A64"/>
<g opacity="0.3">
<path d="M188.108 266.708C188.108 266.708 198.146 287.652 203.143 289.612C208.139 291.572 249.728 285.902 249.728 285.902L247.2 276.088L188.108 266.708Z" fill="black"/>
</g>
<path d="M224.431 209.501C224.935 209.845 225.397 210.246 225.807 210.698C226.645 211.521 227.812 212.763 229.158 214.378C231.896 217.58 235.142 222.397 238.882 227.558C242.181 231.952 244.808 236.812 246.676 241.98C247.216 243.558 247.64 245.173 247.948 246.812C248.086 247.405 248.151 248.013 248.142 248.622C248.008 248.622 247.634 246.064 246.153 242.174C244.158 237.123 241.502 232.359 238.254 228.007C234.499 222.831 231.327 217.999 228.724 214.723C227.453 213.077 226.36 211.731 225.583 210.908C225.152 210.479 224.766 210.008 224.431 209.501Z" fill="#263238"/>
<path d="M177.92 206.136C177.92 206.136 160.417 217.864 170.949 238.344C180.314 256.551 195.513 278.901 201.647 282.417C207.78 285.932 273.963 271.645 273.963 271.645L271.899 246.049L215.051 258.017L198.714 227.483C198.714 227.483 192.282 201.722 177.92 206.136Z" fill="#455A64"/>
<path d="M272.168 249.654C272.168 249.654 272.826 246.916 277.703 243.67C280.647 241.818 283.067 239.243 284.734 236.19C285.707 234.694 287.068 232.061 288.43 232.809C289.791 233.557 289.552 235.637 288.624 238.913C287.696 242.189 284.929 244.897 286.006 246.153C287.083 247.41 302.073 245.794 306.426 244.912C310.78 244.029 312.829 244.418 312.201 246.572C311.573 248.727 297.989 249.235 297.017 251.27C296.044 253.304 297.6 252.856 299.096 253.424C300.592 253.992 315.253 252.407 315.552 255.07C315.851 257.732 314.056 257.912 314.056 257.912C314.056 257.912 314.505 261.069 312.126 261.966C309.748 262.864 294.877 261.069 295.371 262.939C295.865 264.809 307.339 265.751 307.698 268.683C308.057 271.615 305.2 270.493 302.208 269.865C297.586 268.709 292.869 267.973 288.115 267.666C283.149 267.591 273.634 266.783 273.634 266.783L272.168 249.654Z" fill="#FFBF9D"/>
<path d="M314.25 258.226C310.949 258.486 307.633 258.486 304.332 258.226C301.019 258.199 297.713 257.919 294.443 257.388C297.744 257.129 301.061 257.129 304.362 257.388C307.675 257.416 310.98 257.696 314.25 258.226Z" fill="#B20937"/>
<path d="M210.832 266.709C210.732 265.071 211.162 263.445 212.059 262.071C212.724 260.57 213.865 259.329 215.305 258.54C215.455 258.705 213.959 260.201 212.747 262.445C211.535 264.689 211.116 266.738 210.832 266.709Z" fill="#263238"/>
<path d="M195.274 221.559C195.428 221.751 195.573 221.951 195.707 222.158C195.977 222.562 196.351 223.19 196.829 223.998C197.802 225.628 199.178 228.067 200.928 231.208C204.399 237.492 209.381 246.572 215.305 257.897L214.976 257.747L271.824 245.675L272.258 245.585V246.019C272.931 254.232 273.619 262.744 274.322 271.451V271.57V271.915L273.993 271.989C257.088 275.61 240.946 278.781 226.121 281.115C222.426 281.698 218.806 282.207 215.29 282.611C211.861 283.046 208.409 283.271 204.953 283.284C204.109 283.261 203.269 283.171 202.439 283.015C202.01 282.923 201.6 282.755 201.228 282.521L200.36 281.848C199.705 281.376 199.094 280.845 198.535 280.262C197.957 279.727 197.413 279.158 196.904 278.557C195.872 277.405 194.87 276.253 193.987 275.056C193.104 273.859 192.207 272.722 191.384 271.57C184.846 262.31 180.329 254.322 177.172 248.846C175.676 246.094 174.434 243.939 173.656 242.458C173.282 241.755 172.998 241.187 172.789 240.783C172.682 240.596 172.592 240.401 172.519 240.199C172.639 240.373 172.748 240.553 172.849 240.738L173.791 242.384L177.441 248.697C180.658 254.127 185.25 262.071 191.833 271.256C192.656 272.393 193.508 273.56 194.436 274.697C195.363 275.834 196.321 277.016 197.338 278.153C197.846 278.735 198.385 279.29 198.954 279.813C199.499 280.367 200.095 280.868 200.734 281.309L201.676 282.013C201.823 282.125 201.991 282.206 202.17 282.252C202.341 282.331 202.522 282.387 202.709 282.416C203.499 282.563 204.299 282.648 205.102 282.671C208.52 282.64 211.932 282.4 215.32 281.953C218.836 281.534 222.441 281.01 226.136 280.457C240.887 278.093 257.028 274.892 273.903 271.271L273.604 271.69V271.556C272.901 262.819 272.213 254.307 271.555 246.124L272.018 246.468L215.17 258.361H214.961L214.856 258.151C209.022 246.827 204.1 237.686 200.719 231.358C199.014 228.231 197.727 225.778 196.77 224.087L195.707 222.202L195.274 221.559Z" fill="#263238"/>
</svg>
