<svg width="612" height="497" viewBox="0 0 612 497" fill="none" xmlns="http://www.w3.org/2000/svg">
<path d="M306 497C474.999 497 612 488.875 612 478.853C612 468.83 474.999 460.705 306 460.705C137.001 460.705 0 468.83 0 478.853C0 488.875 137.001 497 306 497Z" fill="#F5F5F5"/>
<path d="M77.8216 438.646C77.8216 438.646 75.5805 422.359 65.3694 420.547C55.1584 418.736 58.1886 410.928 55.5214 407.818C52.8542 404.708 45.8469 413.782 51.8442 422.503C57.8414 431.224 52.9331 428.483 55.5214 436.594C58.1097 444.706 78.7369 452.161 77.8216 438.646Z" fill="#263238"/>
<path opacity="0.2" d="M77.8216 438.646C77.8216 438.646 75.5805 422.359 65.3694 420.547C55.1584 418.736 58.1886 410.928 55.5214 407.818C52.8542 404.708 45.8469 413.782 51.8442 422.503C57.8414 431.224 52.9331 428.483 55.5214 436.594C58.1097 444.706 78.7369 452.161 77.8216 438.646Z" fill="white"/>
<path d="M77.3955 449.948C77.2614 449.95 77.1295 449.914 77.015 449.843C76.9005 449.772 76.8081 449.67 76.7485 449.548C76.7485 449.371 68.8574 432.41 72.945 405.398C74.2734 397.661 76.389 390.086 79.2578 382.794C84.2134 369.039 88.1432 358.17 79.1631 338.323C76.3223 332.039 73.4342 326.187 70.625 320.528C60.0825 299.271 51.6864 282.486 57.9993 265.493C58.031 265.403 58.0799 265.321 58.1432 265.25C58.2065 265.18 58.2829 265.123 58.368 265.083C58.4532 265.042 58.5453 265.02 58.6391 265.016C58.733 265.012 58.8266 265.027 58.9146 265.06C59.0906 265.129 59.2334 265.264 59.3129 265.438C59.3924 265.611 59.4024 265.809 59.3408 265.99C53.3593 282.406 61.566 298.934 71.9665 319.871C74.7757 325.546 77.6954 331.414 80.5362 337.714C89.7687 358.106 85.5391 369.776 80.6624 383.291C77.8274 390.488 75.7433 397.967 74.4443 405.606C70.3883 432.17 78.0426 448.762 78.1215 448.89C78.1976 449.065 78.204 449.263 78.1392 449.443C78.0744 449.622 77.9436 449.769 77.7743 449.852C77.66 449.921 77.5283 449.955 77.3955 449.948Z" fill="#263238"/>
<path d="M71.4615 445.973C71.4615 445.973 64.833 435.809 74.4128 430.583C83.9926 425.356 85.9022 429.573 91.7732 425.773C97.6441 421.974 102.189 412.948 103.199 418.736C104.209 424.523 97.36 427.873 99.7905 430.535C102.221 433.196 83.7401 450.558 71.4615 445.973Z" fill="#263238"/>
<path d="M55.8056 274.214C55.8056 274.214 49.335 254.255 64.0439 253.838C78.7529 253.422 62.5446 272.098 55.8056 274.214Z" fill="#263238"/>
<path d="M68.5891 289.572C68.5891 289.572 72.9608 271.425 83.4085 275.24C93.8563 279.055 78.9895 289.909 68.5891 289.572Z" fill="#263238"/>
<path d="M50.8658 291.143C50.8658 291.143 52.444 276.715 41.3965 276.362C30.349 276.01 35.2257 288.802 50.8658 291.143Z" fill="#263238"/>
<path d="M58.2202 320.689C58.2202 320.689 43.3534 307.238 38.0191 317.258C32.6847 327.277 49.2402 329.377 58.2202 320.689Z" fill="#263238"/>
<path d="M84.5449 318.3C84.5449 318.3 87.3384 295.952 99.3486 302.958C111.359 309.964 95.0085 320.544 84.5449 318.3Z" fill="#263238"/>
<path d="M95.1189 350.314C95.1189 350.314 86.2494 327.726 102.726 330.275C119.202 332.824 106.735 344.832 95.1189 350.314Z" fill="#263238"/>
<path d="M69.836 358.378C69.836 358.378 55.9161 341.738 45.2947 347.012C34.6734 352.286 43.3535 368.846 69.836 358.378Z" fill="#263238"/>
<path d="M82.4617 395.266C82.4617 395.266 94.3141 368.526 104.857 377.535C115.399 386.545 98.1333 400.027 82.4617 395.266Z" fill="#263238"/>
<path d="M65.2434 393.695C65.2434 393.695 68.3998 372.966 56.6421 374.634C44.8844 376.301 47.9777 388.982 65.2434 393.695Z" fill="#263238"/>
<g opacity="0.2">
<path d="M55.8056 274.214C55.8056 274.214 49.335 254.255 64.0439 253.838C78.7529 253.422 62.5446 272.098 55.8056 274.214Z" fill="white"/>
<path d="M68.5891 289.572C68.5891 289.572 72.9608 271.425 83.4085 275.24C93.8563 279.055 78.9895 289.909 68.5891 289.572Z" fill="white"/>
<path d="M50.8658 291.143C50.8658 291.143 52.444 276.715 41.3965 276.362C30.349 276.01 35.2257 288.802 50.8658 291.143Z" fill="white"/>
<path d="M58.2202 320.689C58.2202 320.689 43.3534 307.238 38.0191 317.258C32.6847 327.277 49.2402 329.377 58.2202 320.689Z" fill="white"/>
<path d="M84.5449 318.3C84.5449 318.3 87.3384 295.952 99.3486 302.958C111.359 309.964 95.0085 320.544 84.5449 318.3Z" fill="white"/>
<path d="M95.1189 350.314C95.1189 350.314 86.2494 327.726 102.726 330.275C119.202 332.824 106.735 344.832 95.1189 350.314Z" fill="white"/>
<path d="M69.836 358.378C69.836 358.378 55.9161 341.738 45.2947 347.012C34.6734 352.286 43.3535 368.846 69.836 358.378Z" fill="white"/>
<path d="M82.4617 395.266C82.4617 395.266 94.3141 368.526 104.857 377.535C115.399 386.545 98.1333 400.027 82.4617 395.266Z" fill="white"/>
<path d="M65.2434 393.695C65.2434 393.695 68.3998 372.966 56.6421 374.634C44.8844 376.301 47.9777 388.982 65.2434 393.695Z" fill="white"/>
</g>
<path d="M62.1657 301.595C62.0439 301.593 61.9244 301.56 61.8185 301.499C53.1225 296.546 46.857 287.199 46.5887 286.799C46.4862 286.636 46.4503 286.44 46.4886 286.251C46.527 286.062 46.6365 285.896 46.7939 285.789C46.8711 285.735 46.958 285.698 47.0496 285.68C47.1411 285.662 47.2354 285.662 47.3267 285.682C47.4181 285.701 47.5046 285.739 47.5812 285.793C47.6577 285.847 47.7228 285.917 47.7724 285.997C47.7724 286.077 53.8012 294.991 61.8816 299.864C63.2231 297.363 68.0051 288.738 71.998 286.302C72.0787 286.253 72.1681 286.22 72.2611 286.207C72.3542 286.193 72.449 286.198 72.54 286.222C72.631 286.246 72.7164 286.288 72.7914 286.346C72.8663 286.403 72.9292 286.476 72.9765 286.558C73.0266 286.638 73.06 286.728 73.0744 286.822C73.0888 286.915 73.084 287.011 73.0603 287.103C73.0366 287.195 72.9945 287.281 72.9366 287.355C72.8787 287.43 72.8063 287.491 72.724 287.536C68.4786 290.133 62.8601 301.082 62.797 301.195C62.755 301.283 62.6955 301.361 62.6221 301.425C62.5488 301.488 62.4632 301.535 62.3709 301.563L62.1657 301.595Z" fill="#263238"/>
<path d="M75.6596 329.378C75.5009 329.379 75.346 329.328 75.2177 329.233C62.8445 319.727 47.015 320.128 46.8098 320.128C46.6221 320.124 46.4423 320.05 46.3052 319.92C46.1682 319.79 46.0837 319.612 46.0681 319.422C46.066 319.327 46.0823 319.233 46.116 319.145C46.1498 319.056 46.2004 318.976 46.2648 318.907C46.3293 318.839 46.4065 318.784 46.4919 318.746C46.5772 318.707 46.6692 318.687 46.7625 318.685C46.9203 318.685 62.7182 318.268 75.4071 327.614C76.9853 324.921 83.4244 315.19 91.5837 310.316C91.6638 310.265 91.7533 310.231 91.8469 310.216C91.9404 310.201 92.0359 310.206 92.1275 310.23C92.2191 310.254 92.305 310.297 92.3797 310.356C92.4545 310.415 92.5166 310.489 92.5622 310.573C92.6124 310.653 92.6457 310.743 92.6602 310.836C92.6746 310.93 92.6698 311.026 92.6461 311.118C92.6224 311.21 92.5803 311.295 92.5224 311.37C92.4645 311.444 92.3921 311.506 92.3097 311.551C83.3139 316.937 76.2909 328.913 76.2119 329.025C76.1641 329.114 76.0964 329.191 76.0143 329.25C75.9321 329.308 75.8377 329.346 75.7385 329.361L75.6596 329.378Z" fill="#263238"/>
<path d="M84.2293 365.993C84.1074 365.991 83.988 365.958 83.8821 365.897C83.6927 365.784 65.6063 355.22 52.5229 354.963C52.4297 354.963 52.3373 354.945 52.2512 354.908C52.165 354.872 52.0867 354.819 52.0207 354.752C51.9548 354.685 51.9025 354.606 51.8668 354.518C51.8311 354.431 51.8127 354.337 51.8127 354.242C51.8127 354.147 51.8311 354.053 51.8668 353.966C51.9025 353.878 51.9548 353.799 52.0207 353.732C52.0867 353.665 52.165 353.612 52.2512 353.575C52.3373 353.539 52.4297 353.521 52.5229 353.521C64.9908 353.761 81.2307 362.738 84.0872 364.39C92.4833 357.208 99.1434 339.541 99.2223 339.365C99.2521 339.272 99.3001 339.186 99.3635 339.113C99.4269 339.039 99.5044 338.979 99.5912 338.937C99.678 338.895 99.7723 338.871 99.8685 338.867C99.9647 338.863 100.061 338.879 100.151 338.914C100.24 338.949 100.322 339.002 100.392 339.07C100.461 339.138 100.516 339.219 100.553 339.309C100.59 339.399 100.609 339.496 100.608 339.594C100.607 339.692 100.587 339.788 100.548 339.878C100.264 340.631 93.4776 358.602 84.608 365.833C84.5011 365.924 84.3688 365.98 84.2293 365.993Z" fill="#263238"/>
<path d="M73.7655 403.907C73.6383 403.907 73.5132 403.874 73.4026 403.811C66.5689 399.835 57.7309 382.425 57.3521 381.687C57.3096 381.602 57.2841 381.509 57.277 381.414C57.2698 381.319 57.2812 381.223 57.3106 381.132C57.3399 381.041 57.3865 380.957 57.4478 380.885C57.5091 380.812 57.5838 380.753 57.6678 380.71C57.7517 380.666 57.8432 380.64 57.937 380.633C58.0308 380.626 58.1251 380.638 58.2145 380.667C58.3039 380.697 58.3866 380.744 58.458 380.807C58.5294 380.869 58.588 380.945 58.6305 381.03C58.6305 381.207 67.1686 397.847 73.5919 402.207C78.8248 396.011 85.7426 391.521 93.4774 389.302C93.6594 389.252 93.8535 389.276 94.0184 389.369C94.1833 389.462 94.3063 389.616 94.3612 389.799C94.4153 389.982 94.3959 390.179 94.3071 390.347C94.2184 390.516 94.0676 390.641 93.8878 390.697C86.2394 392.857 79.4192 397.33 74.3337 403.522C74.2823 403.632 74.2022 403.727 74.1021 403.794C74.0021 403.862 73.8857 403.901 73.7655 403.907Z" fill="#263238"/>
<path d="M72.4242 443.552C72.4242 443.552 66.7269 434.35 60.3036 433.035C53.8802 431.721 51.1657 424.202 48.751 428.771C46.3364 433.34 52.9649 448.249 72.4242 443.552Z" fill="#263238"/>
<path d="M42.9432 479.67H105.093L109.26 440.73H38.7925L42.9432 479.67Z" fill="#B20937"/>
<path d="M37.3405 448.105H110.712L111.643 439.865H36.3936L37.3405 448.105Z" fill="#B20937"/>
<path opacity="0.3" d="M37.3405 448.105H110.712L111.643 439.865H36.3936L37.3405 448.105Z" fill="white"/>
<path d="M588.343 58.546L582.945 111.209H555.926L550.529 58.546H588.343Z" fill="#263238"/>
<path opacity="0.3" d="M588.343 58.546L582.945 111.209H555.926L550.529 58.546H588.343Z" fill="white"/>
<path d="M574.454 99.8906H564.401V479.67H574.454V99.8906Z" fill="#263238"/>
<path opacity="0.3" d="M574.454 99.8906H564.401V479.67H574.454V99.8906Z" fill="white"/>
<path d="M580.104 108.002H558.767L554.032 61.7523H584.839L580.104 108.002Z" fill="#B20937"/>
<path opacity="0.4" d="M580.104 108.002H558.767L554.032 61.7523H584.839L580.104 108.002Z" fill="white"/>
<path d="M566.626 108.724H565.174L563.596 60.1492H565.048L566.626 108.724Z" fill="#263238"/>
<path opacity="0.3" d="M566.626 108.724H565.174L563.596 60.1492H565.048L566.626 108.724Z" fill="white"/>
<path opacity="0.2" d="M588.343 58.546L582.945 111.209H565.964L563.928 58.546H588.343Z" fill="white"/>
<path d="M569.436 41.6171C569.436 41.6171 553.401 57.6483 541.123 57.6483L544.942 60.1972H593.866L597.67 57.6483C585.455 57.6804 569.436 41.6171 569.436 41.6171Z" fill="#263238"/>
<path opacity="0.4" d="M597.733 57.68L593.929 60.213H545.005L541.154 57.68C553.432 57.68 569.451 41.6488 569.451 41.6488C569.451 41.6488 585.454 57.68 597.733 57.68Z" fill="white"/>
<path opacity="0.2" d="M597.733 57.6804L593.929 60.2133H562.113C561.15 58.6102 560.534 57.4719 560.534 57.4719C569.073 53.4481 569.499 41.6171 569.499 41.6171C569.499 41.6171 585.454 57.6804 597.733 57.6804Z" fill="white"/>
<path d="M560.803 472.649H578.069C579.102 472.649 580.094 473.066 580.825 473.808C581.556 474.551 581.967 475.558 581.967 476.608V479.67H556.936V476.608C556.936 475.564 557.343 474.561 558.067 473.82C558.791 473.078 559.775 472.657 560.803 472.649Z" fill="#263238"/>
<path opacity="0.5" d="M560.803 472.649H578.069C579.102 472.649 580.094 473.066 580.825 473.808C581.556 474.551 581.967 475.558 581.967 476.608V479.67H556.936V476.608C556.936 475.564 557.343 474.561 558.067 473.82C558.791 473.078 559.775 472.657 560.803 472.649Z" fill="white"/>
<path d="M290.234 0H84.1504C77.3256 0 71.793 5.61993 71.793 12.5525V305.796C71.793 312.728 77.3256 318.348 84.1504 318.348H290.234C297.058 318.348 302.591 312.728 302.591 305.796V12.5525C302.591 5.61993 297.058 0 290.234 0Z" fill="#B20937"/>
<path opacity="0.6" d="M290.234 0H84.1504C77.3256 0 71.793 5.61993 71.793 12.5525V305.796C71.793 312.728 77.3256 318.348 84.1504 318.348H290.234C297.058 318.348 302.591 312.728 302.591 305.796V12.5525C302.591 5.61993 297.058 0 290.234 0Z" fill="white"/>
<path d="M218.188 85.3663C218.191 91.5942 216.376 97.6831 212.972 102.863C209.568 108.043 204.728 112.081 199.065 114.466C193.401 116.852 187.168 117.478 181.155 116.265C175.141 115.052 169.616 112.054 165.28 107.651C160.943 103.249 157.99 97.6387 156.793 91.5307C155.595 85.4227 156.208 79.0912 158.554 73.3371C160.899 67.583 164.872 62.6647 169.97 59.2043C175.067 55.744 181.061 53.897 187.192 53.897C191.262 53.8928 195.293 54.7038 199.055 56.2835C202.816 57.8633 206.234 60.1809 209.113 63.1037C211.992 66.0266 214.275 69.4973 215.833 73.3173C217.39 77.1373 218.19 81.2317 218.188 85.3663Z" fill="#B20937"/>
<path opacity="0.7" d="M218.188 85.3663C218.191 91.5942 216.376 97.6831 212.972 102.863C209.568 108.043 204.728 112.081 199.065 114.466C193.401 116.852 187.168 117.478 181.155 116.265C175.141 115.052 169.616 112.054 165.28 107.651C160.943 103.249 157.99 97.6387 156.793 91.5307C155.595 85.4227 156.208 79.0912 158.554 73.3371C160.899 67.583 164.872 62.6647 169.97 59.2043C175.067 55.744 181.061 53.897 187.192 53.897C191.262 53.8928 195.293 54.7038 199.055 56.2835C202.816 57.8633 206.234 60.1809 209.113 63.1037C211.992 66.0266 214.275 69.4973 215.833 73.3173C217.39 77.1373 218.19 81.2317 218.188 85.3663Z" fill="white"/>
<path d="M187.192 93.6705C193.32 93.6705 198.287 88.6248 198.287 82.4006C198.287 76.1763 193.32 71.1306 187.192 71.1306C181.064 71.1306 176.097 76.1763 176.097 82.4006C176.097 88.6248 181.064 93.6705 187.192 93.6705Z" fill="white"/>
<path d="M206.872 109.75C201.326 114.373 194.374 116.899 187.2 116.899C180.026 116.899 173.073 114.373 167.527 109.75C170.431 101.109 176.413 94.7285 183.594 93.1093C185.964 92.5749 188.42 92.5749 190.79 93.1093C197.987 94.6804 203.953 101.061 206.872 109.75Z" fill="white"/>
<path d="M169.281 204.261C169.264 204.117 169.195 204.005 169.074 203.925C168.953 203.846 168.804 203.806 168.628 203.806C168.499 203.806 168.386 203.827 168.29 203.869C168.194 203.91 168.119 203.967 168.065 204.04C168.012 204.113 167.986 204.196 167.986 204.289C167.986 204.367 168.004 204.433 168.041 204.489C168.079 204.544 168.127 204.59 168.186 204.627C168.245 204.663 168.306 204.693 168.371 204.717C168.435 204.739 168.494 204.758 168.548 204.772L168.844 204.851C168.92 204.871 169.004 204.899 169.097 204.934C169.19 204.969 169.28 205.017 169.365 205.077C169.451 205.137 169.522 205.214 169.578 205.307C169.634 205.401 169.662 205.516 169.662 205.653C169.662 205.81 169.621 205.952 169.538 206.079C169.457 206.206 169.338 206.306 169.18 206.381C169.024 206.456 168.834 206.494 168.611 206.494C168.403 206.494 168.222 206.46 168.07 206.393C167.918 206.325 167.799 206.232 167.712 206.111C167.626 205.991 167.577 205.851 167.565 205.692H167.929C167.939 205.802 167.975 205.893 168.04 205.965C168.105 206.036 168.188 206.089 168.287 206.124C168.387 206.158 168.495 206.175 168.611 206.175C168.745 206.175 168.866 206.154 168.973 206.11C169.08 206.065 169.165 206.004 169.227 205.925C169.29 205.846 169.321 205.753 169.321 205.647C169.321 205.55 169.294 205.472 169.24 205.411C169.186 205.351 169.115 205.301 169.027 205.263C168.939 205.226 168.844 205.192 168.742 205.164L168.384 205.062C168.156 204.996 167.976 204.903 167.844 204.782C167.711 204.661 167.645 204.502 167.645 204.306C167.645 204.143 167.689 204.001 167.777 203.88C167.866 203.758 167.985 203.663 168.135 203.596C168.286 203.528 168.454 203.494 168.639 203.494C168.827 203.494 168.993 203.527 169.139 203.594C169.285 203.661 169.401 203.752 169.486 203.867C169.572 203.983 169.617 204.114 169.622 204.261H169.281ZM170.196 206.442V204.261H170.531V206.442H170.196ZM170.366 203.897C170.301 203.897 170.245 203.875 170.197 203.83C170.151 203.786 170.128 203.732 170.128 203.67C170.128 203.607 170.151 203.554 170.197 203.509C170.245 203.465 170.301 203.442 170.366 203.442C170.432 203.442 170.487 203.465 170.534 203.509C170.581 203.554 170.605 203.607 170.605 203.67C170.605 203.732 170.581 203.786 170.534 203.83C170.487 203.875 170.432 203.897 170.366 203.897ZM172.026 207.306C171.864 207.306 171.724 207.285 171.608 207.244C171.492 207.203 171.394 207.149 171.317 207.082C171.24 207.015 171.179 206.944 171.134 206.869L171.401 206.681C171.431 206.721 171.469 206.766 171.516 206.817C171.562 206.869 171.626 206.914 171.706 206.952C171.787 206.991 171.894 207.011 172.026 207.011C172.202 207.011 172.347 206.968 172.462 206.883C172.576 206.797 172.634 206.664 172.634 206.482V206.039H172.605C172.581 206.079 172.546 206.128 172.5 206.187C172.456 206.244 172.391 206.296 172.307 206.342C172.224 206.386 172.111 206.408 171.969 206.408C171.793 206.408 171.635 206.367 171.494 206.283C171.355 206.2 171.245 206.079 171.163 205.92C171.083 205.761 171.043 205.567 171.043 205.34C171.043 205.117 171.082 204.922 171.161 204.756C171.239 204.59 171.349 204.461 171.489 204.37C171.629 204.278 171.791 204.232 171.974 204.232C172.117 204.232 172.229 204.256 172.313 204.303C172.397 204.35 172.461 204.403 172.506 204.462C172.551 204.521 172.586 204.569 172.611 204.607H172.645V204.261H172.969V206.505C172.969 206.692 172.926 206.845 172.841 206.962C172.757 207.081 172.643 207.167 172.5 207.222C172.358 207.278 172.2 207.306 172.026 207.306ZM172.014 206.107C172.149 206.107 172.262 206.076 172.355 206.015C172.448 205.953 172.519 205.865 172.567 205.749C172.615 205.634 172.639 205.495 172.639 205.334C172.639 205.177 172.616 205.039 172.568 204.918C172.521 204.798 172.451 204.704 172.358 204.636C172.265 204.567 172.151 204.533 172.014 204.533C171.872 204.533 171.754 204.569 171.659 204.641C171.565 204.713 171.495 204.81 171.448 204.931C171.401 205.052 171.378 205.187 171.378 205.334C171.378 205.486 171.402 205.62 171.449 205.736C171.497 205.852 171.568 205.943 171.662 206.009C171.757 206.074 171.874 206.107 172.014 206.107ZM173.918 205.13V206.442H173.582V204.261H173.906V204.601H173.935C173.986 204.491 174.064 204.402 174.168 204.334C174.272 204.266 174.406 204.232 174.571 204.232C174.719 204.232 174.848 204.262 174.959 204.323C175.07 204.383 175.156 204.474 175.217 204.596C175.279 204.717 175.31 204.87 175.31 205.056V206.442H174.974V205.079C174.974 204.907 174.93 204.774 174.841 204.678C174.752 204.582 174.63 204.533 174.474 204.533C174.367 204.533 174.272 204.556 174.188 204.603C174.104 204.649 174.038 204.717 173.99 204.806C173.942 204.895 173.918 205.003 173.918 205.13ZM178.422 205.55V204.261H178.758V206.442H178.422V206.073H178.4C178.348 206.184 178.269 206.278 178.161 206.356C178.053 206.432 177.917 206.471 177.752 206.471C177.615 206.471 177.494 206.441 177.388 206.381C177.282 206.321 177.199 206.23 177.138 206.109C177.078 205.986 177.047 205.833 177.047 205.647V204.261H177.383V205.624C177.383 205.783 177.427 205.91 177.516 206.005C177.606 206.1 177.721 206.147 177.86 206.147C177.943 206.147 178.028 206.126 178.114 206.083C178.201 206.04 178.274 205.975 178.333 205.887C178.392 205.799 178.422 205.687 178.422 205.55ZM179.372 207.261V204.261H179.695V204.607H179.735C179.76 204.569 179.794 204.521 179.837 204.462C179.882 204.403 179.945 204.35 180.028 204.303C180.111 204.256 180.224 204.232 180.366 204.232C180.55 204.232 180.711 204.278 180.852 204.37C180.992 204.462 181.101 204.592 181.18 204.761C181.258 204.929 181.298 205.128 181.298 205.357C181.298 205.588 181.258 205.789 181.18 205.958C181.101 206.127 180.992 206.257 180.853 206.35C180.714 206.442 180.553 206.488 180.372 206.488C180.231 206.488 180.119 206.465 180.035 206.418C179.951 206.371 179.886 206.317 179.84 206.258C179.795 206.197 179.76 206.147 179.735 206.107H179.707V207.261H179.372ZM179.701 205.351C179.701 205.516 179.725 205.662 179.774 205.788C179.822 205.913 179.892 206.011 179.985 206.082C180.078 206.152 180.192 206.187 180.326 206.187C180.466 206.187 180.583 206.15 180.677 206.076C180.772 206.001 180.843 205.901 180.89 205.775C180.938 205.648 180.962 205.507 180.962 205.351C180.962 205.198 180.939 205.06 180.891 204.937C180.845 204.813 180.774 204.715 180.68 204.643C180.586 204.57 180.468 204.533 180.326 204.533C180.19 204.533 180.075 204.568 179.982 204.637C179.89 204.705 179.819 204.801 179.772 204.924C179.725 205.046 179.701 205.189 179.701 205.351ZM183.269 205.13V206.442H182.934V204.261H183.258V204.601H183.286C183.337 204.491 183.415 204.402 183.519 204.334C183.623 204.266 183.758 204.232 183.923 204.232C184.07 204.232 184.2 204.262 184.31 204.323C184.421 204.383 184.507 204.474 184.569 204.596C184.631 204.717 184.661 204.87 184.661 205.056V206.442H184.326V205.079C184.326 204.907 184.282 204.774 184.193 204.678C184.104 204.582 183.981 204.533 183.826 204.533C183.719 204.533 183.623 204.556 183.539 204.603C183.456 204.649 183.39 204.717 183.342 204.806C183.293 204.895 183.269 205.003 183.269 205.13ZM186.16 206.488C185.963 206.488 185.79 206.441 185.642 206.347C185.494 206.253 185.378 206.122 185.295 205.954C185.213 205.785 185.172 205.588 185.172 205.363C185.172 205.136 185.213 204.937 185.295 204.768C185.378 204.598 185.494 204.467 185.642 204.373C185.79 204.279 185.963 204.232 186.16 204.232C186.357 204.232 186.53 204.279 186.677 204.373C186.826 204.467 186.941 204.598 187.024 204.768C187.107 204.937 187.149 205.136 187.149 205.363C187.149 205.588 187.107 205.785 187.024 205.954C186.941 206.122 186.826 206.253 186.677 206.347C186.53 206.441 186.357 206.488 186.16 206.488ZM186.16 206.187C186.31 206.187 186.433 206.148 186.53 206.072C186.626 205.995 186.698 205.894 186.744 205.769C186.79 205.644 186.814 205.509 186.814 205.363C186.814 205.217 186.79 205.081 186.744 204.955C186.698 204.829 186.626 204.727 186.53 204.65C186.433 204.572 186.31 204.533 186.16 204.533C186.011 204.533 185.887 204.572 185.791 204.65C185.694 204.727 185.623 204.829 185.576 204.955C185.53 205.081 185.507 205.217 185.507 205.363C185.507 205.509 185.53 205.644 185.576 205.769C185.623 205.894 185.694 205.995 185.791 206.072C185.887 206.148 186.011 206.187 186.16 206.187ZM188.081 206.442L187.416 204.261H187.768L188.24 205.931H188.262L188.728 204.261H189.086L189.547 205.925H189.569L190.041 204.261H190.393L189.728 206.442H189.399L188.922 204.766H188.887L188.41 206.442H188.081Z" fill="black"/>
<path d="M249.642 218.089H124.758C117.637 218.089 111.864 223.953 111.864 231.186V231.202C111.864 238.436 117.637 244.3 124.758 244.3H249.642C256.763 244.3 262.536 238.436 262.536 231.202V231.186C262.536 223.953 256.763 218.089 249.642 218.089Z" fill="#B20937"/>
<g opacity="0.5">
<path d="M159.152 259.409V256.5H160.896V256.813H159.504V257.796H160.766V258.108H159.504V259.409H159.152ZM162.18 259.455C161.984 259.455 161.811 259.408 161.662 259.314C161.514 259.221 161.399 259.089 161.315 258.921C161.233 258.752 161.192 258.555 161.192 258.33C161.192 258.103 161.233 257.904 161.315 257.735C161.399 257.565 161.514 257.434 161.662 257.34C161.811 257.246 161.984 257.199 162.18 257.199C162.377 257.199 162.55 257.246 162.698 257.34C162.846 257.434 162.962 257.565 163.044 257.735C163.127 257.904 163.169 258.103 163.169 258.33C163.169 258.555 163.127 258.752 163.044 258.921C162.962 259.089 162.846 259.221 162.698 259.314C162.55 259.408 162.377 259.455 162.18 259.455ZM162.18 259.154C162.33 259.154 162.453 259.115 162.55 259.039C162.646 258.962 162.718 258.861 162.764 258.736C162.811 258.611 162.834 258.476 162.834 258.33C162.834 258.184 162.811 258.048 162.764 257.922C162.718 257.796 162.646 257.694 162.55 257.617C162.453 257.539 162.33 257.5 162.18 257.5C162.031 257.5 161.908 257.539 161.811 257.617C161.715 257.694 161.643 257.796 161.597 257.922C161.55 258.048 161.527 258.184 161.527 258.33C161.527 258.476 161.55 258.611 161.597 258.736C161.643 258.861 161.715 258.962 161.811 259.039C161.908 259.115 162.031 259.154 162.18 259.154ZM163.681 259.409V257.228H164.005V257.557H164.027C164.067 257.449 164.139 257.362 164.243 257.294C164.348 257.227 164.465 257.194 164.596 257.194C164.62 257.194 164.651 257.194 164.688 257.195C164.725 257.196 164.753 257.197 164.772 257.199V257.54C164.76 257.537 164.734 257.533 164.694 257.527C164.654 257.521 164.612 257.517 164.567 257.517C164.461 257.517 164.366 257.54 164.283 257.584C164.201 257.628 164.135 257.688 164.087 257.766C164.04 257.843 164.016 257.93 164.016 258.029V259.409H163.681ZM165.983 260.273C165.821 260.273 165.682 260.252 165.566 260.211C165.449 260.17 165.352 260.116 165.275 260.049C165.198 259.982 165.137 259.911 165.091 259.836L165.358 259.648C165.389 259.688 165.427 259.733 165.473 259.784C165.52 259.837 165.583 259.881 165.664 259.919C165.745 259.958 165.852 259.978 165.983 259.978C166.16 259.978 166.305 259.935 166.419 259.85C166.534 259.765 166.591 259.631 166.591 259.449V259.006H166.563C166.538 259.046 166.503 259.095 166.458 259.154C166.413 259.212 166.349 259.263 166.265 259.309C166.181 259.353 166.069 259.375 165.927 259.375C165.75 259.375 165.592 259.334 165.452 259.25C165.313 259.167 165.203 259.046 165.121 258.887C165.041 258.728 165 258.534 165 258.307C165 258.084 165.04 257.889 165.118 257.723C165.197 257.557 165.306 257.428 165.446 257.337C165.587 257.245 165.749 257.199 165.932 257.199C166.074 257.199 166.187 257.223 166.27 257.27C166.355 257.317 166.419 257.37 166.464 257.429C166.509 257.488 166.544 257.536 166.569 257.574H166.603V257.228H166.927V259.472C166.927 259.659 166.884 259.812 166.799 259.929C166.714 260.048 166.601 260.134 166.458 260.189C166.316 260.245 166.158 260.273 165.983 260.273ZM165.972 259.074C166.107 259.074 166.22 259.043 166.313 258.982C166.406 258.92 166.476 258.832 166.525 258.716C166.573 258.601 166.597 258.462 166.597 258.301C166.597 258.144 166.573 258.006 166.526 257.885C166.479 257.765 166.409 257.671 166.316 257.603C166.223 257.534 166.108 257.5 165.972 257.5C165.83 257.5 165.712 257.536 165.617 257.608C165.523 257.68 165.453 257.777 165.405 257.898C165.359 258.019 165.336 258.154 165.336 258.301C165.336 258.453 165.359 258.587 165.407 258.703C165.455 258.819 165.526 258.91 165.62 258.976C165.714 259.042 165.832 259.074 165.972 259.074ZM168.427 259.455C168.23 259.455 168.057 259.408 167.908 259.314C167.76 259.221 167.645 259.089 167.562 258.921C167.479 258.752 167.438 258.555 167.438 258.33C167.438 258.103 167.479 257.904 167.562 257.735C167.645 257.565 167.76 257.434 167.908 257.34C168.057 257.246 168.23 257.199 168.427 257.199C168.624 257.199 168.796 257.246 168.944 257.34C169.092 257.434 169.208 257.565 169.29 257.735C169.374 257.904 169.415 258.103 169.415 258.33C169.415 258.555 169.374 258.752 169.29 258.921C169.208 259.089 169.092 259.221 168.944 259.314C168.796 259.408 168.624 259.455 168.427 259.455ZM168.427 259.154C168.576 259.154 168.699 259.115 168.796 259.039C168.892 258.962 168.964 258.861 169.01 258.736C169.057 258.611 169.08 258.476 169.08 258.33C169.08 258.184 169.057 258.048 169.01 257.922C168.964 257.796 168.892 257.694 168.796 257.617C168.699 257.539 168.576 257.5 168.427 257.5C168.277 257.5 168.154 257.539 168.057 257.617C167.961 257.694 167.889 257.796 167.843 257.922C167.796 258.048 167.773 258.184 167.773 258.33C167.773 258.476 167.796 258.611 167.843 258.736C167.889 258.861 167.961 258.962 168.057 259.039C168.154 259.115 168.277 259.154 168.427 259.154ZM170.876 257.228V257.512H169.745V257.228H170.876ZM170.075 256.705H170.41V258.784C170.41 258.879 170.424 258.95 170.451 258.997C170.479 259.044 170.515 259.075 170.559 259.091C170.604 259.106 170.65 259.114 170.7 259.114C170.737 259.114 170.767 259.112 170.791 259.108C170.814 259.104 170.833 259.1 170.847 259.097L170.916 259.398C170.893 259.407 170.861 259.415 170.82 259.424C170.78 259.433 170.728 259.438 170.666 259.438C170.571 259.438 170.478 259.417 170.387 259.377C170.297 259.336 170.222 259.274 170.163 259.191C170.104 259.107 170.075 259.002 170.075 258.875V256.705ZM172.551 259.409V256.5H173.533C173.762 256.5 173.948 256.542 174.093 256.624C174.239 256.705 174.347 256.816 174.417 256.955C174.487 257.094 174.522 257.249 174.522 257.421C174.522 257.592 174.487 257.748 174.417 257.888C174.348 258.028 174.241 258.14 174.096 258.223C173.951 258.306 173.765 258.347 173.539 258.347H172.835V258.034H173.528C173.684 258.034 173.81 258.007 173.904 257.953C173.999 257.899 174.068 257.827 174.11 257.735C174.154 257.642 174.176 257.537 174.176 257.421C174.176 257.304 174.154 257.2 174.11 257.108C174.068 257.016 173.998 256.944 173.903 256.892C173.807 256.839 173.68 256.813 173.522 256.813H172.903V259.409H172.551ZM175.686 259.461C175.548 259.461 175.422 259.435 175.31 259.382C175.197 259.329 175.108 259.253 175.041 259.154C174.975 259.053 174.942 258.932 174.942 258.79C174.942 258.665 174.966 258.564 175.016 258.486C175.065 258.408 175.131 258.346 175.213 258.301C175.296 258.257 175.386 258.224 175.486 258.202C175.586 258.179 175.687 258.161 175.788 258.148C175.921 258.131 176.028 258.118 176.111 258.11C176.194 258.1 176.255 258.085 176.293 258.063C176.332 258.041 176.351 258.003 176.351 257.949V257.938C176.351 257.798 176.313 257.689 176.236 257.611C176.16 257.533 176.045 257.495 175.891 257.495C175.731 257.495 175.605 257.53 175.514 257.6C175.423 257.67 175.359 257.745 175.323 257.824L175.004 257.711C175.061 257.578 175.137 257.475 175.232 257.401C175.327 257.326 175.431 257.274 175.544 257.245C175.658 257.214 175.77 257.199 175.879 257.199C175.949 257.199 176.03 257.208 176.121 257.225C176.213 257.241 176.301 257.274 176.386 257.326C176.473 257.377 176.544 257.454 176.601 257.557C176.658 257.66 176.686 257.799 176.686 257.972V259.409H176.351V259.114H176.334C176.311 259.161 176.273 259.212 176.22 259.266C176.167 259.32 176.097 259.366 176.009 259.404C175.921 259.442 175.813 259.461 175.686 259.461ZM175.737 259.159C175.87 259.159 175.982 259.133 176.073 259.081C176.164 259.029 176.234 258.962 176.28 258.88C176.327 258.797 176.351 258.711 176.351 258.62V258.313C176.337 258.33 176.305 258.346 176.257 258.36C176.21 258.373 176.155 258.385 176.092 258.395C176.031 258.405 175.971 258.413 175.912 258.421C175.854 258.427 175.807 258.433 175.771 258.438C175.684 258.449 175.603 258.468 175.527 258.493C175.452 258.518 175.392 258.555 175.345 258.605C175.3 258.655 175.277 258.722 175.277 258.807C175.277 258.924 175.32 259.012 175.406 259.071C175.493 259.13 175.604 259.159 175.737 259.159ZM178.843 257.716L178.542 257.801C178.523 257.751 178.495 257.703 178.459 257.655C178.423 257.607 178.373 257.567 178.311 257.536C178.248 257.505 178.168 257.489 178.071 257.489C177.937 257.489 177.826 257.52 177.737 257.581C177.649 257.642 177.605 257.719 177.605 257.813C177.605 257.896 177.635 257.962 177.696 258.01C177.756 258.059 177.851 258.099 177.98 258.131L178.304 258.211C178.499 258.258 178.644 258.33 178.74 258.428C178.835 258.524 178.883 258.649 178.883 258.801C178.883 258.926 178.847 259.038 178.775 259.137C178.704 259.235 178.605 259.313 178.477 259.37C178.349 259.426 178.2 259.455 178.031 259.455C177.808 259.455 177.624 259.407 177.478 259.31C177.333 259.213 177.24 259.072 177.201 258.887L177.52 258.807C177.55 258.925 177.607 259.013 177.691 259.071C177.777 259.13 177.888 259.159 178.025 259.159C178.182 259.159 178.306 259.126 178.397 259.06C178.49 258.993 178.537 258.912 178.537 258.819C178.537 258.743 178.51 258.679 178.457 258.628C178.404 258.576 178.323 258.537 178.213 258.512L177.849 258.426C177.649 258.379 177.503 258.306 177.409 258.206C177.316 258.106 177.27 257.98 177.27 257.83C177.27 257.707 177.304 257.598 177.373 257.503C177.443 257.408 177.539 257.334 177.659 257.28C177.78 257.226 177.917 257.199 178.071 257.199C178.287 257.199 178.456 257.247 178.579 257.341C178.703 257.436 178.791 257.561 178.843 257.716ZM180.933 257.716L180.632 257.801C180.613 257.751 180.585 257.703 180.548 257.655C180.512 257.607 180.463 257.567 180.401 257.536C180.338 257.505 180.258 257.489 180.161 257.489C180.027 257.489 179.916 257.52 179.827 257.581C179.739 257.642 179.695 257.719 179.695 257.813C179.695 257.896 179.725 257.962 179.786 258.01C179.846 258.059 179.941 258.099 180.07 258.131L180.394 258.211C180.589 258.258 180.734 258.33 180.83 258.428C180.925 258.524 180.973 258.649 180.973 258.801C180.973 258.926 180.937 259.038 180.865 259.137C180.794 259.235 180.695 259.313 180.567 259.37C180.439 259.426 180.29 259.455 180.121 259.455C179.898 259.455 179.714 259.407 179.568 259.31C179.422 259.213 179.33 259.072 179.291 258.887L179.609 258.807C179.64 258.925 179.697 259.013 179.781 259.071C179.867 259.13 179.978 259.159 180.115 259.159C180.271 259.159 180.395 259.126 180.487 259.06C180.58 258.993 180.627 258.912 180.627 258.819C180.627 258.743 180.6 258.679 180.547 258.628C180.494 258.576 180.412 258.537 180.303 258.512L179.939 258.426C179.739 258.379 179.592 258.306 179.499 258.206C179.406 258.106 179.359 257.98 179.359 257.83C179.359 257.707 179.394 257.598 179.463 257.503C179.533 257.408 179.628 257.334 179.749 257.28C179.87 257.226 180.007 257.199 180.161 257.199C180.377 257.199 180.546 257.247 180.669 257.341C180.793 257.436 180.881 257.561 180.933 257.716ZM181.972 259.409L181.307 257.228H181.66L182.131 258.898H182.154L182.62 257.228H182.978L183.438 258.892H183.461L183.932 257.228H184.285L183.62 259.409H183.29L182.813 257.733H182.779L182.302 259.409H181.972ZM185.54 259.455C185.343 259.455 185.17 259.408 185.021 259.314C184.874 259.221 184.758 259.089 184.675 258.921C184.592 258.752 184.551 258.555 184.551 258.33C184.551 258.103 184.592 257.904 184.675 257.735C184.758 257.565 184.874 257.434 185.021 257.34C185.17 257.246 185.343 257.199 185.54 257.199C185.737 257.199 185.909 257.246 186.057 257.34C186.206 257.434 186.321 257.565 186.403 257.735C186.487 257.904 186.528 258.103 186.528 258.33C186.528 258.555 186.487 258.752 186.403 258.921C186.321 259.089 186.206 259.221 186.057 259.314C185.909 259.408 185.737 259.455 185.54 259.455ZM185.54 259.154C185.689 259.154 185.813 259.115 185.909 259.039C186.006 258.962 186.077 258.861 186.124 258.736C186.17 258.611 186.193 258.476 186.193 258.33C186.193 258.184 186.17 258.048 186.124 257.922C186.077 257.796 186.006 257.694 185.909 257.617C185.813 257.539 185.689 257.5 185.54 257.5C185.39 257.5 185.267 257.539 185.171 257.617C185.074 257.694 185.002 257.796 184.956 257.922C184.91 258.048 184.886 258.184 184.886 258.33C184.886 258.476 184.91 258.611 184.956 258.736C185.002 258.861 185.074 258.962 185.171 259.039C185.267 259.115 185.39 259.154 185.54 259.154ZM187.04 259.409V257.228H187.364V257.557H187.387C187.427 257.449 187.499 257.362 187.603 257.294C187.707 257.227 187.824 257.194 187.955 257.194C187.98 257.194 188.01 257.194 188.047 257.195C188.084 257.196 188.112 257.197 188.131 257.199V257.54C188.12 257.537 188.094 257.533 188.053 257.527C188.013 257.521 187.971 257.517 187.927 257.517C187.821 257.517 187.726 257.54 187.642 257.584C187.56 257.628 187.495 257.688 187.446 257.766C187.399 257.843 187.375 257.93 187.375 258.029V259.409H187.04ZM189.286 259.455C189.104 259.455 188.944 259.409 188.804 259.317C188.665 259.224 188.556 259.094 188.478 258.925C188.399 258.756 188.36 258.555 188.36 258.324C188.36 258.095 188.399 257.896 188.478 257.728C188.556 257.559 188.666 257.429 188.806 257.337C188.946 257.245 189.108 257.199 189.292 257.199C189.434 257.199 189.546 257.223 189.628 257.27C189.712 257.317 189.775 257.37 189.819 257.429C189.863 257.488 189.898 257.536 189.922 257.574H189.951V256.5H190.286V259.409H189.962V259.074H189.922C189.898 259.114 189.863 259.164 189.817 259.225C189.772 259.284 189.707 259.338 189.623 259.385C189.538 259.432 189.426 259.455 189.286 259.455ZM189.331 259.154C189.466 259.154 189.58 259.119 189.672 259.049C189.765 258.978 189.836 258.88 189.884 258.755C189.932 258.629 189.956 258.483 189.956 258.319C189.956 258.156 189.933 258.013 189.885 257.891C189.838 257.768 189.768 257.672 189.675 257.604C189.582 257.535 189.468 257.5 189.331 257.5C189.189 257.5 189.071 257.537 188.976 257.61C188.883 257.682 188.812 257.78 188.765 257.904C188.718 258.027 188.695 258.165 188.695 258.319C188.695 258.474 188.719 258.615 188.766 258.742C188.814 258.868 188.885 258.968 188.979 259.043C189.074 259.117 189.191 259.154 189.331 259.154ZM191.384 258.591V258.574C191.386 258.393 191.405 258.249 191.441 258.142C191.477 258.035 191.528 257.949 191.594 257.882C191.66 257.816 191.74 257.755 191.833 257.699C191.889 257.665 191.939 257.625 191.983 257.578C192.028 257.531 192.063 257.477 192.089 257.415C192.115 257.354 192.128 257.285 192.128 257.211C192.128 257.118 192.107 257.037 192.063 256.969C192.019 256.901 191.961 256.848 191.888 256.811C191.815 256.774 191.734 256.756 191.645 256.756C191.568 256.756 191.493 256.772 191.421 256.804C191.349 256.837 191.289 256.887 191.241 256.956C191.192 257.025 191.164 257.116 191.157 257.228H190.799C190.806 257.067 190.848 256.929 190.924 256.814C191 256.7 191.101 256.612 191.226 256.551C191.352 256.491 191.492 256.461 191.645 256.461C191.812 256.461 191.957 256.494 192.08 256.56C192.204 256.626 192.3 256.717 192.367 256.833C192.435 256.948 192.469 257.08 192.469 257.228C192.469 257.332 192.453 257.426 192.421 257.51C192.39 257.595 192.344 257.67 192.285 257.736C192.226 257.802 192.155 257.861 192.071 257.912C191.988 257.964 191.921 258.019 191.871 258.077C191.821 258.134 191.785 258.202 191.762 258.28C191.739 258.359 191.727 258.457 191.725 258.574V258.591H191.384ZM191.566 259.432C191.496 259.432 191.436 259.407 191.385 259.357C191.335 259.307 191.31 259.247 191.31 259.176C191.31 259.106 191.335 259.046 191.385 258.996C191.436 258.946 191.496 258.921 191.566 258.921C191.636 258.921 191.696 258.946 191.746 258.996C191.796 259.046 191.821 259.106 191.821 259.176C191.821 259.223 191.81 259.265 191.786 259.304C191.763 259.343 191.732 259.374 191.694 259.398C191.656 259.421 191.613 259.432 191.566 259.432Z" fill="black"/>
</g>
<path d="M170.426 230.449V224.631H171.13V229.824H173.835V230.449H170.426ZM176.608 230.54C176.214 230.54 175.868 230.446 175.571 230.259C175.275 230.071 175.044 229.809 174.877 229.472C174.713 229.135 174.63 228.741 174.63 228.29C174.63 227.836 174.713 227.439 174.877 227.1C175.044 226.761 175.275 226.498 175.571 226.31C175.868 226.123 176.214 226.029 176.608 226.029C177.001 226.029 177.346 226.123 177.642 226.31C177.939 226.498 178.17 226.761 178.335 227.1C178.501 227.439 178.585 227.836 178.585 228.29C178.585 228.741 178.501 229.135 178.335 229.472C178.17 229.809 177.939 230.071 177.642 230.259C177.346 230.446 177.001 230.54 176.608 230.54ZM176.608 229.938C176.907 229.938 177.153 229.861 177.346 229.708C177.539 229.554 177.682 229.353 177.775 229.103C177.868 228.853 177.914 228.582 177.914 228.29C177.914 227.998 177.868 227.727 177.775 227.475C177.682 227.223 177.539 227.019 177.346 226.864C177.153 226.709 176.907 226.631 176.608 226.631C176.308 226.631 176.062 226.709 175.869 226.864C175.676 227.019 175.533 227.223 175.44 227.475C175.347 227.727 175.301 227.998 175.301 228.29C175.301 228.582 175.347 228.853 175.44 229.103C175.533 229.353 175.676 229.554 175.869 229.708C176.062 229.861 176.308 229.938 176.608 229.938ZM181.37 232.176C181.046 232.176 180.767 232.135 180.534 232.051C180.301 231.97 180.107 231.862 179.952 231.728C179.799 231.595 179.676 231.453 179.586 231.301L180.12 230.926C180.18 231.006 180.257 231.097 180.35 231.199C180.443 231.303 180.569 231.393 180.73 231.469C180.893 231.547 181.106 231.586 181.37 231.586C181.722 231.586 182.013 231.5 182.242 231.33C182.471 231.159 182.586 230.892 182.586 230.529V229.642H182.529C182.479 229.722 182.409 229.82 182.318 229.938C182.229 230.053 182.101 230.157 181.932 230.248C181.765 230.337 181.54 230.381 181.256 230.381C180.904 230.381 180.587 230.298 180.307 230.131C180.029 229.964 179.808 229.722 179.645 229.404C179.484 229.086 179.404 228.699 179.404 228.245C179.404 227.798 179.482 227.408 179.64 227.077C179.797 226.744 180.015 226.486 180.296 226.304C180.576 226.121 180.9 226.029 181.267 226.029C181.551 226.029 181.777 226.076 181.943 226.171C182.112 226.264 182.241 226.37 182.33 226.489C182.421 226.606 182.491 226.703 182.54 226.779H182.608V226.086H183.256V230.574C183.256 230.949 183.171 231.254 183 231.489C182.832 231.726 182.604 231.899 182.318 232.009C182.034 232.121 181.718 232.176 181.37 232.176ZM181.347 229.779C181.616 229.779 181.843 229.717 182.029 229.594C182.214 229.471 182.355 229.294 182.452 229.063C182.549 228.832 182.597 228.555 182.597 228.233C182.597 227.919 182.55 227.641 182.455 227.401C182.36 227.16 182.22 226.972 182.034 226.836C181.849 226.699 181.62 226.631 181.347 226.631C181.063 226.631 180.826 226.703 180.637 226.847C180.449 226.991 180.308 227.184 180.213 227.426C180.121 227.669 180.074 227.938 180.074 228.233C180.074 228.536 180.122 228.804 180.216 229.037C180.313 229.268 180.455 229.45 180.642 229.583C180.832 229.713 181.067 229.779 181.347 229.779ZM184.483 230.449V226.086H185.154V230.449H184.483ZM184.824 225.358C184.693 225.358 184.581 225.314 184.486 225.225C184.393 225.136 184.347 225.029 184.347 224.904C184.347 224.779 184.393 224.672 184.486 224.583C184.581 224.494 184.693 224.449 184.824 224.449C184.955 224.449 185.067 224.494 185.159 224.583C185.254 224.672 185.301 224.779 185.301 224.904C185.301 225.029 185.254 225.136 185.159 225.225C185.067 225.314 184.955 225.358 184.824 225.358ZM187.052 227.824V230.449H186.382V226.086H187.029V226.767H187.086C187.189 226.546 187.344 226.368 187.552 226.233C187.76 226.097 188.029 226.029 188.359 226.029C188.654 226.029 188.913 226.089 189.135 226.211C189.356 226.33 189.528 226.512 189.652 226.756C189.775 226.998 189.836 227.305 189.836 227.676V230.449H189.166V227.722C189.166 227.379 189.077 227.112 188.899 226.921C188.721 226.728 188.476 226.631 188.166 226.631C187.952 226.631 187.76 226.677 187.592 226.77C187.425 226.863 187.294 226.998 187.197 227.176C187.1 227.355 187.052 227.57 187.052 227.824Z" fill="white"/>
<path d="M249.642 129.596H124.758C117.637 129.596 111.864 135.46 111.864 142.694V142.71C111.864 149.944 117.637 155.807 124.758 155.807H249.642C256.763 155.807 262.536 149.944 262.536 142.71V142.694C262.536 135.46 256.763 129.596 249.642 129.596Z" fill="white"/>
<path d="M249.642 166.757H124.758C117.637 166.757 111.864 172.621 111.864 179.854V179.87C111.864 187.104 117.637 192.968 124.758 192.968H249.642C256.763 192.968 262.536 187.104 262.536 179.87V179.854C262.536 172.621 256.763 166.757 249.642 166.757Z" fill="white"/>
<g opacity="0.5">
<path d="M131.712 138.399V142.035H131.285L129.304 139.18H129.268V142.035H128.828V138.399H129.254L131.243 141.261H131.278V138.399H131.712ZM133.338 142.099C133.166 142.099 133.009 142.066 132.868 142.001C132.727 141.935 132.615 141.84 132.532 141.715C132.449 141.59 132.408 141.438 132.408 141.261C132.408 141.105 132.439 140.978 132.5 140.881C132.562 140.783 132.644 140.706 132.747 140.65C132.85 140.594 132.964 140.553 133.088 140.526C133.214 140.497 133.34 140.475 133.466 140.458C133.632 140.437 133.766 140.421 133.869 140.41C133.973 140.398 134.049 140.379 134.097 140.352C134.145 140.324 134.169 140.277 134.169 140.21V140.195C134.169 140.02 134.121 139.884 134.026 139.787C133.931 139.69 133.787 139.641 133.594 139.641C133.394 139.641 133.237 139.685 133.124 139.773C133.01 139.86 132.93 139.954 132.884 140.053L132.486 139.911C132.557 139.746 132.652 139.617 132.77 139.524C132.89 139.431 133.02 139.366 133.161 139.329C133.303 139.291 133.443 139.272 133.58 139.272C133.667 139.272 133.768 139.283 133.882 139.304C133.997 139.324 134.107 139.366 134.214 139.43C134.321 139.494 134.411 139.591 134.482 139.72C134.553 139.849 134.588 140.021 134.588 140.238V142.035H134.169V141.666H134.148C134.12 141.725 134.072 141.788 134.006 141.856C133.94 141.923 133.852 141.98 133.741 142.028C133.631 142.075 133.497 142.099 133.338 142.099ZM133.402 141.722C133.568 141.722 133.708 141.69 133.821 141.625C133.936 141.56 134.023 141.476 134.081 141.373C134.14 141.27 134.169 141.161 134.169 141.048V140.664C134.152 140.685 134.113 140.705 134.052 140.723C133.993 140.739 133.924 140.754 133.846 140.767C133.769 140.779 133.694 140.79 133.621 140.799C133.549 140.807 133.49 140.815 133.445 140.82C133.336 140.835 133.234 140.858 133.14 140.89C133.046 140.92 132.97 140.967 132.912 141.03C132.855 141.091 132.827 141.176 132.827 141.282C132.827 141.428 132.881 141.538 132.989 141.612C133.098 141.686 133.235 141.722 133.402 141.722ZM135.353 142.035V139.308H135.758V139.734H135.794C135.85 139.588 135.942 139.475 136.069 139.395C136.195 139.313 136.348 139.272 136.525 139.272C136.705 139.272 136.855 139.313 136.974 139.395C137.095 139.475 137.189 139.588 137.257 139.734H137.285C137.355 139.593 137.46 139.481 137.599 139.398C137.739 139.314 137.907 139.272 138.102 139.272C138.346 139.272 138.545 139.348 138.7 139.501C138.855 139.653 138.933 139.889 138.933 140.21V142.035H138.514V140.21C138.514 140.008 138.459 139.865 138.349 139.778C138.239 139.692 138.109 139.649 137.96 139.649C137.768 139.649 137.619 139.707 137.514 139.823C137.409 139.937 137.356 140.083 137.356 140.259V142.035H136.93V140.167C136.93 140.012 136.88 139.887 136.779 139.792C136.678 139.696 136.549 139.649 136.39 139.649C136.281 139.649 136.179 139.678 136.085 139.736C135.991 139.794 135.916 139.874 135.858 139.977C135.801 140.079 135.772 140.197 135.772 140.33V142.035H135.353ZM140.842 142.092C140.58 142.092 140.353 142.034 140.162 141.918C139.973 141.801 139.827 141.637 139.724 141.428C139.622 141.217 139.571 140.972 139.571 140.693C139.571 140.413 139.622 140.167 139.724 139.954C139.827 139.74 139.97 139.573 140.153 139.453C140.338 139.332 140.554 139.272 140.8 139.272C140.942 139.272 141.082 139.296 141.221 139.343C141.359 139.39 141.485 139.467 141.599 139.574C141.712 139.679 141.803 139.819 141.87 139.993C141.938 140.167 141.972 140.381 141.972 140.636V140.813H139.869V140.451H141.546C141.546 140.297 141.515 140.16 141.453 140.039C141.393 139.918 141.306 139.823 141.194 139.753C141.083 139.683 140.951 139.649 140.8 139.649C140.633 139.649 140.488 139.69 140.367 139.773C140.246 139.855 140.153 139.961 140.088 140.092C140.023 140.224 139.99 140.365 139.99 140.515V140.757C139.99 140.962 140.026 141.137 140.097 141.28C140.169 141.422 140.269 141.531 140.397 141.605C140.525 141.679 140.673 141.715 140.842 141.715C140.953 141.715 141.052 141.7 141.141 141.669C141.231 141.637 141.308 141.59 141.373 141.527C141.438 141.463 141.489 141.384 141.524 141.289L141.929 141.403C141.886 141.54 141.815 141.661 141.714 141.765C141.614 141.868 141.489 141.949 141.341 142.007C141.193 142.063 141.027 142.092 140.842 142.092ZM144.704 142.994C144.342 142.994 144.022 142.944 143.744 142.845C143.466 142.746 143.232 142.601 143.042 142.41C142.853 142.218 142.71 141.983 142.613 141.705C142.516 141.426 142.467 141.108 142.467 140.749C142.467 140.403 142.516 140.092 142.614 139.819C142.714 139.546 142.858 139.314 143.046 139.123C143.235 138.931 143.465 138.785 143.735 138.684C144.006 138.584 144.312 138.533 144.655 138.533C144.987 138.533 145.278 138.588 145.528 138.697C145.779 138.805 145.989 138.951 146.157 139.135C146.326 139.319 146.453 139.525 146.537 139.755C146.622 139.985 146.665 140.221 146.665 140.465C146.665 140.637 146.656 140.811 146.64 140.987C146.623 141.164 146.588 141.326 146.535 141.474C146.482 141.621 146.399 141.739 146.288 141.829C146.178 141.919 146.029 141.964 145.841 141.964C145.758 141.964 145.667 141.951 145.567 141.925C145.468 141.899 145.38 141.856 145.303 141.795C145.226 141.735 145.18 141.654 145.166 141.552H145.145C145.116 141.621 145.072 141.686 145.013 141.747C144.955 141.809 144.879 141.858 144.784 141.895C144.691 141.931 144.576 141.947 144.441 141.943C144.288 141.937 144.152 141.902 144.035 141.84C143.918 141.776 143.819 141.689 143.74 141.58C143.662 141.47 143.603 141.343 143.563 141.199C143.524 141.053 143.504 140.896 143.504 140.728C143.504 140.568 143.528 140.422 143.575 140.29C143.622 140.157 143.688 140.041 143.772 139.942C143.857 139.842 143.957 139.763 144.07 139.704C144.185 139.643 144.309 139.606 144.441 139.592C144.56 139.58 144.668 139.585 144.765 139.608C144.862 139.629 144.942 139.662 145.004 139.705C145.067 139.748 145.107 139.795 145.123 139.847H145.145V139.649H145.521V141.254C145.521 141.353 145.549 141.441 145.604 141.516C145.66 141.592 145.741 141.63 145.848 141.63C145.968 141.63 146.061 141.589 146.125 141.506C146.19 141.423 146.234 141.295 146.258 141.122C146.283 140.949 146.295 140.728 146.295 140.458C146.295 140.3 146.273 140.143 146.229 139.989C146.187 139.834 146.122 139.689 146.034 139.554C145.948 139.42 145.838 139.301 145.706 139.198C145.573 139.095 145.417 139.014 145.239 138.956C145.061 138.897 144.859 138.867 144.633 138.867C144.355 138.867 144.106 138.911 143.886 138.997C143.667 139.082 143.48 139.207 143.326 139.372C143.174 139.535 143.057 139.734 142.977 139.968C142.897 140.201 142.858 140.466 142.858 140.764C142.858 141.065 142.897 141.334 142.977 141.568C143.057 141.802 143.176 142 143.332 142.161C143.489 142.322 143.684 142.444 143.916 142.527C144.148 142.611 144.415 142.653 144.718 142.653C144.849 142.653 144.977 142.64 145.104 142.616C145.23 142.591 145.342 142.563 145.439 142.534C145.536 142.504 145.606 142.482 145.649 142.468L145.748 142.795C145.675 142.826 145.579 142.856 145.461 142.887C145.343 142.918 145.218 142.943 145.084 142.964C144.952 142.984 144.825 142.994 144.704 142.994ZM144.498 141.58C144.657 141.58 144.785 141.548 144.884 141.484C144.982 141.421 145.053 141.324 145.098 141.195C145.143 141.066 145.166 140.903 145.166 140.707C145.166 140.508 145.141 140.353 145.091 140.242C145.042 140.13 144.968 140.052 144.871 140.007C144.774 139.962 144.655 139.94 144.513 139.94C144.378 139.94 144.262 139.975 144.166 140.046C144.072 140.116 143.999 140.21 143.948 140.327C143.898 140.443 143.873 140.569 143.873 140.707C143.873 140.858 143.893 141.001 143.934 141.135C143.974 141.267 144.04 141.375 144.131 141.458C144.222 141.54 144.344 141.58 144.498 141.58ZM147.292 142.035V139.308H147.697V139.734H147.732C147.789 139.588 147.881 139.475 148.007 139.395C148.134 139.313 148.286 139.272 148.464 139.272C148.644 139.272 148.793 139.313 148.913 139.395C149.034 139.475 149.128 139.588 149.195 139.734H149.224C149.293 139.593 149.398 139.481 149.538 139.398C149.677 139.314 149.845 139.272 150.04 139.272C150.284 139.272 150.484 139.348 150.639 139.501C150.794 139.653 150.871 139.889 150.871 140.21V142.035H150.452V140.21C150.452 140.008 150.397 139.865 150.287 139.778C150.177 139.692 150.047 139.649 149.898 139.649C149.706 139.649 149.558 139.707 149.453 139.823C149.347 139.937 149.295 140.083 149.295 140.259V142.035H148.868V140.167C148.868 140.012 148.818 139.887 148.718 139.792C148.617 139.696 148.487 139.649 148.329 139.649C148.22 139.649 148.118 139.678 148.023 139.736C147.93 139.794 147.854 139.874 147.796 139.977C147.739 140.079 147.711 140.197 147.711 140.33V142.035H147.292ZM152.44 142.099C152.267 142.099 152.11 142.066 151.969 142.001C151.829 141.935 151.717 141.84 151.634 141.715C151.551 141.59 151.51 141.438 151.51 141.261C151.51 141.105 151.54 140.978 151.602 140.881C151.663 140.783 151.746 140.706 151.849 140.65C151.952 140.594 152.065 140.553 152.19 140.526C152.315 140.497 152.441 140.475 152.568 140.458C152.734 140.437 152.868 140.421 152.971 140.41C153.075 140.398 153.151 140.379 153.198 140.352C153.247 140.324 153.271 140.277 153.271 140.21V140.195C153.271 140.02 153.223 139.884 153.127 139.787C153.032 139.69 152.889 139.641 152.696 139.641C152.496 139.641 152.339 139.685 152.225 139.773C152.112 139.86 152.032 139.954 151.985 140.053L151.588 139.911C151.659 139.746 151.753 139.617 151.872 139.524C151.991 139.431 152.122 139.366 152.262 139.329C152.404 139.291 152.544 139.272 152.681 139.272C152.769 139.272 152.87 139.283 152.983 139.304C153.098 139.324 153.209 139.366 153.315 139.43C153.423 139.494 153.512 139.591 153.583 139.72C153.654 139.849 153.69 140.021 153.69 140.238V142.035H153.271V141.666H153.25C153.221 141.725 153.174 141.788 153.108 141.856C153.041 141.923 152.953 141.98 152.843 142.028C152.733 142.075 152.599 142.099 152.44 142.099ZM152.504 141.722C152.67 141.722 152.809 141.69 152.923 141.625C153.038 141.56 153.124 141.476 153.182 141.373C153.241 141.27 153.271 141.161 153.271 141.048V140.664C153.253 140.685 153.214 140.705 153.154 140.723C153.095 140.739 153.026 140.754 152.948 140.767C152.871 140.779 152.796 140.79 152.722 140.799C152.65 140.807 152.592 140.815 152.547 140.82C152.438 140.835 152.336 140.858 152.241 140.89C152.148 140.92 152.072 140.967 152.014 141.03C151.957 141.091 151.929 141.176 151.929 141.282C151.929 141.428 151.982 141.538 152.09 141.612C152.199 141.686 152.337 141.722 152.504 141.722ZM154.455 142.035V139.308H154.874V142.035H154.455ZM154.668 138.853C154.586 138.853 154.516 138.825 154.457 138.77C154.399 138.714 154.37 138.647 154.37 138.569C154.37 138.491 154.399 138.424 154.457 138.368C154.516 138.313 154.586 138.285 154.668 138.285C154.75 138.285 154.819 138.313 154.877 138.368C154.937 138.424 154.966 138.491 154.966 138.569C154.966 138.647 154.937 138.714 154.877 138.77C154.819 138.825 154.75 138.853 154.668 138.853ZM156.06 138.399V142.035H155.641V138.399H156.06ZM157.133 142.063C157.046 142.063 156.97 142.032 156.908 141.969C156.845 141.906 156.814 141.831 156.814 141.744C156.814 141.656 156.845 141.581 156.908 141.518C156.97 141.455 157.046 141.424 157.133 141.424C157.221 141.424 157.296 141.455 157.359 141.518C157.421 141.581 157.453 141.656 157.453 141.744C157.453 141.802 157.438 141.855 157.408 141.904C157.38 141.952 157.342 141.991 157.293 142.021C157.246 142.049 157.192 142.063 157.133 142.063ZM159.313 142.092C159.057 142.092 158.837 142.031 158.652 141.911C158.468 141.79 158.326 141.624 158.226 141.412C158.127 141.2 158.077 140.958 158.077 140.685C158.077 140.408 158.128 140.164 158.23 139.952C158.333 139.739 158.476 139.573 158.659 139.453C158.844 139.332 159.059 139.272 159.306 139.272C159.497 139.272 159.67 139.308 159.824 139.379C159.978 139.45 160.104 139.549 160.202 139.677C160.301 139.805 160.362 139.954 160.385 140.124H159.966C159.934 140 159.863 139.89 159.753 139.794C159.644 139.697 159.497 139.649 159.313 139.649C159.149 139.649 159.006 139.691 158.883 139.776C158.761 139.86 158.666 139.979 158.597 140.133C158.53 140.286 158.496 140.465 158.496 140.671C158.496 140.882 158.529 141.065 158.595 141.222C158.663 141.378 158.758 141.499 158.88 141.586C159.003 141.672 159.147 141.715 159.313 141.715C159.422 141.715 159.521 141.696 159.609 141.658C159.698 141.621 159.773 141.566 159.835 141.495C159.896 141.424 159.94 141.339 159.966 141.239H160.385C160.362 141.4 160.303 141.545 160.209 141.674C160.117 141.802 159.995 141.904 159.842 141.98C159.69 142.054 159.514 142.092 159.313 142.092ZM162.106 142.092C161.86 142.092 161.643 142.033 161.458 141.916C161.273 141.799 161.129 141.635 161.024 141.424C160.921 141.213 160.87 140.967 160.87 140.685C160.87 140.401 160.921 140.153 161.024 139.942C161.129 139.73 161.273 139.565 161.458 139.448C161.643 139.331 161.86 139.272 162.106 139.272C162.352 139.272 162.567 139.331 162.752 139.448C162.938 139.565 163.082 139.73 163.185 139.942C163.289 140.153 163.342 140.401 163.342 140.685C163.342 140.967 163.289 141.213 163.185 141.424C163.082 141.635 162.938 141.799 162.752 141.916C162.567 142.033 162.352 142.092 162.106 142.092ZM162.106 141.715C162.293 141.715 162.447 141.667 162.567 141.571C162.688 141.476 162.777 141.35 162.835 141.193C162.893 141.037 162.922 140.868 162.922 140.685C162.922 140.503 162.893 140.333 162.835 140.176C162.777 140.018 162.688 139.891 162.567 139.794C162.447 139.697 162.293 139.649 162.106 139.649C161.919 139.649 161.765 139.697 161.644 139.794C161.523 139.891 161.434 140.018 161.376 140.176C161.318 140.333 161.289 140.503 161.289 140.685C161.289 140.868 161.318 141.037 161.376 141.193C161.434 141.35 161.523 141.476 161.644 141.571C161.765 141.667 161.919 141.715 162.106 141.715ZM163.981 142.035V139.308H164.386V139.734H164.422C164.478 139.588 164.57 139.475 164.697 139.395C164.823 139.313 164.975 139.272 165.153 139.272C165.333 139.272 165.483 139.313 165.602 139.395C165.723 139.475 165.817 139.588 165.885 139.734H165.913C165.983 139.593 166.088 139.481 166.227 139.398C166.367 139.314 166.534 139.272 166.73 139.272C166.974 139.272 167.173 139.348 167.328 139.501C167.483 139.653 167.561 139.889 167.561 140.21V142.035H167.142V140.21C167.142 140.008 167.087 139.865 166.977 139.778C166.866 139.692 166.737 139.649 166.588 139.649C166.396 139.649 166.247 139.707 166.142 139.823C166.037 139.937 165.984 140.083 165.984 140.259V142.035H165.558V140.167C165.558 140.012 165.508 139.887 165.407 139.792C165.306 139.696 165.177 139.649 165.018 139.649C164.909 139.649 164.807 139.678 164.713 139.736C164.619 139.794 164.543 139.874 164.485 139.977C164.429 140.079 164.4 140.197 164.4 140.33V142.035H163.981Z" fill="black"/>
</g>
<path d="M129.899 180.539L129.939 179.445L129.014 180.032L128.775 179.614L129.75 179.107L128.775 178.6L129.014 178.183L129.939 178.769L129.899 177.675H130.376L130.337 178.769L131.261 178.183L131.5 178.6L130.525 179.107L131.5 179.614L131.261 180.032L130.337 179.445L130.376 180.539H129.899ZM133.399 180.539L133.439 179.445L132.514 180.032L132.275 179.614L133.25 179.107L132.275 178.6L132.514 178.183L133.439 178.769L133.399 177.675H133.876L133.837 178.769L134.761 178.183L135 178.6L134.025 179.107L135 179.614L134.761 180.032L133.837 179.445L133.876 180.539H133.399ZM136.899 180.539L136.939 179.445L136.014 180.032L135.775 179.614L136.75 179.107L135.775 178.6L136.014 178.183L136.939 178.769L136.899 177.675H137.376L137.337 178.769L138.261 178.183L138.5 178.6L137.525 179.107L138.5 179.614L138.261 180.032L137.337 179.445L137.376 180.539H136.899ZM140.399 180.539L140.439 179.445L139.514 180.032L139.275 179.614L140.25 179.107L139.275 178.6L139.514 178.183L140.439 178.769L140.399 177.675H140.876L140.837 178.769L141.761 178.183L142 178.6L141.025 179.107L142 179.614L141.761 180.032L140.837 179.445L140.876 180.539H140.399ZM143.899 180.539L143.939 179.445L143.014 180.032L142.775 179.614L143.75 179.107L142.775 178.6L143.014 178.183L143.939 178.769L143.899 177.675H144.376L144.337 178.769L145.261 178.183L145.5 178.6L144.525 179.107L145.5 179.614L145.261 180.032L144.337 179.445L144.376 180.539H143.899ZM147.399 180.539L147.439 179.445L146.514 180.032L146.275 179.614L147.25 179.107L146.275 178.6L146.514 178.183L147.439 178.769L147.399 177.675H147.876L147.837 178.769L148.761 178.183L149 178.6L148.025 179.107L149 179.614L148.761 180.032L147.837 179.445L147.876 180.539H147.399ZM150.899 180.539L150.939 179.445L150.014 180.032L149.775 179.614L150.75 179.107L149.775 178.6L150.014 178.183L150.939 178.769L150.899 177.675H151.376L151.337 178.769L152.261 178.183L152.5 178.6L151.525 179.107L152.5 179.614L152.261 180.032L151.337 179.445L151.376 180.539H150.899Z" fill="black"/>
<path opacity="0.2" d="M236.022 136.538V148.85H253.193V136.538H236.022ZM250.384 137.885L244.607 141.892L238.815 137.885H250.384ZM237.332 147.503V138.478L244.607 143.512L251.867 138.478V147.503H237.332Z" fill="black"/>
<g opacity="0.2">
<path d="M248.663 177.818V176.328C248.659 175.423 248.304 174.557 247.674 173.918C247.045 173.278 246.192 172.917 245.302 172.913H243.471C242.581 172.917 241.728 173.278 241.099 173.918C240.469 174.557 240.114 175.423 240.11 176.328V177.818H237.348V188.062H251.851V177.818H248.663ZM241.435 176.328C241.435 175.779 241.65 175.253 242.032 174.865C242.413 174.477 242.931 174.259 243.471 174.259H245.302C245.842 174.259 246.36 174.477 246.741 174.865C247.123 175.253 247.338 175.779 247.338 176.328V177.818H241.435V176.328ZM250.542 186.716H238.673V179.165H250.542V186.716Z" fill="black"/>
<path d="M244.229 183.349V184.568H244.986V183.349C245.097 183.284 245.189 183.191 245.253 183.078C245.316 182.966 245.35 182.838 245.349 182.708C245.365 182.599 245.357 182.487 245.327 182.381C245.296 182.275 245.244 182.177 245.173 182.094C245.101 182.01 245.013 181.943 244.915 181.897C244.816 181.851 244.708 181.828 244.6 181.828C244.491 181.828 244.383 181.851 244.285 181.897C244.186 181.943 244.098 182.01 244.027 182.094C243.956 182.177 243.903 182.275 243.872 182.381C243.842 182.487 243.834 182.599 243.85 182.708C243.853 182.839 243.889 182.967 243.955 183.08C244.022 183.192 244.116 183.285 244.229 183.349Z" fill="black"/>
</g>
<path d="M466.441 45.0637H421.099C417.395 45.0637 413.842 46.5585 411.223 49.2192C408.603 51.8799 407.132 55.4886 407.132 59.2514V99.3294C407.132 103.092 408.603 106.701 411.223 109.362C413.842 112.022 417.395 113.517 421.099 113.517H439.028L443.762 126.166L448.497 113.517H466.425C468.259 113.517 470.074 113.15 471.768 112.437C473.462 111.724 475 110.678 476.296 109.361C477.592 108.043 478.619 106.479 479.319 104.758C480.02 103.036 480.379 101.192 480.377 99.3294V59.2514C480.379 57.3903 480.02 55.5471 479.321 53.8269C478.622 52.1067 477.596 50.5433 476.302 49.2258C475.008 47.9084 473.471 46.8628 471.779 46.1486C470.087 45.4345 468.273 45.0658 466.441 45.0637Z" fill="#B20937"/>
<path opacity="0.7" d="M466.441 45.0637H421.099C417.395 45.0637 413.842 46.5585 411.223 49.2192C408.603 51.8799 407.132 55.4886 407.132 59.2514V99.3294C407.132 103.092 408.603 106.701 411.223 109.362C413.842 112.022 417.395 113.517 421.099 113.517H439.028L443.762 126.166L448.497 113.517H466.425C468.259 113.517 470.074 113.15 471.768 112.437C473.462 111.724 475 110.678 476.296 109.361C477.592 108.043 478.619 106.479 479.319 104.758C480.02 103.036 480.379 101.192 480.377 99.3294V59.2514C480.379 57.3903 480.02 55.5471 479.321 53.8269C478.622 52.1067 477.596 50.5433 476.302 49.2258C475.008 47.9084 473.471 46.8628 471.779 46.1486C470.087 45.4345 468.273 45.0658 466.441 45.0637Z" fill="white"/>
<path d="M441.411 89.326C441.111 89.3267 440.814 89.2611 440.541 89.1338C440.269 89.0065 440.027 88.8204 439.832 88.5885L430.994 78.024C430.639 77.5988 430.464 77.0475 430.508 76.4913C430.552 75.9351 430.813 75.4196 431.231 75.0582C431.65 74.6968 432.192 74.5191 432.74 74.5642C433.287 74.6093 433.795 74.8735 434.151 75.2986L441.411 83.9876L453.389 69.5595C453.745 69.1343 454.252 68.8701 454.8 68.825C455.348 68.7799 455.89 68.9576 456.309 69.319C456.727 69.6804 456.988 70.1959 457.032 70.7521C457.076 71.3083 456.901 71.8596 456.546 72.2848L442.989 88.5885C442.793 88.8188 442.551 89.0037 442.278 89.1309C442.006 89.2581 441.71 89.3246 441.411 89.326Z" fill="white"/>
<path d="M459.674 95.2772C468.463 86.3496 468.463 71.8752 459.674 62.9476C450.885 54.02 436.636 54.02 427.847 62.9476C419.058 71.8752 419.058 86.3497 427.847 95.2773C436.636 104.205 450.885 104.205 459.674 95.2772Z" fill="#B20937"/>
<path d="M528.039 479.67H538.455L517.149 357.528H506.733L528.039 479.67Z" fill="#263238"/>
<path d="M298.946 479.67H309.378L288.072 357.528H277.64L298.946 479.67Z" fill="#263238"/>
<path opacity="0.3" d="M528.039 479.67H538.455L517.149 357.528H506.733L528.039 479.67Z" fill="white"/>
<path opacity="0.3" d="M298.946 479.67H309.378L288.072 357.528H277.64L298.946 479.67Z" fill="white"/>
<path d="M208.293 429.316L522.594 429.316V418.591L208.293 418.591V429.316Z" fill="#263238"/>
<path opacity="0.5" d="M208.293 429.316L522.594 429.316V418.591L208.293 418.591V429.316Z" fill="white"/>
<path d="M431.926 479.67H421.51L442.815 357.528H453.232L431.926 479.67Z" fill="#263238"/>
<path d="M202.848 479.67H192.416L213.722 357.528H224.154L202.848 479.67Z" fill="#263238"/>
<path opacity="0.3" d="M431.926 479.67H421.51L442.815 357.528H453.232L431.926 479.67Z" fill="white"/>
<path opacity="0.3" d="M202.848 479.67H192.416L213.722 357.528H224.154L202.848 479.67Z" fill="white"/>
<path d="M297.352 352.767H307.72L325.081 254.736H314.712L297.352 352.767Z" fill="#263238"/>
<path opacity="0.3" d="M297.352 352.767H307.72L325.081 254.736H314.712L297.352 352.767Z" fill="white"/>
<path d="M503.293 352.767H513.662L531.022 254.736H520.653L503.293 352.767Z" fill="#263238"/>
<path d="M400.314 352.767H410.683L428.043 254.736H417.675L400.314 352.767Z" fill="#263238"/>
<path opacity="0.3" d="M503.293 352.767H513.662L531.022 254.736H520.653L503.293 352.767Z" fill="white"/>
<path opacity="0.3" d="M400.314 352.767H410.683L428.043 254.736H417.675L400.314 352.767Z" fill="white"/>
<path d="M279.439 261.437H551.791L555.042 243.098H282.69L279.439 261.437Z" fill="#263238"/>
<path d="M273.568 294.622H545.92L549.171 276.282H276.819L273.568 294.622Z" fill="#263238"/>
<path d="M267.681 327.807H540.033L543.284 309.467H270.932L267.681 327.807Z" fill="#263238"/>
<path d="M190.238 362.578L537.335 362.578V349.882L190.238 349.882V362.578Z" fill="#263238"/>
<path opacity="0.5" d="M279.439 261.437H551.791L555.042 243.098H282.69L279.439 261.437Z" fill="white"/>
<path opacity="0.5" d="M273.568 294.622H545.92L549.171 276.282H276.819L273.568 294.622Z" fill="white"/>
<path opacity="0.5" d="M267.681 327.807H540.033L543.284 309.467H270.932L267.681 327.807Z" fill="white"/>
<path opacity="0.5" d="M190.238 362.578L537.335 362.578V349.882L190.238 349.882V362.578Z" fill="white"/>
<path opacity="0.2" d="M190.238 362.578L452.111 362.578V349.882L190.238 349.882V362.578Z" fill="white"/>
<path d="M425.297 219.099C417.959 226.97 400.362 246.256 389.472 245.919C377.983 244.669 365.136 226.682 359.012 217.576C358.51 216.769 358.307 215.807 358.441 214.862C358.575 213.917 359.036 213.052 359.742 212.422C360.448 211.792 361.352 211.438 362.292 211.425C363.231 211.412 364.145 211.74 364.868 212.35C372.348 218.666 382.954 228.557 390.009 231.443C388.935 231.443 388.73 231.667 389.709 231.042C398.578 224.63 406.075 215.941 413.776 208.149C421.115 200.887 431.942 211.163 425.297 219.099Z" fill="#E9B376"/>
<path d="M421.289 204.735V227.708C421.289 227.708 416.554 231.747 410.636 236.204C407.7 238.433 404.497 240.757 401.498 242.729C396.937 245.743 392.834 247.955 390.75 247.827C384.532 247.442 371.038 237.647 371.038 237.647L379.908 222.642C379.908 222.642 390.103 228.974 390.75 229.407C391.397 229.84 412.782 204.879 421.289 204.735Z" fill="#B20937"/>
<path opacity="0.2" d="M410.636 236.204C407.7 238.433 404.496 240.757 401.498 242.729C402.208 229.551 408.316 224.485 408.316 224.485C410.098 228.114 410.898 232.158 410.636 236.204Z" fill="black"/>
<path d="M429.906 144.329C419.016 153.355 420.31 179.325 432.541 196.367C432.541 196.367 458.677 198.595 473.196 191.99C487.716 185.385 471.618 143.335 456.325 140.033C447.3 138.027 437.863 139.561 429.906 144.329Z" fill="#263238"/>
<path d="M430.553 171.31C426.56 164.32 422.662 145.451 439.186 139.632C459.907 132.354 469.172 145.772 470.987 159.078C472.801 172.384 465.4 182.435 451.701 181.441C438.002 180.448 433.299 176.151 430.553 171.31Z" fill="#263238"/>
<path d="M408.3 224.485C406.28 234.216 409.878 257.141 410.415 274.423L459.213 280.13C459.213 274.711 460.207 266.856 463.395 254.367C465.21 247.057 467.83 238.144 471.413 227.211C471.933 225.607 472.486 224.004 472.991 222.225C473.633 220.509 473.89 218.67 473.742 216.841C473.595 215.012 473.048 213.24 472.141 211.653C471.234 210.066 469.989 208.705 468.498 207.669C467.006 206.633 465.306 205.948 463.522 205.665C461.47 205.328 459.292 205.039 457.067 204.815C449.216 203.814 441.304 203.39 433.393 203.548C430.821 203.629 428.138 203.821 425.581 204.045C416.475 204.831 410.162 215.38 408.3 224.485Z" fill="#263238"/>
<path d="M456.83 177.738C454.384 185.337 451.117 199.332 455.788 204.735C455.788 204.735 448.655 203.26 432.889 212.013C428.801 205.344 432.194 203.468 432.194 203.468C440.922 201.865 441.49 195.453 440.78 189.473L456.83 177.738Z" fill="#EBB376"/>
<path opacity="0.2" d="M450.296 182.516L440.827 189.457C441.015 190.875 441.079 192.308 441.016 193.737C444.315 193.433 449.207 190.082 449.981 186.684C450.335 185.325 450.442 183.913 450.296 182.516Z" fill="black"/>
<path d="M460.097 159.992C460.271 172.672 460.602 178.043 454.794 185C446.082 195.469 430.695 192.904 426.797 180.528C423.293 169.306 423.64 150.501 435.414 144.554C438.009 143.232 440.895 142.606 443.795 142.734C446.696 142.863 449.517 143.742 451.989 145.288C454.462 146.835 456.504 148.997 457.923 151.57C459.342 154.144 460.09 157.042 460.097 159.992Z" fill="#FFB573"/>
<path d="M449.507 148.129C446.051 152.537 453.926 166.42 460.144 168.777C472.218 164.737 459.844 134.967 449.507 148.129Z" fill="#263238"/>
<path d="M434.719 142.213C430.127 144.265 425.818 153.034 425.25 156.304C432.084 156.833 449.681 148.818 449.681 148.818C449.681 148.818 462.07 151.126 455.41 145.451C448.75 139.776 434.719 142.213 434.719 142.213Z" fill="#263238"/>
<path d="M439.328 165.154C439.328 166.18 438.933 167.045 438.27 167.11C437.607 167.174 437.008 166.356 436.929 165.33C436.85 164.304 437.339 163.438 438.002 163.374C438.665 163.31 439.249 164.128 439.328 165.154Z" fill="#263238"/>
<path d="M427.886 166.019C427.886 167.045 427.491 167.927 426.828 167.975C426.165 168.023 425.566 167.238 425.487 166.212C425.408 165.186 425.897 164.304 426.56 164.256C427.223 164.208 427.807 164.993 427.886 166.019Z" fill="#263238"/>
<path d="M426.844 164.256L424.366 163.727C424.366 163.727 425.755 165.587 426.844 164.256Z" fill="#263238"/>
<path d="M432.747 167.302C432 169.717 430.939 172.019 429.59 174.147C430.135 174.48 430.745 174.688 431.377 174.757C432.01 174.826 432.649 174.755 433.252 174.548L432.747 167.302Z" fill="#ED893E"/>
<path d="M439.091 178.155C438.603 178.273 438.107 178.353 437.607 178.396C437.528 178.396 437.452 178.363 437.395 178.306C437.339 178.249 437.308 178.172 437.308 178.091C437.308 178.01 437.339 177.933 437.395 177.876C437.452 177.818 437.528 177.786 437.607 177.786C438.872 177.723 440.103 177.356 441.201 176.715C442.298 176.074 443.23 175.177 443.92 174.099C443.938 174.065 443.963 174.035 443.993 174.01C444.023 173.986 444.057 173.968 444.094 173.958C444.131 173.947 444.169 173.944 444.207 173.949C444.245 173.954 444.282 173.967 444.315 173.987C444.383 174.024 444.434 174.087 444.457 174.162C444.481 174.236 444.475 174.317 444.441 174.388C443.845 175.349 443.063 176.178 442.144 176.825C441.225 177.473 440.186 177.925 439.091 178.155Z" fill="#263238"/>
<path d="M464.311 171.31C463.979 172.477 463.423 173.567 462.676 174.516C461.928 175.465 461.004 176.255 459.955 176.841C457.146 178.444 455.031 175.991 455.22 172.913C455.394 170.155 457.067 166.019 460.192 165.731C460.872 165.687 461.551 165.815 462.17 166.105C462.789 166.395 463.327 166.836 463.735 167.39C464.144 167.943 464.411 168.591 464.511 169.276C464.612 169.96 464.543 170.659 464.311 171.31Z" fill="#FFB573"/>
<path d="M444.883 162.14C444.759 162.165 444.63 162.151 444.515 162.099C444.399 162.048 444.302 161.961 444.236 161.851C442.816 159.463 439.28 159.174 439.249 159.174C439.09 159.163 438.941 159.089 438.836 158.967C438.731 158.845 438.678 158.686 438.689 158.525C438.699 158.363 438.772 158.212 438.892 158.106C439.012 157.999 439.169 157.945 439.328 157.956C439.501 157.956 443.526 158.308 445.262 161.162C445.343 161.3 445.367 161.466 445.329 161.622C445.29 161.778 445.192 161.912 445.057 161.996L444.883 162.14Z" fill="#263238"/>
<path d="M425.25 160.617C425.148 160.642 425.042 160.639 424.942 160.608C424.842 160.577 424.752 160.519 424.682 160.441C424.626 160.385 424.582 160.319 424.551 160.246C424.521 160.173 424.505 160.095 424.505 160.016C424.505 159.937 424.521 159.858 424.551 159.785C424.582 159.712 424.626 159.646 424.682 159.591C425.346 158.906 426.165 158.395 427.066 158.102C427.968 157.809 428.926 157.742 429.858 157.908C429.934 157.925 430.005 157.958 430.069 158.004C430.132 158.05 430.185 158.108 430.226 158.175C430.267 158.242 430.295 158.317 430.308 158.395C430.32 158.473 430.318 158.552 430.3 158.629C430.283 158.706 430.25 158.778 430.205 158.843C430.16 158.907 430.103 158.961 430.037 159.003C429.971 159.045 429.897 159.073 429.821 159.086C429.744 159.098 429.666 159.096 429.59 159.078C428.85 158.963 428.094 159.028 427.383 159.268C426.672 159.507 426.028 159.915 425.502 160.457C425.431 160.529 425.345 160.584 425.25 160.617Z" fill="#263238"/>
<path d="M438.286 163.422L435.808 162.893C435.808 162.893 437.197 164.721 438.286 163.422Z" fill="#263238"/>
<path d="M393.938 210.25L395.122 214.001C395.34 214.696 395.719 215.328 396.227 215.844C396.735 216.36 397.357 216.745 398.041 216.967L404.544 219.083C405.824 219.502 407.184 219.603 408.511 219.377C409.837 219.151 411.091 218.605 412.166 217.784L413.508 216.758C411.93 210.346 405.696 204.671 405.696 204.671L404.118 202.827C403.796 202.444 403.404 202.129 402.963 201.899C402.522 201.67 402.04 201.532 401.547 201.491C401.053 201.451 400.556 201.51 400.084 201.665C399.613 201.82 399.176 202.068 398.799 202.394L395.185 205.6C394.552 206.166 394.096 206.909 393.875 207.735C393.653 208.561 393.675 209.436 393.938 210.25Z" fill="#EBB376"/>
<path d="M350.19 213.68L351.374 217.448C351.597 218.143 351.979 218.774 352.49 219.29C353 219.805 353.624 220.19 354.309 220.413L360.796 222.53C362.076 222.945 363.436 223.044 364.762 222.818C366.088 222.592 367.341 222.048 368.418 221.231L369.776 220.205C368.197 213.792 361.885 208.101 361.885 208.101L360.306 206.274C359.986 205.886 359.593 205.567 359.151 205.336C358.708 205.104 358.225 204.964 357.728 204.923C357.232 204.883 356.733 204.943 356.259 205.101C355.786 205.259 355.349 205.51 354.972 205.841L351.358 209.047C350.745 209.624 350.309 210.367 350.102 211.189C349.895 212.011 349.925 212.876 350.19 213.68Z" fill="#EBB376"/>
<path opacity="0.2" d="M444.567 233.815C447.724 243.21 455.725 250.215 463.395 254.367C465.21 247.057 467.83 238.144 471.413 227.211C466.599 220.381 459.86 215.524 451.275 216.838C451.275 216.838 441.395 224.309 444.567 233.815Z" fill="black"/>
<path d="M271.39 420.194L279.628 423.577C279.628 423.577 349.622 316.328 356.108 320.352C379.576 334.956 427.823 361.055 450.659 345.249C473.496 329.442 459.939 287.777 459.939 287.777C459.939 287.777 415.528 271.938 410.036 281.733C408.588 284.656 407.328 287.67 406.264 290.758C405.128 293.852 404.244 296.466 404.244 296.466C402.902 295.824 359.375 274.551 338.874 283.32C318.026 292.217 271.39 420.194 271.39 420.194Z" fill="#EBB376"/>
<path d="M423.183 350.972C423.183 350.972 401.166 352.43 371.007 342.026C371.007 342.026 363.573 427.441 358.57 473.803L348.47 472.36C348.47 472.36 331.283 345.81 334.676 330.388C338.069 314.965 356.503 313.939 356.503 313.939C356.503 313.939 391.65 340.183 423.183 350.972Z" fill="#EBB376"/>
<path d="M423.182 350.972C408.319 351.156 393.501 349.284 379.135 345.409L382.007 333.257C393.102 340.712 408.584 345.249 423.182 350.972Z" fill="#B20937"/>
<path opacity="0.4" d="M423.182 350.972C408.319 351.156 393.501 349.284 379.135 345.409L382.007 333.257C393.102 340.712 408.584 345.249 423.182 350.972Z" fill="white"/>
<path d="M380.145 332.023L377.509 345.553L381.518 346.948L384.611 335.005L380.145 332.023Z" fill="#B20937"/>
<path opacity="0.6" d="M380.145 332.023L377.509 345.553L381.518 346.948L384.611 335.005L380.145 332.023Z" fill="white"/>
<path opacity="0.2" d="M338.338 384.172C336.76 350.507 336.065 333.129 341.494 326.187C345.079 321.897 350.013 318.998 355.461 317.979C362.532 336.175 393.339 347.525 394.191 347.83C405.696 350.25 422.741 350.875 423.167 351.036C408.426 347.989 394.429 341.995 381.991 333.401C373.111 327.456 364.599 320.961 356.503 313.956C356.503 313.956 338.117 314.966 334.724 330.388C333.335 336.704 335.386 361.584 338.29 388.821C338.39 387.274 338.405 385.722 338.338 384.172Z" fill="black"/>
<path d="M263.167 413.157C263.059 412.903 263.032 412.622 263.088 412.352C263.145 412.082 263.283 411.837 263.483 411.65C263.611 411.486 263.771 411.352 263.953 411.255C264.135 411.159 264.335 411.102 264.54 411.089C265.607 411.14 266.639 411.49 267.523 412.099C266.75 411.073 266.15 409.967 266.418 409.277C266.592 408.828 267.034 408.588 267.744 408.588C268.055 408.579 268.365 408.639 268.651 408.763C268.937 408.888 269.193 409.074 269.401 409.309C270.774 410.832 270.474 414.311 270.474 414.471C270.483 414.524 270.483 414.579 270.474 414.632C270.481 414.658 270.481 414.686 270.474 414.712C270.438 414.719 270.4 414.719 270.364 414.712H270.238C268.763 414.746 267.288 414.633 265.834 414.375C264.524 414.231 263.483 413.83 263.167 413.157ZM264.603 411.842C264.498 411.845 264.393 411.871 264.298 411.918C264.203 411.965 264.119 412.032 264.051 412.115C263.688 412.564 263.783 412.772 263.814 412.836C264.193 413.606 266.829 413.99 269.054 414.055C267.776 413.077 265.771 411.73 264.603 411.842ZM267.76 409.325C267.555 409.325 267.192 409.325 267.113 409.55C266.892 410.143 268.249 411.987 269.78 413.59C269.892 412.261 269.57 410.931 268.865 409.806C268.666 409.578 268.401 409.42 268.107 409.357L267.76 409.325Z" fill="#263238"/>
<path d="M338.59 465.034C338.389 464.848 338.247 464.604 338.185 464.335C338.123 464.066 338.143 463.784 338.243 463.527C338.292 463.324 338.382 463.134 338.506 462.969C338.631 462.803 338.789 462.665 338.969 462.565C339.965 462.14 341.058 462.007 342.125 462.18C340.989 461.587 339.995 460.85 339.947 460.112C339.947 459.631 340.247 459.23 340.847 458.91C341.128 458.775 341.436 458.706 341.747 458.706C342.058 458.706 342.365 458.775 342.646 458.91C344.54 459.679 345.803 462.95 345.803 463.094C345.817 463.152 345.817 463.212 345.803 463.27C345.792 463.321 345.764 463.366 345.724 463.399L345.645 463.479C343.838 464.442 341.877 465.072 339.853 465.338C339.41 465.39 338.963 465.282 338.59 465.034ZM339.348 463.206C339.25 463.255 339.164 463.324 339.096 463.41C339.028 463.496 338.979 463.596 338.953 463.703C338.811 464.264 338.953 464.409 339.048 464.457C339.711 464.986 342.204 464.184 344.287 463.27C342.725 462.95 340.342 462.613 339.348 463.206ZM341.115 459.583C340.926 459.679 340.61 459.856 340.626 460.064C340.626 460.689 342.662 461.763 344.745 462.533C344.277 461.292 343.424 460.24 342.315 459.535C342.146 459.46 341.963 459.421 341.778 459.423C341.548 459.422 341.321 459.477 341.115 459.583Z" fill="#263238"/>
<path d="M284.82 419.97C285.278 418.912 272.195 413.814 272.195 413.814C272.195 413.814 260.784 418.207 252.404 416.475C244.023 414.744 246.091 421.285 254.613 425.26L275.477 435.039C281.553 437.845 280.165 430.903 284.82 419.97Z" fill="#263238"/>
<path d="M361.032 461.731C361.032 460.577 347.097 461.651 347.097 461.651C347.097 461.651 338.638 470.597 330.352 472.681C322.066 474.765 326.769 479.783 336.065 479.67L359.044 479.382C365.641 479.302 361.443 473.659 361.032 461.731Z" fill="#263238"/>
<path d="M459.939 287.777C459.939 287.777 415.528 271.938 410.036 281.733C408.595 284.659 407.335 287.673 406.264 290.758C405.128 293.852 404.244 296.466 404.244 296.466L400.598 294.766L385.731 339.862C409.405 353.2 442.815 354.739 456.514 345.265C479.304 329.458 459.939 287.777 459.939 287.777Z" fill="#B20937"/>
<g opacity="0.4">
<path d="M459.939 287.777C459.939 287.777 415.528 271.938 410.036 281.733C408.595 284.659 407.335 287.673 406.264 290.758C405.128 293.852 404.244 296.466 404.244 296.466L400.598 294.766L385.731 339.862C409.405 353.2 442.815 354.739 456.514 345.265C479.304 329.458 459.939 287.777 459.939 287.777Z" fill="white"/>
</g>
<path opacity="0.3" d="M404.244 296.466L429.858 307.511C429.858 307.511 416.712 296.289 406.185 290.758C405.128 293.852 404.244 296.466 404.244 296.466Z" fill="black"/>
<path d="M409.405 282.967L410.304 271.842L459.939 278.543L460.586 289.284L409.405 282.967Z" fill="#B20937"/>
<path opacity="0.4" d="M409.405 282.967L410.304 271.842L459.939 278.543L460.586 289.284L409.405 282.967Z" fill="white"/>
<path d="M410.399 272.932L413.003 273.316L412.198 281.989L410.052 281.733L410.399 272.932Z" fill="#263238"/>
<path d="M415.465 273.669L443.447 277.805L442.721 285.692L414.676 282.294L415.465 273.669Z" fill="#263238"/>
<path d="M459.939 287.777L445.183 285.997L445.909 278.174L459.229 280.13L459.939 287.777Z" fill="#263238"/>
<path opacity="0.2" d="M410.399 272.932L413.003 273.316L412.198 281.989L410.052 281.733L410.399 272.932Z" fill="black"/>
<path opacity="0.2" d="M415.465 273.669L443.447 277.805L442.721 285.692L414.676 282.294L415.465 273.669Z" fill="black"/>
<path opacity="0.2" d="M459.939 287.777L445.183 285.997L445.909 278.174L459.229 280.13L459.939 287.777Z" fill="black"/>
<path d="M430.284 285.228H429.985L422.015 284.154C421.72 284.114 421.436 284.016 421.178 283.865C420.921 283.713 420.696 283.512 420.515 283.272C420.331 283.034 420.195 282.761 420.117 282.469C420.038 282.177 420.018 281.872 420.058 281.573L420.768 276.154C420.801 275.842 420.895 275.539 421.044 275.264C421.193 274.989 421.394 274.746 421.636 274.551C422.113 274.183 422.715 274.022 423.309 274.102L431.279 275.176C431.575 275.214 431.86 275.31 432.119 275.461C432.378 275.611 432.605 275.812 432.787 276.052C432.969 276.292 433.102 276.566 433.179 276.859C433.256 277.152 433.276 277.457 433.236 277.757L432.526 283.176C432.467 283.738 432.206 284.259 431.792 284.638C431.378 285.017 430.841 285.227 430.284 285.228ZM423.009 275.737C422.86 275.738 422.716 275.789 422.599 275.881C422.455 275.996 422.359 276.163 422.33 276.346L421.636 281.765C421.621 281.855 421.624 281.947 421.646 282.035C421.668 282.123 421.707 282.206 421.762 282.278C421.875 282.424 422.039 282.522 422.22 282.55L430.19 283.625C430.372 283.647 430.555 283.596 430.7 283.482C430.845 283.368 430.939 283.2 430.963 283.015L431.673 277.597C431.692 277.414 431.641 277.23 431.531 277.084C431.418 276.938 431.254 276.84 431.074 276.811L423.104 275.737H423.009Z" fill="white"/>
<path d="M430.679 280.931H430.553L427.744 280.466C427.641 280.451 427.543 280.415 427.455 280.36C427.367 280.305 427.291 280.233 427.23 280.148C427.17 280.063 427.127 279.966 427.104 279.864C427.081 279.762 427.079 279.656 427.097 279.553C427.132 279.344 427.245 279.157 427.413 279.031C427.58 278.906 427.79 278.851 427.996 278.879L430.805 279.344C431.015 279.361 431.209 279.462 431.345 279.624C431.481 279.787 431.548 279.997 431.531 280.21C431.515 280.422 431.415 280.62 431.256 280.758C431.096 280.896 430.888 280.964 430.679 280.947V280.931Z" fill="white"/>
<path d="M398.452 291.64L402.587 293.852L388.556 342.299L382.67 341.112L398.452 291.64Z" fill="#B20937"/>
<path opacity="0.6" d="M398.452 291.64L402.587 293.852L388.556 342.299L382.67 341.112L398.452 291.64Z" fill="white"/>
<path d="M395.138 242.809H360.417C359.756 242.797 359.123 242.538 358.637 242.083C358.151 241.628 357.847 241.008 357.781 240.34L352.936 193.449C352.903 193.135 352.935 192.818 353.031 192.518C353.127 192.218 353.285 191.943 353.494 191.709C353.703 191.476 353.958 191.29 354.243 191.165C354.527 191.039 354.835 190.976 355.146 190.98H389.866C390.529 190.992 391.164 191.25 391.652 191.704C392.141 192.159 392.449 192.78 392.518 193.449L397.347 240.34C397.383 240.654 397.353 240.972 397.258 241.274C397.162 241.575 397.005 241.851 396.795 242.085C396.586 242.319 396.33 242.505 396.044 242.63C395.758 242.755 395.449 242.816 395.138 242.809Z" fill="#263238"/>
<path opacity="0.6" d="M395.138 242.809H360.417C359.756 242.797 359.123 242.538 358.637 242.083C358.151 241.628 357.847 241.008 357.781 240.34L352.936 193.449C352.903 193.135 352.935 192.818 353.031 192.518C353.127 192.218 353.285 191.943 353.494 191.709C353.703 191.476 353.958 191.29 354.243 191.165C354.527 191.039 354.835 190.976 355.146 190.98H389.866C390.529 190.992 391.164 191.25 391.652 191.704C392.141 192.159 392.449 192.78 392.518 193.449L397.347 240.34C397.383 240.654 397.353 240.972 397.258 241.274C397.162 241.575 397.005 241.851 396.795 242.085C396.586 242.319 396.33 242.505 396.044 242.63C395.758 242.755 395.449 242.816 395.138 242.809Z" fill="white"/>
<path opacity="0.2" d="M393.686 242.809H360.37C359.709 242.797 359.076 242.538 358.59 242.083C358.104 241.628 357.8 241.008 357.734 240.34L352.889 193.449C352.855 193.135 352.888 192.818 352.984 192.518C353.08 192.218 353.238 191.943 353.446 191.709C353.655 191.476 353.911 191.29 354.195 191.165C354.48 191.039 354.788 190.976 355.098 190.98H388.414C389.075 190.992 389.708 191.251 390.194 191.706C390.68 192.161 390.984 192.781 391.05 193.449L395.958 240.26C396.008 240.586 395.986 240.919 395.893 241.234C395.8 241.55 395.638 241.841 395.421 242.085C395.203 242.329 394.934 242.521 394.634 242.646C394.334 242.772 394.01 242.827 393.686 242.809Z" fill="white"/>
<path d="M373.406 212.975C372.924 212.967 372.446 213.064 372.003 213.259C371.561 213.454 371.165 213.742 370.841 214.104C370.517 214.467 370.272 214.895 370.124 215.361C369.976 215.827 369.927 216.32 369.981 216.806C370.078 217.846 370.548 218.813 371.302 219.522C372.056 220.232 373.041 220.635 374.069 220.654C374.551 220.659 375.03 220.56 375.472 220.364C375.914 220.167 376.31 219.877 376.634 219.514C376.958 219.15 377.202 218.721 377.35 218.254C377.498 217.787 377.547 217.294 377.493 216.806C376.469 216.784 375.488 216.383 374.735 215.677C373.982 214.971 373.509 214.01 373.406 212.975Z" fill="#263238"/>
<path opacity="0.3" d="M380.934 194.619H362.563C362.112 194.61 361.672 194.473 361.293 194.224C360.913 193.974 360.61 193.623 360.417 193.208L359.312 190.9H383.553L382.843 193.208C382.72 193.623 382.466 193.985 382.121 194.239C381.777 194.494 381.36 194.627 380.934 194.619Z" fill="black"/>
<path d="M469.598 301.916H463.143C463.143 301.916 455.078 277.324 450.375 256.484C449.062 250.972 448.056 245.39 447.361 239.763C446.686 233.53 447.222 227.223 448.939 221.199C450.564 215.24 453.343 209.67 457.114 204.815L455.804 204.735C468.019 204.607 474.616 208.903 475.437 216.63C476.258 224.357 462.811 270.206 462.117 276.33C461.422 282.454 469.598 301.916 469.598 301.916Z" fill="#B20937"/>
<path d="M427.901 203.869C427.901 203.869 414.976 224.549 411.519 233.335C408.063 242.12 410.052 267.289 410.052 267.289C410.052 267.289 403.439 237.006 407.684 222C411.93 206.995 419.3 203.917 427.901 203.869Z" fill="#B20937"/>
<path d="M472.154 222.513C465.352 232.421 449.112 255.682 435.129 250.231C427.759 246.817 422.504 240.613 417.627 234.601C413.378 229.164 409.573 223.384 406.248 217.319C405.707 216.466 405.506 215.435 405.686 214.436C405.866 213.438 406.414 212.547 407.219 211.944C408.023 211.341 409.023 211.073 410.016 211.193C411.008 211.313 411.918 211.812 412.561 212.59C417.043 217.319 421.715 222.065 426.37 226.457C430.426 230.176 435.634 235.018 440.338 236.765C440.009 236.611 439.656 236.519 439.296 236.493C439.028 236.493 439.091 236.493 439.296 236.316C447.187 230.834 453.247 221.407 459.103 213.568C465.194 205.023 477.678 213.568 472.186 222.513H472.154Z" fill="#E9B376"/>
<path opacity="0.2" d="M470.45 228.381C470.45 228.381 459.087 248.067 450.375 256.419C449.062 250.908 448.056 245.325 447.361 239.699C446.686 233.466 447.222 227.158 448.939 221.135L457.935 213.6C462.401 209.865 470.45 228.381 470.45 228.381Z" fill="black"/>
<path d="M471.255 210.234C477.205 213.44 475.406 222.209 467.609 232.565C459.813 242.921 445.704 256.916 438.286 254.367C430.868 251.819 422.504 241.799 422.504 241.799L427.917 226.281C427.917 226.281 438.539 234.473 440.748 234.056C442.958 233.639 453.784 219.403 456.909 214.995C460.034 210.586 464.8 206.691 471.255 210.234Z" fill="#B20937"/>
<path d="M360.338 211.147L360.117 214.225C360.054 215.02 359.728 215.769 359.192 216.352C358.656 216.934 357.942 217.315 357.166 217.432L353.047 218.057L354.025 206.835L357.466 207.444C358.311 207.589 359.074 208.049 359.605 208.733C360.136 209.418 360.397 210.278 360.338 211.147Z" fill="#FFB573"/>
</svg>
