<svg width="37" height="37" viewBox="0 0 37 37" fill="none" xmlns="http://www.w3.org/2000/svg">
<path d="M13.7917 0.25C17.3831 0.25 20.8275 1.67671 23.3671 4.21626C25.9066 6.75582 27.3333 10.2002 27.3333 13.7917C27.3333 17.1458 26.1042 20.2292 24.0833 22.6042L24.6458 23.1667H26.2917L36.7083 33.5833L33.5833 36.7083L23.1667 26.2917V24.6458L22.6042 24.0833C20.2292 26.1042 17.1458 27.3333 13.7917 27.3333C10.2002 27.3333 6.75582 25.9066 4.21626 23.3671C1.67671 20.8275 0.25 17.3831 0.25 13.7917C0.25 10.2002 1.67671 6.75582 4.21626 4.21626C6.75582 1.67671 10.2002 0.25 13.7917 0.25ZM13.7917 4.41667C8.58333 4.41667 4.41667 8.58333 4.41667 13.7917C4.41667 19 8.58333 23.1667 13.7917 23.1667C19 23.1667 23.1667 19 23.1667 13.7917C23.1667 8.58333 19 4.41667 13.7917 4.41667Z" fill="#1A0007"/>
</svg>
